SplineFontDB: 3.0
FontName: NovaRound-BoldOblique
FullName: Nova Round Bold Oblique
FamilyName: Nova Round
Weight: Bold
Copyright: Copyright (c) 2020-2024 by Wojciech Kalinowski "wmk69" with Reserved Font Name "NovaRound-BoldOblique".\nThis Font Software is licensed under the SIL Open Font License, Version 1.1.
Version: 3.1.0; 2021-05-23
ItalicAngle: -12
UnderlinePosition: -80
UnderlineWidth: 320
Ascent: 1638
Descent: 410
InvalidEm: 0
LayerCount: 2
Layer: 0 1 "Warstwa t+AUIA-a" 1
Layer: 1 1 "Plan pierwszy" 0
XUID: [1021 783 23647091 8360855]
StyleMap: 0x0021
FSType: 0
OS2Version: 3
OS2_WeightWidthSlopeOnly: 0
OS2_UseTypoMetrics: 1
CreationTime: 1260698820
ModificationTime: 1621761884
PfmFamily: 33
TTFWeight: 700
TTFWidth: 5
LineGap: 200
VLineGap: 0
Panose: 2 12 8 4 2 5 3 13 2 4
OS2TypoAscent: 2000
OS2TypoAOffset: 0
OS2TypoDescent: -500
OS2TypoDOffset: 0
OS2TypoLinegap: 200
OS2WinAscent: 2000
OS2WinAOffset: 0
OS2WinDescent: 500
OS2WinDOffset: 0
HheadAscent: 2000
HheadAOffset: 0
HheadDescent: -500
HheadDOffset: 0
OS2SubXSize: 1434
OS2SubYSize: 1331
OS2SubXOff: 0
OS2SubYOff: 287
OS2SupXSize: 1434
OS2SupYSize: 1331
OS2SupXOff: 0
OS2SupYOff: 977
OS2StrikeYSize: 102
OS2StrikeYPos: 512
OS2CapHeight: 1530
OS2XHeight: 1120
OS2Vendor: '    '
OS2CodePages: 20000093.00000000
OS2UnicodeRanges: 8000002f.4000204b.00000000.00000000
Lookup: 258 0 0 "'kern' Horizontal Kerning lookup 0" { "'kern' Horizontal Kerning lookup 0-1 subtable" [307,0,4] } ['kern' ('DFLT' <'dflt' > 'grek' <'dflt' > 'latn' <'dflt' > ) ]
MarkAttachClasses: 1
DEI: 91125
KernClass2: 65 55 "'kern' Horizontal Kerning lookup 0-1 subtable"
 134 A M N Agrave Aacute Acircumflex Atilde Adieresis Aring Ntilde Amacron Abreve Aogonek Nacute Ncommaaccent Ncaron Eng Aringacute uni1E40
 28 B germandbls uni1E02 uni1E9E
 47 C Ccedilla Cacute Ccircumflex Cdotaccent Ccaron
 122 D O Q Eth Ograve Oacute Ocircumflex Otilde Odieresis Oslash Dcaron Dcroat Omacron Obreve Ohungarumlaut Oslashacute uni1E0A

StartChar: .notdef
Encoding: 65536 -1 0
Width: 1034
Flags: W
HStem: 0 118<323 761> 1392 118<594 1032>
VStem: 110 814<0 814> 431 814<696 1510>
DStem2: 110 0 297.918 0 0.207912 0.978148<159.707 1462.21> 735.918 0 924 0 0.207912 0.978148<120.636 1423.14>
LayerCount: 2
Fore
SplineSet
110 0 m 1,0,-1
 431 1510 l 1,1,-1
 1245 1510 l 1,2,-1
 924 0 l 1,3,-1
 110 0 l 1,0,-1
323 118 m 1,4,-1
 761 118 l 1,5,-1
 1032 1392 l 1,6,-1
 594 1392 l 1,7,-1
 323 118 l 1,4,-1
EndSplineSet
Validated: 1
EndChar

StartChar: exclam
Encoding: 33 33 4
Width: 560
GlyphClass: 2
Flags: W
HStem: -20 365<186.097 362.323> 1510 20G<668.605 725>
VStem: 90 635
DStem2: 75.789 -20 395.543 -20 0.207912 0.978148<641.036 1434.34>
LayerCount: 2
Fore
SplineSet
236 -20 m 0,0,1
 160 -20 160 -20 120 34 c 0,2,3
 90 73 90 73 90 123 c 0,4,5
 90 142 90 142 94 162 c 0,6,7
 110 238 110 238 174 291 c 0,8,9
 238 345 238 345 313 345 c 0,10,11
 389 345 389 345 430 292 c 0,12,13
 459 254 459 254 459 203 c 0,14,15
 459 184 459 184 455 163 c 0,16,17
 439 88 439 88 374.5 34 c 128,-1,18
 310 -20 310 -20 236 -20 c 0,0,1
715 1530 m 1,19,-1
 725 1530 l 1,20,-1
 515 542 l 1,21,-1
 174 395 l 1,22,-1
 164 395 l 1,23,-1
 374 1383 l 1,24,-1
 715 1530 l 1,19,-1
EndSplineSet
Validated: 1
EndChar

StartChar: quotedbl
Encoding: 34 34 5
Width: 510
GlyphClass: 2
Flags: W
HStem: 1100 480
VStem: 264 552
DStem2: 264 1100 443.783 1100 0.207912 0.978148<120.189 407.953> 534 1100 713.783 1100 0.207912 0.978148<120.189 407.953>
LayerCount: 2
Fore
SplineSet
806 1580 m 1,0,-1
 816 1580 l 1,1,-1
 731 1181 l 1,2,-1
 544 1100 l 1,3,-1
 534 1100 l 1,4,-1
 619 1499 l 1,5,-1
 806 1580 l 1,0,-1
536 1580 m 1,6,-1
 546 1580 l 1,7,-1
 461 1181 l 1,8,-1
 274 1100 l 1,9,-1
 264 1100 l 1,10,-1
 349 1499 l 1,11,-1
 536 1580 l 1,6,-1
EndSplineSet
Validated: 1
EndChar

StartChar: numbersign
Encoding: 35 35 6
Width: 1408
GlyphClass: 2
Flags: W
HStem: 460 180<326 506 724 918 1136 1316> 872 180<414 593 812 1005 1224 1403>
DStem2: 442 161 621.783 161 0.207912 0.978148<120.189 305.772 527.164 726.858 948.457 1132.85> 854 161 1033.78 161 0.207912 0.978148<120.189 305.772 527.164 726.858 948.457 1132.85>
LayerCount: 2
Fore
SplineSet
865 1350 m 1,0,-1
 875 1350 l 1,1,-1
 812 1052 l 1,2,-1
 1044 1052 l 1,3,-1
 1090 1269 l 1,4,-1
 1277 1350 l 1,5,-1
 1287 1350 l 1,6,-1
 1224 1052 l 1,7,-1
 1522 1052 l 1,8,-1
 1519 1042 l 1,9,-1
 1403 872 l 1,10,-1
 1185 872 l 1,11,-1
 1136 640 l 1,12,-1
 1434 640 l 1,13,-1
 1432 630 l 1,14,-1
 1316 460 l 1,15,-1
 1098 460 l 1,16,-1
 1051 242 l 1,17,-1
 864 161 l 1,18,-1
 854 161 l 1,19,-1
 918 460 l 1,20,-1
 686 460 l 1,21,-1
 639 242 l 1,22,-1
 452 161 l 1,23,-1
 442 161 l 1,24,-1
 506 460 l 1,25,-1
 208 460 l 1,26,-1
 210 470 l 1,27,-1
 326 640 l 1,28,-1
 544 640 l 1,29,-1
 593 872 l 1,30,-1
 295 872 l 1,31,-1
 297 882 l 1,32,-1
 414 1052 l 1,33,-1
 632 1052 l 1,34,-1
 678 1269 l 1,35,-1
 865 1350 l 1,0,-1
956 640 m 1,36,-1
 1005 872 l 1,37,-1
 773 872 l 1,38,-1
 724 640 l 1,39,-1
 956 640 l 1,36,-1
EndSplineSet
Validated: 1
EndChar

StartChar: dollar
Encoding: 36 36 7
Width: 1179
GlyphClass: 2
Flags: W
VStem: 326 325<1016.56 1196.08> 919 331<392.017 597.78>
DStem2: 489 -120 609.16 -120 0.207912 0.978148<77.122 107.28 438.98 819.13 1145.44 1402.73 1706.77 1737.14>
LayerCount: 2
Fore
SplineSet
620 -69 m 1,0,-1
 499 -120 l 1,1,-1
 489 -120 l 1,2,-1
 511 -15 l 1,3,4
 324 8 324 8 217 131 c 0,5,6
 117 246 117 246 114 399 c 1,7,-1
 432 536 l 1,8,-1
 442 536 l 1,9,10
 431 486 431 486 431 447 c 0,11,12
 431 372 431 372 470 335 c 0,13,14
 511 296 511 296 575 285 c 1,15,-1
 659 679 l 1,16,17
 521 712 521 712 425 800 c 0,18,19
 326 893 326 893 326 1034 c 0,20,21
 326 1064 326 1064 331 1097 c 0,22,23
 358 1294 358 1294 519 1412 c 0,24,25
 665 1519 665 1519 840 1529 c 1,26,-1
 851 1579 l 1,27,-1
 971 1630 l 1,28,-1
 981 1630 l 1,29,-1
 959 1525 l 1,30,31
 1109 1505 1109 1505 1192 1404 c 0,32,33
 1277 1301 1277 1301 1280 1190 c 1,34,-1
 967 1055 l 1,35,-1
 957 1055 l 1,36,37
 968 1108 968 1108 968 1146 c 0,38,39
 968 1189 968 1189 954 1213 c 0,40,41
 936 1244 936 1244 901 1256 c 1,42,-1
 842 976 l 1,43,44
 1058 948 1058 948 1170 811 c 0,45,46
 1250 713 1250 713 1250 573 c 0,47,48
 1250 532 1250 532 1243 488 c 0,49,50
 1208 258 1208 258 1030 125 c 0,51,52
 849 -11 849 -11 631 -19 c 1,53,-1
 620 -69 l 1,0,-1
727 999 m 1,54,-1
 781 1252 l 1,55,56
 752 1242 752 1242 726 1223 c 0,57,58
 668 1182 668 1182 654 1115 c 0,59,60
 651 1101 651 1101 651 1089 c 0,61,62
 651 1029 651 1029 719 1002 c 0,63,64
 723 1001 723 1001 727 999 c 1,54,-1
774 657 m 1,65,-1
 695 285 l 1,66,67
 765 297 765 297 820 337 c 0,68,69
 897 395 897 395 915 481 c 0,70,71
 919 498 919 498 919 514 c 0,72,73
 919 560 919 560 889 599 c 0,74,75
 860 636 860 636 774 657 c 1,65,-1
EndSplineSet
Validated: 1
EndChar

StartChar: percent
Encoding: 37 37 8
Width: 1846
GlyphClass: 2
Flags: W
HStem: -20 206<1320.99 1513.76> 517 205<1371.28 1565.61> 788 206<603.995 796.295> 1325 205<654.278 848.606>
VStem: 353 226<1043 1245.33> 870 227<1072.11 1290.33> 1070 226<235.002 437.333> 1587 227<264.108 482.327>
DStem2: 484 93 707 -20 0.561853 0.827237<31.8155 1737.11>
LayerCount: 2
Fore
SplineSet
1408 186 m 128,-1,1
 1468 186 1468 186 1518 234 c 0,2,3
 1567 282 1567 282 1582 352 c 0,4,5
 1587 375 1587 375 1587 397 c 0,6,7
 1587 438 1587 438 1568 470 c 0,8,9
 1539 517 1539 517 1479 517 c 128,-1,10
 1419 517 1419 517 1367.5 469.5 c 128,-1,11
 1316 422 1316 422 1301 352 c 0,12,13
 1296 329 1296 329 1296 308 c 0,14,15
 1296 266 1296 266 1317 234 c 0,16,0
 1348 186 1348 186 1408 186 c 128,-1,1
1383 -20 m 0,17,18
 1215 -20 1215 -20 1133 89 c 0,19,20
 1070 173 1070 173 1070 290 c 0,21,22
 1070 320 1070 320 1074 352 c 0,23,24
 1094 512 1094 512 1217 613 c 0,25,26
 1349 722 1349 722 1501 722 c 0,27,28
 1667 722 1667 722 1751 613 c 0,29,30
 1814 531 1814 531 1814 411 c 0,31,32
 1814 381 1814 381 1810 350 c 0,33,34
 1792 192 1792 192 1667 89 c 0,35,36
 1536 -20 1536 -20 1383 -20 c 0,17,18
697 -20 m 1,37,-1
 484 93 l 1,38,-1
 1460 1530 l 1,39,-1
 1470 1530 l 1,40,-1
 1682 1417 l 1,41,-1
 707 -20 l 1,42,-1
 697 -20 l 1,37,-1
762 1325 m 128,-1,44
 702 1325 702 1325 650.5 1277.5 c 128,-1,45
 599 1230 599 1230 584 1160 c 0,46,47
 579 1137 579 1137 579 1116 c 0,48,49
 579 1074 579 1074 600 1042 c 0,50,51
 631 994 631 994 691 994 c 128,-1,52
 751 994 751 994 800 1042 c 0,53,54
 850 1090 850 1090 865 1160 c 0,55,56
 870 1183 870 1183 870 1205 c 0,57,58
 870 1246 870 1246 851 1278 c 0,59,43
 822 1325 822 1325 762 1325 c 128,-1,44
784 1530 m 0,60,61
 950 1530 950 1530 1034 1421 c 0,62,63
 1097 1339 1097 1339 1097 1219 c 0,64,65
 1097 1189 1097 1189 1093 1158 c 0,66,67
 1075 1000 1075 1000 950 897 c 0,68,69
 819 788 819 788 666 788 c 0,70,71
 498 788 498 788 416 897 c 0,72,73
 353 981 353 981 353 1098 c 0,74,75
 353 1128 353 1128 357 1160 c 0,76,77
 377 1320 377 1320 500 1421 c 0,78,79
 632 1530 632 1530 784 1530 c 0,60,61
EndSplineSet
Validated: 1
EndChar

StartChar: ampersand
Encoding: 38 38 9
Width: 1692
GlyphClass: 2
Flags: W
HStem: -20 293<591.471 951.759> 1250 280<810.213 1044.82>
VStem: 204 326<332.418 577.858> 434 304<996.972 1180.3>
DStem2: 1004 955 786 701 0.56255 -0.826763<67.867 442.67 771.324 959.67>
LayerCount: 2
Fore
SplineSet
1287 -20 m 1,0,-1
 1277 -20 l 1,1,-1
 1171 134 l 1,2,3
 938 -20 938 -20 696 -20 c 0,4,5
 447 -20 447 -20 311 120 c 0,6,7
 204 230 204 230 204 391 c 0,8,9
 204 431 204 431 211 473 c 0,10,11
 251 730 251 730 490 851 c 1,12,13
 434 935 434 935 434 1057 c 0,14,15
 434 1088 434 1088 438 1122 c 0,16,17
 457 1297 457 1297 610 1409 c 0,18,19
 775 1530 775 1530 972 1530 c 0,20,21
 1189 1530 1189 1530 1302 1406 c 0,22,23
 1385 1314 1385 1314 1386 1183 c 1,24,-1
 1078 1050 l 1,25,-1
 1068 1050 l 1,26,27
 1075 1085 1075 1085 1075 1114 c 0,28,29
 1075 1166 1075 1166 1051 1199 c 0,30,31
 1013 1250 1013 1250 941.5 1250 c 128,-1,32
 870 1250 870 1250 812.5 1208 c 128,-1,33
 755 1166 755 1166 741 1102 c 0,34,35
 738 1086 738 1086 738 1071 c 0,36,37
 738 1027 738 1027 769 996 c 0,38,39
 810 955 810 955 883 955 c 2,40,-1
 1004 955 l 1,41,-1
 1253 589 l 1,42,43
 1346 710 1346 710 1391 851 c 1,44,-1
 1738 1000 l 1,45,-1
 1748 1000 l 1,46,47
 1665 627 1665 627 1415 350 c 1,48,-1
 1581 107 l 1,49,-1
 1287 -20 l 1,0,-1
1021 355 m 1,50,-1
 786 701 l 1,51,52
 704 693 704 693 630 636 c 0,53,54
 556 580 556 580 536 488 c 0,55,56
 531 465 531 465 530 441 c 0,57,58
 530 379 530 379 571 335 c 0,59,60
 628 273 628 273 753 273 c 0,61,62
 895 273 895 273 1021 355 c 1,50,-1
EndSplineSet
Validated: 1
EndChar

StartChar: quotesingle
Encoding: 39 39 10
Width: 240
GlyphClass: 2
Flags: W
HStem: 1100 480
VStem: 264 282
DStem2: 264 1100 443.783 1100 0.207912 0.978148<120.189 407.953>
LayerCount: 2
Fore
SplineSet
536 1580 m 1,0,-1
 546 1580 l 1,1,-1
 461 1181 l 1,2,-1
 274 1100 l 1,3,-1
 264 1100 l 1,4,-1
 349 1499 l 1,5,-1
 536 1580 l 1,0,-1
EndSplineSet
Validated: 1
EndChar

StartChar: parenleft
Encoding: 40 40 11
Width: 756
GlyphClass: 2
Flags: W
HStem: 1449 301<873.002 1034>
VStem: 206 325<119.414 328.053>
DStem2: 108.746 -240 429.297 -240 0.207912 0.978148<539.329 1718.3>
LayerCount: 2
Fore
SplineSet
675 -240 m 1,0,1
 441 -240 441 -240 306 -93 c 0,2,3
 206 16 206 16 206 165 c 0,4,5
 206 217 206 217 218 274 c 2,6,-1
 423 1236 l 2,7,8
 476 1485 476 1485 637 1604 c 0,9,10
 835 1750 835 1750 1098 1750 c 1,11,-1
 1034 1449 l 1,12,13
 931 1448 931 1448 848 1392 c 0,14,15
 763 1333 763 1333 745 1248 c 2,16,-1
 536 262 l 2,17,18
 531 241 531 241 531 221 c 0,19,20
 531 160 531 160 577 116 c 0,21,22
 635 60 635 60 739 60 c 1,23,-1
 675 -240 l 1,0,1
EndSplineSet
Validated: 1
EndChar

StartChar: parenright
Encoding: 41 41 12
Width: 756
GlyphClass: 2
Flags: W
HStem: -240 300<43 210.799>
VStem: 545 326<1089.81 1391.25>
DStem2: 224.716 -240 545.267 -240 0.207912 0.978148<383.978 1560.62>
LayerCount: 2
Fore
SplineSet
-21 -240 m 1,0,1
 43 60 l 1,2,3
 147 60 147 60 229 116 c 0,4,5
 313 174 313 174 332 262 c 2,6,-1
 541 1248 l 2,7,8
 545 1269 545 1269 545 1288 c 0,9,10
 545 1349 545 1349 500 1392 c 0,11,12
 441 1448 441 1448 338 1449 c 1,13,-1
 402 1750 l 1,14,15
 635 1750 635 1750 771 1604 c 0,16,17
 871 1496 871 1496 871 1346 c 0,18,19
 871 1294 871 1294 859 1236 c 2,20,-1
 654 274 l 2,21,22
 601 27 601 27 440 -93 c 0,23,24
 243 -240 243 -240 -21 -240 c 1,0,1
EndSplineSet
Validated: 1
EndChar

StartChar: asterisk
Encoding: 42 42 13
Width: 790
GlyphClass: 2
Flags: W
DStem2: 264 1103 400 988 0.889369 0.457191<68.3772 213.28 574.709 719.612>
LayerCount: 2
Fore
SplineSet
811 1580 m 1,0,-1
 821 1580 l 1,1,-1
 775 1366 l 1,2,-1
 904 1432 l 1,3,-1
 1037 1326 l 1,4,-1
 1040 1317 l 1,5,-1
 832 1210 l 1,6,-1
 994 1103 l 1,7,-1
 988 1094 l 1,8,-1
 810 988 l 1,9,-1
 709 1054 l 1,10,-1
 681 921 l 1,11,-1
 494 840 l 1,12,-1
 484 840 l 1,13,-1
 529 1054 l 1,14,-1
 400 988 l 1,15,-1
 268 1094 l 1,16,-1
 264 1103 l 1,17,-1
 472 1210 l 1,18,-1
 310 1317 l 1,19,-1
 317 1326 l 1,20,-1
 494 1432 l 1,21,-1
 595 1366 l 1,22,-1
 624 1499 l 1,23,-1
 811 1580 l 1,0,-1
EndSplineSet
Validated: 1
EndChar

StartChar: plus
Encoding: 43 43 14
Width: 1240
GlyphClass: 2
Flags: W
HStem: 620 270<424 617 944 1137>
DStem2: 537 245 807.43 245 0.207912 0.978148<184.018 383.438 715.525 914.945>
LayerCount: 2
Fore
SplineSet
1014 1265 m 1,0,-1
 1024 1265 l 1,1,-1
 944 890 l 1,2,-1
 1319 890 l 1,3,-1
 1317 880 l 1,4,-1
 1137 620 l 1,5,-1
 887 620 l 1,6,-1
 834 370 l 1,7,-1
 547 245 l 1,8,-1
 537 245 l 1,9,-1
 617 620 l 1,10,-1
 242 620 l 1,11,-1
 244 630 l 1,12,-1
 424 890 l 1,13,-1
 674 890 l 1,14,-1
 727 1140 l 1,15,-1
 1014 1265 l 1,0,-1
EndSplineSet
Validated: 1
EndChar

StartChar: comma
Encoding: 44 44 15
Width: 496
GlyphClass: 2
Flags: W
HStem: -328 666
VStem: 203 283<-42.5039 147.058>
LayerCount: 2
Fore
SplineSet
75 212 m 1,0,-1
 371 338 l 1,1,-1
 381 338 l 1,2,3
 486 259 486 259 486 132 c 0,4,5
 486 95 486 95 477 54 c 0,6,7
 422 -203 422 -203 60 -328 c 1,8,-1
 55 -321 l 1,9,10
 166 -172 166 -172 197 -24 c 0,11,12
 203 3 203 3 203 28 c 0,13,14
 203 146 203 146 75 212 c 1,0,-1
EndSplineSet
Validated: 1
EndChar

StartChar: hyphen
Encoding: 45 45 16
Width: 1240
GlyphClass: 2
Flags: W
HStem: 620 270<424 1137>
LayerCount: 2
Fore
SplineSet
424 890 m 1,0,-1
 1319 890 l 1,1,-1
 1317 880 l 1,2,-1
 1137 620 l 1,3,-1
 242 620 l 1,4,-1
 244 630 l 1,5,-1
 424 890 l 1,0,-1
EndSplineSet
Validated: 1
EndChar

StartChar: period
Encoding: 46 46 17
Width: 420
GlyphClass: 2
Flags: W
HStem: -20 365<156.097 332.323>
VStem: 60 369<75.75 249.936>
LayerCount: 2
Fore
SplineSet
206 -20 m 0,0,1
 130 -20 130 -20 90 34 c 0,2,3
 60 73 60 73 60 123 c 0,4,5
 60 142 60 142 64 162 c 0,6,7
 80 238 80 238 144 291 c 0,8,9
 208 345 208 345 283 345 c 0,10,11
 359 345 359 345 400 292 c 0,12,13
 429 254 429 254 429 203 c 0,14,15
 429 184 429 184 425 163 c 0,16,17
 409 88 409 88 344.5 34 c 128,-1,18
 280 -20 280 -20 206 -20 c 0,0,1
EndSplineSet
Validated: 1
EndChar

StartChar: slash
Encoding: 47 47 18
Width: 1105
GlyphClass: 2
Flags: W
DStem2: -8 -87 214 -200 0.561693 0.827346<31.2057 2172.01>
LayerCount: 2
Fore
SplineSet
204 -200 m 1,0,-1
 -8 -87 l 1,1,-1
 1212 1710 l 1,2,-1
 1222 1710 l 1,3,-1
 1434 1597 l 1,4,-1
 214 -200 l 1,5,-1
 204 -200 l 1,0,-1
EndSplineSet
Validated: 1
EndChar

StartChar: zero
Encoding: 48 48 19
Width: 1370
GlyphClass: 2
Flags: W
HStem: -20 300<598.939 910.316> 1229 301<781.466 1093.91>
VStem: 214 324<341.303 546.69> 1153 324<963.31 1168.7>
DStem2: 115.746 -20 435.297 -20 0.207912 0.978148<540.277 1268.37> 925.297 -20 1245.75 -20 0.207912 0.978148<382.938 1110.99>
LayerCount: 2
Fore
SplineSet
712 -20 m 128,-1,1
 478 -20 478 -20 328 127 c 0,2,3
 214 239 214 239 214 393 c 0,4,5
 214 441 214 441 225 494 c 2,6,-1
 336 1016 l 2,7,8
 389 1265 389 1265 550 1384 c 0,9,10
 748 1530 748 1530 982 1530 c 0,11,12
 1215 1530 1215 1530 1364 1383 c 0,13,14
 1477 1271 1477 1271 1477 1117 c 0,15,16
 1477 1068 1477 1068 1466 1016 c 2,17,-1
 1355 494 l 2,18,19
 1302 245 1302 245 1142 126 c 0,20,0
 946 -20 946 -20 712 -20 c 128,-1,1
746 280 m 0,21,22
 850 280 850 280 932 337 c 128,-1,23
 1014 394 1014 394 1032 482 c 2,24,-1
 1149 1028 l 2,25,26
 1153 1049 1153 1049 1153 1068 c 0,27,28
 1153 1130 1153 1130 1108 1173 c 0,29,30
 1049 1229 1049 1229 946 1229 c 128,-1,31
 843 1229 843 1229 760.5 1172.5 c 128,-1,32
 678 1116 678 1116 659 1028 c 2,33,-1
 542 482 l 2,34,35
 538 461 538 461 538 442 c 0,36,37
 538 379 538 379 584 336 c 0,38,39
 644 280 644 280 746 280 c 0,21,22
EndSplineSet
Validated: 1
EndChar

StartChar: one
Encoding: 49 49 20
Width: 794
GlyphClass: 2
Flags: W
HStem: -20 21G<260 316.395> 1510 20G<852.612 909>
DStem2: 260 -20 579.754 -20 0.207912 0.978148<216.765 1122.45>
LayerCount: 2
Fore
SplineSet
270 -20 m 1,0,-1
 260 -20 l 1,1,-1
 493 1078 l 1,2,-1
 227 973 l 1,3,-1
 289 1267 l 1,4,-1
 899 1530 l 1,5,-1
 909 1530 l 1,6,-1
 611 127 l 1,7,-1
 270 -20 l 1,0,-1
EndSplineSet
Validated: 1
EndChar

StartChar: two
Encoding: 50 50 21
Width: 1273
GlyphClass: 2
Flags: W
HStem: 0 300<684 1047> 1230 300<705.48 1020.02>
VStem: 262 321<915.137 1107.27> 1075 326<920.347 1176.51>
DStem2: 764 667 684 300 0.828016 0.560704<-272.02 325.289>
LayerCount: 2
Fore
SplineSet
40 0 m 1,0,-1
 42 10 l 1,1,-1
 256 323 l 1,2,-1
 764 667 l 2,3,4
 1035 851 1035 851 1068 1007 c 0,5,6
 1075 1039 1075 1039 1075 1066 c 0,7,8
 1075 1121 1075 1121 1048 1158 c 0,9,10
 995 1230 995 1230 875.5 1230 c 128,-1,11
 756 1230 756 1230 680.5 1167 c 128,-1,12
 605 1104 605 1104 586 1015 c 0,13,14
 583 1000 583 1000 583 985 c 0,15,16
 583 955 583 955 596 927 c 1,17,-1
 299 800 l 1,18,-1
 289 800 l 1,19,20
 262 868 262 868 262 945 c 0,21,22
 262 995 262 995 273 1048 c 0,23,24
 317 1258 317 1258 467 1380 c 0,25,26
 653 1530 653 1530 910 1530 c 0,27,28
 1153 1530 1153 1530 1296 1373 c 0,29,30
 1401 1257 1401 1257 1401 1092 c 0,31,32
 1401 1056 1401 1056 1396 1018 c 0,33,34
 1357 709 1357 709 998 491 c 2,35,-1
 684 300 l 1,36,-1
 1247 300 l 1,37,-1
 1245 290 l 1,38,-1
 1047 0 l 1,39,-1
 40 0 l 1,0,-1
EndSplineSet
Validated: 1
EndChar

StartChar: three
Encoding: 51 51 22
Width: 1262
GlyphClass: 2
Flags: W
HStem: -20 300<539.091 843.284> 1210 300<629 873>
VStem: 158 323<334.499 484> 973 316<408.433 661.016>
LayerCount: 2
Fore
SplineSet
642 -20 m 0,0,1
 360 -20 360 -20 243 136 c 0,2,3
 158 250 158 250 158 397 c 0,4,5
 158 410 158 410 159 423 c 1,6,-1
 483 563 l 1,7,-1
 493 563 l 1,8,9
 481 506 481 506 481 462 c 0,10,11
 481 390 481 390 512 349 c 0,12,13
 565 280 565 280 681 280 c 128,-1,14
 797 280 797 280 874 347 c 0,15,16
 950 413 950 413 968 500 c 0,17,18
 973 526 973 526 973 549 c 0,19,20
 973 598 973 598 949 636 c 0,21,22
 899 712 899 712 793.5 712 c 128,-1,23
 688 712 688 712 602 680 c 1,24,-1
 534 780 l 1,25,-1
 873 1210 l 1,26,-1
 429 1210 l 1,27,-1
 431 1220 l 1,28,-1
 629 1510 l 1,29,-1
 1460 1510 l 1,30,-1
 1013 944 l 1,31,32
 1146 897 1146 897 1210 812 c 0,33,34
 1289 709 1289 709 1289 547 c 0,35,36
 1289 521 1289 521 1287 493 c 0,37,38
 1271 277 1271 277 1090 130 c 0,39,40
 905 -20 905 -20 642 -20 c 0,0,1
EndSplineSet
Validated: 1
EndChar

StartChar: four
Encoding: 52 52 23
Width: 1317
GlyphClass: 2
Flags: W
HStem: -20 21G<783 839.395> 304 300<660 852> 1510 20G<1375.51 1432>
DStem2: 77 314 660 604 0.680769 0.732499<609.313 1099.76>
LayerCount: 2
Fore
SplineSet
660 604 m 5,0,-1
 915 604 l 1,1,-1
 992 965 l 1,2,-1
 660 604 l 5,0,-1
793 -20 m 1,3,-1
 783 -20 l 1,4,-1
 852 304 l 1,5,-1
 75 304 l 1,6,-1
 77 314 l 1,7,-1
 1064 1376 l 1,8,-1
 1422 1530 l 1,9,-1
 1432 1530 l 1,10,-1
 1235 604 l 1,11,-1
 1385 604 l 1,12,-1
 1383 594 l 1,13,-1
 1186 304 l 1,14,-1
 1172 304 l 1,15,-1
 1134 127 l 1,16,-1
 793 -20 l 1,3,-1
EndSplineSet
Validated: 1
EndChar

StartChar: five
Encoding: 53 53 24
Width: 1261
GlyphClass: 2
Flags: W
HStem: -20 300<539.091 842.281> 697 301<709.364 922.151> 1210 300<828 1225>
VStem: 158 323<334.499 484> 972 325<406.716 647.939>
LayerCount: 2
Fore
SplineSet
642 -20 m 0,0,1
 360 -20 360 -20 243 136 c 0,2,3
 158 250 158 250 158 397 c 0,4,5
 158 410 158 410 159 423 c 1,6,-1
 483 563 l 1,7,-1
 493 563 l 1,8,9
 481 506 481 506 481 462 c 0,10,11
 481 390 481 390 512 349 c 0,12,13
 565 280 565 280 681 280 c 0,14,15
 792 280 792 280 870 343 c 0,16,17
 947 405 947 405 967 498 c 0,18,19
 972 521 972 521 972 543 c 0,20,21
 972 594 972 594 943 633 c 0,22,23
 895 697 895 697 769 697 c 0,24,25
 649 697 649 697 532 636 c 1,26,-1
 276 761 l 1,27,-1
 625 1510 l 1,28,-1
 1425 1510 l 1,29,-1
 1423 1500 l 1,30,-1
 1225 1210 l 1,31,-1
 828 1210 l 1,32,-1
 708 984 l 1,33,34
 757 998 757 998 845 998 c 0,35,36
 1072 998 1072 998 1200 862 c 0,37,38
 1297 759 1297 759 1297 590 c 0,39,40
 1297 549 1297 549 1291 504 c 0,41,42
 1262 275 1262 275 1086 131 c 0,43,44
 900 -20 900 -20 642 -20 c 0,0,1
EndSplineSet
Validated: 1
EndChar

StartChar: six
Encoding: 54 54 25
Width: 1340
GlyphClass: 2
Flags: W
HStem: -20 300<601.908 902.62> 713 302<680.071 976.855> 1230 300<775.559 1080.49>
VStem: 214 328<339.135 555.339> 1039 324<407.587 651.698>
LayerCount: 2
Fore
SplineSet
709 -20 m 0,0,1
 469 -20 469 -20 323 125 c 0,2,3
 214 234 214 234 214 392 c 0,4,5
 214 442 214 442 225 494 c 2,6,-1
 336 1016 l 2,7,8
 389 1265 389 1265 549 1384 c 0,9,10
 745 1530 745 1530 979 1530 c 0,11,12
 1235 1530 1235 1530 1367 1383 c 0,13,14
 1464 1275 1464 1275 1467 1126 c 1,15,-1
 1150 989 l 1,16,-1
 1140 989 l 1,17,18
 1147 1022 1147 1022 1147 1050 c 0,19,20
 1147 1120 1147 1120 1105 1166 c 0,21,22
 1045 1230 1045 1230 942 1230 c 128,-1,23
 839 1230 839 1230 758.5 1175 c 128,-1,24
 678 1120 678 1120 660 1035 c 2,25,-1
 642 950 l 1,26,27
 750 1015 750 1015 870 1015 c 0,28,29
 1126 1015 1126 1015 1259 868 c 0,30,31
 1363 753 1363 753 1363 586 c 0,32,33
 1363 544 1363 544 1356 498 c 0,34,35
 1323 266 1323 266 1141 127 c 0,36,37
 948 -20 948 -20 709 -20 c 0,0,1
743.5 280 m 128,-1,39
 844 280 844 280 930 342 c 0,40,41
 1014 404 1014 404 1034 498 c 0,42,43
 1039 522 1039 522 1039 543 c 0,44,45
 1039 607 1039 607 995 652 c 0,46,47
 936 713 936 713 836 713 c 128,-1,48
 736 713 736 713 651 653 c 0,49,50
 567 592 567 592 547 496 c 0,51,52
 542 471 542 471 542 449 c 0,53,54
 542 385 542 385 585 340 c 0,55,38
 643 280 643 280 743.5 280 c 128,-1,39
EndSplineSet
Validated: 1
EndChar

StartChar: seven
Encoding: 55 55 26
Width: 1098
GlyphClass: 2
Flags: W
HStem: -20 21G<128 184.604> 1210 300<467 863>
DStem2: 128 -20 632 192 0.509748 0.860324<439.302 1432.86>
LayerCount: 2
Fore
SplineSet
138 -20 m 1,0,-1
 128 -20 l 1,1,-1
 863 1210 l 1,2,-1
 267 1210 l 1,3,-1
 269 1220 l 1,4,-1
 467 1510 l 1,5,-1
 1409 1510 l 1,6,-1
 1407 1500 l 1,7,-1
 632 192 l 1,8,-1
 138 -20 l 1,0,-1
EndSplineSet
Validated: 1
EndChar

StartChar: eight
Encoding: 56 56 27
Width: 1250
GlyphClass: 2
Flags: W
HStem: -20 293<542.876 842.793> 686 271<707.383 915.161> 1264 266<752.911 1013.01>
VStem: 157 322<332.184 567.372> 370 303<996.462 1188.67> 975 322<394.67 625.893> 1048 287<1031.99 1224.8>
LayerCount: 2
Fore
SplineSet
893 1264 m 128,-1,1
 815 1264 815 1264 752.5 1220 c 128,-1,2
 690 1176 690 1176 676 1110 c 0,3,4
 673 1094 673 1094 673 1079 c 0,5,6
 673 1033 673 1033 706 1000 c 0,7,8
 750 957 750 957 828 957 c 128,-1,9
 906 957 906 957 968.5 1001 c 128,-1,10
 1031 1045 1031 1045 1045 1111 c 0,11,12
 1048 1127 1048 1127 1048 1142 c 0,13,14
 1048 1188 1048 1188 1015 1220 c 0,15,0
 971 1264 971 1264 893 1264 c 128,-1,1
684 273 m 0,16,17
 786 273 786 273 868.5 332 c 128,-1,18
 951 391 951 391 970 480 c 0,19,20
 975 502 975 502 975 522 c 0,21,22
 975 584 975 584 931 628 c 0,23,24
 872 686 872 686 771 686 c 128,-1,25
 670 686 670 686 585 627 c 0,26,27
 502 568 502 568 484 479 c 0,28,29
 480 458 480 458 479 438 c 0,30,31
 480 376 480 376 524 332 c 0,32,33
 582 274 582 274 684 273 c 0,16,17
650 -20 m 0,34,35
 396 -20 396 -20 261 121 c 0,36,37
 157 230 157 230 157 398 c 0,38,39
 157 439 157 439 163 484 c 0,40,41
 199 742 199 742 440 853 c 1,42,43
 370 937 370 937 370 1063 c 0,44,45
 370 1092 370 1092 374 1123 c 0,46,47
 394 1289 394 1289 559 1410 c 0,48,49
 723 1530 723 1530 918 1530 c 0,50,51
 1131 1530 1131 1530 1245 1409 c 0,52,53
 1335 1315 1335 1315 1335 1176 c 0,54,55
 1335 1150 1335 1150 1332 1122 c 0,56,57
 1313 951 1313 951 1173 855 c 1,58,59
 1297 729 1297 729 1297 549 c 0,60,61
 1297 519 1297 519 1294 488 c 0,62,63
 1269 256 1269 256 1080 120 c 0,64,65
 884 -20 884 -20 650 -20 c 0,34,35
EndSplineSet
Validated: 1
EndChar

StartChar: nine
Encoding: 57 57 28
Width: 1340
GlyphClass: 2
Flags: W
HStem: -20 300<580.506 885.441> 495 302<684.145 980.929> 1230 300<758.38 1059.09>
VStem: 298 324<858.302 1102.41> 1119 328<924.08 1171.36>
LayerCount: 2
Fore
SplineSet
682 -20 m 0,0,1
 426 -20 426 -20 294 127 c 0,2,3
 197 235 197 235 194 384 c 1,4,-1
 511 521 l 1,5,-1
 521 521 l 1,6,7
 514 488 514 488 514 460 c 0,8,9
 514 390 514 390 556 344 c 0,10,11
 616 280 616 280 719 280 c 128,-1,12
 822 280 822 280 902.5 335 c 128,-1,13
 983 390 983 390 1001 475 c 2,14,-1
 1019 560 l 1,15,16
 911 495 911 495 791 495 c 0,17,18
 535 495 535 495 402 642 c 0,19,20
 298 757 298 757 298 924 c 0,21,22
 298 966 298 966 305 1012 c 0,23,24
 338 1244 338 1244 520 1383 c 0,25,26
 713 1530 713 1530 952 1530 c 0,27,28
 1192 1530 1192 1530 1338 1385 c 0,29,30
 1447 1276 1447 1276 1447 1118 c 0,31,32
 1447 1068 1447 1068 1436 1016 c 2,33,-1
 1325 494 l 2,34,35
 1272 245 1272 245 1112 126 c 0,36,37
 916 -20 916 -20 682 -20 c 0,0,1
917.5 1230 m 128,-1,39
 817 1230 817 1230 731 1168 c 0,40,41
 647 1106 647 1106 627 1012 c 0,42,43
 622 988 622 988 622 967 c 0,44,45
 622 903 622 903 666 858 c 0,46,47
 725 797 725 797 825 797 c 128,-1,48
 925 797 925 797 1010 857 c 0,49,50
 1094 918 1094 918 1114 1014 c 0,51,52
 1119 1039 1119 1039 1119 1061 c 0,53,54
 1119 1125 1119 1125 1076 1170 c 0,55,38
 1018 1230 1018 1230 917.5 1230 c 128,-1,39
EndSplineSet
Validated: 1
EndChar

StartChar: colon
Encoding: 58 58 29
Width: 420
GlyphClass: 2
Flags: W
HStem: -20 365<156.097 332.323> 573 365<282.097 458.323>
VStem: 60 495
LayerCount: 2
Fore
SplineSet
206 -20 m 0,0,1
 130 -20 130 -20 90 34 c 0,2,3
 60 73 60 73 60 123 c 0,4,5
 60 142 60 142 64 162 c 0,6,7
 80 238 80 238 144 291 c 0,8,9
 208 345 208 345 283 345 c 0,10,11
 359 345 359 345 400 292 c 0,12,13
 429 254 429 254 429 203 c 0,14,15
 429 184 429 184 425 163 c 0,16,17
 409 88 409 88 344.5 34 c 128,-1,18
 280 -20 280 -20 206 -20 c 0,0,1
409 938 m 0,19,20
 485 938 485 938 526 885 c 0,21,22
 555 847 555 847 555 796 c 0,23,24
 555 777 555 777 551 756 c 0,25,26
 535 681 535 681 470.5 627 c 128,-1,27
 406 573 406 573 332 573 c 0,28,29
 256 573 256 573 216 627 c 0,30,31
 186 666 186 666 186 716 c 0,32,33
 186 735 186 735 190 755 c 0,34,35
 206 831 206 831 270 884 c 0,36,37
 334 938 334 938 409 938 c 0,19,20
EndSplineSet
Validated: 1
EndChar

StartChar: semicolon
Encoding: 59 59 30
Width: 496
GlyphClass: 2
Flags: W
HStem: 573 365<320.097 496.323>
VStem: 203 283<-42.5039 147.058>
LayerCount: 2
Fore
SplineSet
75 212 m 1,0,-1
 371 338 l 1,1,-1
 381 338 l 1,2,3
 486 259 486 259 486 132 c 0,4,5
 486 95 486 95 477 54 c 0,6,7
 422 -203 422 -203 60 -328 c 1,8,-1
 55 -321 l 1,9,10
 166 -172 166 -172 197 -24 c 0,11,12
 203 3 203 3 203 28 c 0,13,14
 203 146 203 146 75 212 c 1,0,-1
447 938 m 0,15,16
 523 938 523 938 564 885 c 0,17,18
 593 847 593 847 593 796 c 0,19,20
 593 777 593 777 589 756 c 0,21,22
 573 681 573 681 508.5 627 c 128,-1,23
 444 573 444 573 370 573 c 0,24,25
 294 573 294 573 254 627 c 0,26,27
 224 666 224 666 224 716 c 0,28,29
 224 735 224 735 228 755 c 0,30,31
 244 831 244 831 308 884 c 0,32,33
 372 938 372 938 447 938 c 0,15,16
EndSplineSet
Validated: 1
EndChar

StartChar: less
Encoding: 60 60 31
Width: 1355
GlyphClass: 2
Flags: W
DStem2: 768 742 246 638 0.933479 -0.358631<0 512.014> 416 891 768 742 0.945892 0.324481<284.606 958.174>
LayerCount: 2
Fore
SplineSet
246 638 m 1,0,-1
 248 648 l 1,1,-1
 416 891 l 1,2,-1
 1343 1209 l 1,3,-1
 1408 968 l 1,4,-1
 1406 958 l 1,5,-1
 768 742 l 1,6,-1
 1310 539 l 1,7,-1
 1307 529 l 1,8,-1
 1144 293 l 1,9,-1
 246 638 l 1,0,-1
EndSplineSet
Validated: 1
EndChar

StartChar: equal
Encoding: 61 61 32
Width: 1240
GlyphClass: 2
Flags: W
HStem: 390 270<375 1088> 850 270<473 1186>
LayerCount: 2
Fore
SplineSet
375 660 m 1,0,-1
 1270 660 l 1,1,-1
 1268 650 l 1,2,-1
 1088 390 l 1,3,-1
 193 390 l 1,4,-1
 195 400 l 1,5,-1
 375 660 l 1,0,-1
473 1120 m 1,6,-1
 1368 1120 l 1,7,-1
 1366 1110 l 1,8,-1
 1186 850 l 1,9,-1
 291 850 l 1,10,-1
 293 860 l 1,11,-1
 473 1120 l 1,6,-1
EndSplineSet
Validated: 1
EndChar

StartChar: greater
Encoding: 62 62 33
Width: 1355
GlyphClass: 2
Flags: W
DStem2: 270 552 333 301 0.945892 0.324481<0 673.567> 532 1217 366 971 0.933479 -0.358631<0 512.014>
LayerCount: 2
Fore
SplineSet
1430 872 m 1,0,-1
 1428 862 l 1,1,-1
 1260 619 l 1,2,-1
 333 301 l 1,3,-1
 268 542 l 1,4,-1
 270 552 l 1,5,-1
 908 768 l 1,6,-1
 366 971 l 1,7,-1
 369 981 l 1,8,-1
 532 1217 l 1,9,-1
 1430 872 l 1,0,-1
EndSplineSet
Validated: 1
EndChar

StartChar: question
Encoding: 63 63 34
Width: 1348
GlyphClass: 2
Flags: W
HStem: -20 365<590.097 766.323> 1231 300<765.353 1079.38>
VStem: 321 322<916.296 1112.85> 1135 326<933.129 1177.51>
LayerCount: 2
Fore
SplineSet
640 -20 m 0,0,1
 564 -20 564 -20 524 34 c 0,2,3
 494 73 494 73 494 123 c 0,4,5
 494 142 494 142 498 162 c 0,6,7
 514 238 514 238 578 291 c 0,8,9
 642 345 642 345 717 345 c 0,10,11
 793 345 793 345 834 292 c 0,12,13
 863 254 863 254 863 203 c 0,14,15
 863 184 863 184 859 163 c 0,16,17
 843 88 843 88 778.5 34 c 128,-1,18
 714 -20 714 -20 640 -20 c 0,0,1
969 1531 m 0,19,20
 1213 1531 1213 1531 1355 1374 c 0,21,22
 1461 1258 1461 1258 1461 1093 c 0,23,24
 1461 1057 1461 1057 1455 1019 c 0,25,26
 1405 676 1405 676 988 571 c 0,27,28
 927 556 927 556 918 506 c 1,29,-1
 573 359 l 1,30,-1
 563 359 l 1,31,32
 634 692 634 692 899 796 c 0,33,34
 1096 873 1096 873 1127 1008 c 0,35,36
 1135 1040 1135 1040 1135 1067 c 0,37,38
 1135 1122 1135 1122 1107 1159 c 0,39,40
 1055 1231 1055 1231 935 1231 c 0,41,42
 814 1231 814 1231 740 1168 c 0,43,44
 660 1100 660 1100 645 1016 c 0,45,46
 643 1001 643 1001 643 986 c 0,47,48
 643 954 643 954 655 928 c 1,49,-1
 359 801 l 1,50,-1
 349 801 l 1,51,52
 321 864 321 864 321 946 c 0,53,54
 321 994 321 994 333 1049 c 0,55,56
 379 1262 379 1262 527 1381 c 0,57,58
 715 1531 715 1531 969 1531 c 0,19,20
EndSplineSet
Validated: 19457
EndChar

StartChar: at
Encoding: 64 64 35
Width: 1420
GlyphClass: 2
Flags: W
HStem: -430 21G<449 628.852> -20 223<879.883 986> 455 204<916.17 1077> 840 280<719.534 1056.06>
VStem: 146 306<-81.7693 235.797> 603 243<252.782 389.279> 1123 297<660.046 777.412>
DStem2: 48.4706 -430 348.171 -430 0.207912 0.978148<538.463 1264.28>
LayerCount: 2
Fore
SplineSet
986 -20 m 1,0,-1
 948 -20 l 2,1,2
 772 -20 772 -20 678 82 c 0,3,4
 603 164 603 164 603 290 c 0,5,6
 603 307 603 307 604 324 c 0,7,8
 616 492 616 492 777 588 c 0,9,10
 897 659 897 659 1075 659 c 2,11,-1
 1120 659 l 1,12,13
 1123 672 1123 672 1123 685 c 0,14,15
 1123 735 1123 735 1079 778 c 0,16,17
 1017 840 1017 840 902 840 c 0,18,19
 780 840 780 840 686 776 c 0,20,21
 591 712 591 712 569 608 c 2,22,-1
 457 82 l 2,23,24
 452 57 452 57 452 34 c 0,25,26
 452 -34 452 -34 498 -84 c 0,27,28
 559 -150 559 -150 673 -150 c 2,29,-1
 804 -150 l 1,30,-1
 802 -160 l 1,31,-1
 615 -430 l 1,32,33
 283 -429 283 -429 178 -189 c 0,34,35
 146 -115 146 -115 146 -28 c 0,36,37
 146 28 146 28 159 90 c 2,38,-1
 268 600 l 2,39,40
 322 852 322 852 472 972 c 0,41,42
 660 1120 660 1120 918 1120 c 128,-1,43
 1176 1120 1176 1120 1316 974 c 0,44,45
 1420 865 1420 865 1420 712 c 0,46,47
 1420 660 1420 660 1408 604 c 2,48,-1
 1305 118 l 1,49,-1
 986 -20 l 1,0,-1
1077 455 m 1,50,51
 980 448 980 448 920.5 414.5 c 128,-1,52
 861 381 861 381 848 322 c 0,53,54
 846 315 846 315 846 307 c 0,55,56
 846 277 846 277 873 252 c 0,57,58
 922 204 922 204 1023 203 c 1,59,-1
 1077 455 l 1,50,51
EndSplineSet
Validated: 1
EndChar

StartChar: A
Encoding: 65 65 36
Width: 1410
GlyphClass: 2
Flags: W
HStem: -20 21G<136 192.395 946 1002.39> 605 300<652 1079> 1230 300<803.741 1109.24>
VStem: 1172 325<966.09 1168.7>
DStem2: 136 -20 455.754 -20 0.207912 0.978148<216.765 705.526 1012.07 1267.64> 946 -20 1265.75 -20 0.207912 0.978148<216.765 638.995 945.537 1106.69>
LayerCount: 2
Fore
SplineSet
146 -20 m 1,0,-1
 136 -20 l 1,1,-1
 356 1016 l 2,2,3
 409 1265 409 1265 570 1384 c 0,4,5
 767 1530 767 1530 1001.5 1530 c 128,-1,6
 1236 1530 1236 1530 1384 1383 c 0,7,8
 1497 1271 1497 1271 1497 1117 c 0,9,10
 1497 1068 1497 1068 1486 1016 c 2,11,-1
 1297 127 l 1,12,-1
 956 -20 l 1,13,-1
 946 -20 l 1,14,-1
 1079 605 l 1,15,-1
 589 605 l 1,16,-1
 487 127 l 1,17,-1
 146 -20 l 1,0,-1
1142 905 m 1,18,-1
 1167 1022 l 2,19,20
 1172 1044 1172 1044 1172 1064 c 0,21,22
 1172 1127 1172 1127 1127 1172 c 0,23,24
 1069 1230 1069 1230 966.5 1230 c 128,-1,25
 864 1230 864 1230 780 1171 c 128,-1,26
 696 1112 696 1112 677 1022 c 2,27,-1
 652 905 l 1,28,-1
 1142 905 l 1,18,-1
EndSplineSet
Validated: 1
EndChar

StartChar: B
Encoding: 66 66 37
Width: 1300
GlyphClass: 2
Flags: W
HStem: 0 300<544 931.098> 676 285<684 992.945> 1225 285<749 1067.96>
VStem: 1038 317<402.619 628.988> 1094 306<1016.55 1192.97>
DStem2: 160 0 480.233 0 0.207912 0.978148<373.282 757.699 1048.95 1318.82>
LayerCount: 2
Fore
SplineSet
740 1225 m 1,0,-1
 684 961 l 1,1,-1
 909 961 l 2,2,3
 976 961 976 961 1030 1000 c 0,4,5
 1080 1036 1080 1036 1091 1093 c 0,6,7
 1094 1106 1094 1106 1094 1119 c 0,8,9
 1094 1156 1094 1156 1069 1186 c 0,10,11
 1036 1225 1036 1225 965 1225 c 2,12,-1
 740 1225 l 1,0,-1
544 300 m 1,13,-1
 749 300 l 2,14,15
 878 301 878 301 948 356 c 128,-1,16
 1018 411 1018 411 1034 487 c 0,17,18
 1038 506 1038 506 1038 526 c 0,19,20
 1038 578 1038 578 1004 620 c 0,21,22
 958 676 958 676 829 676 c 2,23,-1
 624 676 l 1,24,-1
 544 300 l 1,13,-1
160 0 m 1,25,-1
 454 1384 l 1,26,-1
 749 1510 l 1,27,-1
 976 1510 l 2,28,29
 1176 1510 1176 1510 1288 1413 c 0,30,31
 1400 1315 1400 1315 1400 1175 c 0,32,33
 1400 1144 1400 1144 1395 1112 c 0,34,35
 1365 929 1365 929 1208 838 c 1,36,37
 1355 712 1355 712 1355 527 c 0,38,39
 1355 507 1355 507 1353 485 c 0,40,41
 1336 276 1336 276 1160 139 c 0,42,43
 981 0 981 0 715 0 c 2,44,-1
 160 0 l 1,25,-1
EndSplineSet
Validated: 1
EndChar

StartChar: C
Encoding: 67 67 38
Width: 1290
GlyphClass: 2
Flags: W
HStem: -20 300<598.257 912.281> 1228 302<780.656 1092.33>
VStem: 214 323<341.303 546.159>
DStem2: 115.746 -20 435.297 -20 0.207912 0.978148<539.091 1268.37>
LayerCount: 2
Fore
SplineSet
711 -20 m 128,-1,1
 476 -20 476 -20 327 127 c 0,2,3
 214 239 214 239 214 393 c 0,4,5
 214 441 214 441 225 494 c 2,6,-1
 336 1016 l 2,7,8
 389 1265 389 1265 550 1384 c 0,9,10
 747 1530 747 1530 981 1530 c 0,11,12
 1230 1530 1230 1530 1362 1378 c 0,13,14
 1464 1259 1464 1259 1465 1112 c 1,15,-1
 1147 974 l 1,16,-1
 1137 974 l 1,17,18
 1147 1021 1147 1021 1147 1059 c 0,19,20
 1147 1135 1147 1135 1107 1172 c 0,21,22
 1047 1228 1047 1228 945 1228 c 0,23,24
 845 1228 845 1228 759 1172 c 0,25,26
 678 1118 678 1118 659 1028 c 2,27,-1
 542 482 l 2,28,29
 537 460 537 460 537 441 c 0,30,31
 537 379 537 379 584 336 c 0,32,33
 644 280 644 280 747 280 c 128,-1,34
 850 280 850 280 920 328 c 0,35,36
 962 357 962 357 994 401 c 1,37,-1
 1359 558 l 1,38,-1
 1369 558 l 1,39,-1
 1357 502 l 2,40,41
 1303 251 1303 251 1141 128 c 0,42,0
 946 -20 946 -20 711 -20 c 128,-1,1
EndSplineSet
Validated: 1
EndChar

StartChar: D
Encoding: 68 68 39
Width: 1390
GlyphClass: 2
Flags: W
HStem: 0 300<544 933.16> 1210 300<749 1107.36>
VStem: 1169 323<944.551 1149.78>
DStem2: 160 0 480.233 0 0.207912 0.978148<373.282 1303.52> 949.509 0 1269.96 0 0.207912 0.978148<378.552 1071.13>
LayerCount: 2
Fore
SplineSet
160 0 m 1,0,-1
 454 1383 l 1,1,-1
 749 1510 l 1,2,-1
 1011 1510 l 2,3,4
 1245 1510 1245 1510 1380 1362 c 0,5,6
 1492 1240 1492 1240 1492 1090 c 0,7,8
 1492 1045 1492 1045 1482 997 c 2,9,-1
 1379 513 l 2,10,11
 1326 269 1326 269 1166 148 c 0,12,13
 970 0 970 0 735 0 c 2,14,-1
 160 0 l 1,0,-1
544 300 m 1,15,-1
 769 300 l 2,16,17
 872 300 872 300 956 357 c 0,18,19
 1038 413 1038 413 1056 501 c 2,20,-1
 1164 1009 l 2,21,22
 1169 1030 1169 1030 1169 1049 c 0,23,24
 1169 1110 1169 1110 1123 1153 c 0,25,26
 1063 1210 1063 1210 962 1210 c 2,27,-1
 737 1210 l 1,28,-1
 544 300 l 1,15,-1
EndSplineSet
Validated: 1
EndChar

StartChar: E
Encoding: 69 69 40
Width: 1100
GlyphClass: 2
Flags: W
HStem: 0 300<544 954> 605 300<672 1033> 1210 300<749 1161>
DStem2: 160 0 480.233 0 0.207912 0.978148<373.282 685.132 991.674 1303.52>
CounterMasks: 1 e0
LayerCount: 2
Fore
SplineSet
160 0 m 1,0,-1
 454 1384 l 1,1,-1
 749 1510 l 1,2,-1
 1361 1510 l 1,3,-1
 1359 1500 l 1,4,-1
 1161 1210 l 1,5,-1
 737 1210 l 1,6,-1
 672 905 l 1,7,-1
 1232 905 l 1,8,-1
 1230 895 l 1,9,-1
 1033 605 l 1,10,-1
 609 605 l 1,11,-1
 544 300 l 1,12,-1
 1154 300 l 1,13,-1
 1152 290 l 1,14,-1
 954 0 l 1,15,-1
 160 0 l 1,0,-1
EndSplineSet
Validated: 1
EndChar

StartChar: F
Encoding: 70 70 41
Width: 1050
GlyphClass: 2
Flags: W
HStem: -20 21G<156 212.395> 605 300<672 1033> 1210 300<749 1161>
DStem2: 156 -20 475.754 -20 0.207912 0.978148<216.765 705.526 1012.07 1323.92>
LayerCount: 2
Fore
SplineSet
166 -20 m 1,0,-1
 156 -20 l 1,1,-1
 454 1384 l 1,2,-1
 749 1510 l 1,3,-1
 1361 1510 l 1,4,-1
 1359 1500 l 1,5,-1
 1161 1210 l 1,6,-1
 737 1210 l 1,7,-1
 672 905 l 1,8,-1
 1232 905 l 1,9,-1
 1230 895 l 1,10,-1
 1033 605 l 1,11,-1
 609 605 l 1,12,-1
 507 127 l 1,13,-1
 166 -20 l 1,0,-1
EndSplineSet
Validated: 1
EndChar

StartChar: G
Encoding: 71 71 42
Width: 1370
GlyphClass: 2
Flags: W
HStem: -20 301<598.948 917.521> 605 300<910 1059> 1230 300<781.554 1091.32>
VStem: 214 323<341.303 546.159>
DStem2: 115.746 -20 435.297 -20 0.207912 0.978148<540.069 1268.37>
LayerCount: 2
Fore
SplineSet
712 -20 m 128,-1,1
 478 -20 478 -20 328 127 c 0,2,3
 214 239 214 239 214 393 c 0,4,5
 214 441 214 441 225 494 c 2,6,-1
 336 1016 l 2,7,8
 389 1265 389 1265 550 1384 c 0,9,10
 747 1530 747 1530 981 1530 c 0,11,12
 1230 1530 1230 1530 1362 1378 c 0,13,14
 1464 1259 1464 1259 1465 1112 c 1,15,-1
 1147 974 l 1,16,-1
 1137 974 l 1,17,18
 1147 1021 1147 1021 1147 1058 c 0,19,20
 1147 1133 1147 1133 1107 1172 c 0,21,22
 1047 1230 1047 1230 945 1230 c 0,23,24
 842 1230 842 1230 762 1174 c 0,25,26
 678 1116 678 1116 659 1028 c 2,27,-1
 542 482 l 2,28,29
 537 461 537 461 537 442 c 0,30,31
 537 381 537 381 584 337 c 0,32,33
 644 281 644 281 747.5 281 c 128,-1,34
 851 281 851 281 931.5 334 c 128,-1,35
 1012 387 1012 387 1030 472 c 2,36,-1
 1059 605 l 1,37,-1
 711 605 l 1,38,-1
 713 615 l 1,39,-1
 910 905 l 1,40,-1
 1442 905 l 1,41,-1
 1356 500 l 2,42,43
 1303 249 1303 249 1142 128 c 0,44,0
 946 -20 946 -20 712 -20 c 128,-1,1
EndSplineSet
Validated: 1
EndChar

StartChar: H
Encoding: 72 72 43
Width: 1440
GlyphClass: 2
Flags: W
HStem: -20 21G<156 212.395 956 1012.39> 605 300<672 1089> 1510 20G<748.605 805 1548.61 1605>
DStem2: 156 -20 475.754 -20 0.207912 0.978148<216.765 705.526 1012.07 1434.3> 956 -20 1275.75 -20 0.207912 0.978148<216.765 638.995 945.537 1434.3>
LayerCount: 2
Fore
SplineSet
166 -20 m 1,0,-1
 156 -20 l 1,1,-1
 454 1383 l 1,2,-1
 795 1530 l 1,3,-1
 805 1530 l 1,4,-1
 672 905 l 1,5,-1
 1152 905 l 1,6,-1
 1254 1383 l 1,7,-1
 1595 1530 l 1,8,-1
 1605 1530 l 1,9,-1
 1307 127 l 1,10,-1
 966 -20 l 1,11,-1
 956 -20 l 1,12,-1
 1089 605 l 1,13,-1
 609 605 l 1,14,-1
 507 127 l 1,15,-1
 166 -20 l 1,0,-1
EndSplineSet
Validated: 1
EndChar

StartChar: I
Encoding: 73 73 44
Width: 640
GlyphClass: 2
Flags: W
HStem: -20 21G<156 212.395> 1510 20G<748.605 805>
VStem: 156 649
DStem2: 156 -20 475.754 -20 0.207912 0.978148<216.765 1434.3>
LayerCount: 2
Fore
SplineSet
166 -20 m 1,0,-1
 156 -20 l 1,1,-1
 454 1383 l 1,2,-1
 795 1530 l 1,3,-1
 805 1530 l 1,4,-1
 507 127 l 1,5,-1
 166 -20 l 1,0,-1
EndSplineSet
Validated: 1
EndChar

StartChar: J
Encoding: 74 74 45
Width: 1215
GlyphClass: 2
Flags: W
HStem: -20 300<460.4 758.684> 1210 300<567 1032>
DStem2: 770.555 -20 1090.79 -20 0.207912 0.978148<377.915 1257.48>
LayerCount: 2
Fore
SplineSet
570 -20 m 0,0,1
 322 -20 322 -20 192 131 c 0,2,3
 95 245 95 245 95 401 c 1,4,-1
 408 535 l 1,5,-1
 418 535 l 1,6,-1
 406 482 l 2,7,8
 401 460 401 460 401 440 c 0,9,10
 401 380 401 380 447 336 c 0,11,12
 507 280 507 280 604 280 c 128,-1,13
 701 280 701 280 781 337 c 0,14,15
 858 392 858 392 877 482 c 2,16,-1
 1032 1210 l 1,17,-1
 367 1210 l 1,18,-1
 369 1220 l 1,19,-1
 567 1510 l 1,20,-1
 1416 1510 l 1,21,-1
 1200 494 l 2,22,23
 1148 247 1148 247 991 127 c 0,24,25
 799 -20 799 -20 570 -20 c 0,0,1
EndSplineSet
Validated: 1
EndChar

StartChar: K
Encoding: 75 75 46
Width: 1390
GlyphClass: 2
Flags: W
HStem: -20 21G<156 212.395 946 1002.39> 1510 20G<748.605 805 1268.59 1344.21>
VStem: 1084 323<540.072 752.823>
DStem2: 156 -20 475.754 -20 0.207912 0.978148<216.765 843.18 1217.62 1434.3> 715 1106 1119 1084 0.807773 0.589494<313.371 719.261> 946 -20 1265.75 -20 0.207912 0.978148<216.765 680.504>
LayerCount: 2
Fore
SplineSet
166 -20 m 1,0,-1
 156 -20 l 1,1,-1
 454 1383 l 1,2,-1
 795 1530 l 1,3,-1
 805 1530 l 1,4,-1
 715 1106 l 1,5,-1
 1296 1530 l 1,6,-1
 1306 1530 l 1,7,-1
 1562 1396 l 1,8,-1
 1119 1084 l 1,9,10
 1221 1048 1221 1048 1296 966 c 0,11,12
 1407 843 1407 843 1407 693 c 0,13,14
 1407 647 1407 647 1397 599 c 2,15,-1
 1297 127 l 1,16,-1
 956 -20 l 1,17,-1
 946 -20 l 1,18,-1
 1079 605 l 2,19,20
 1084 627 1084 627 1084 647 c 0,21,22
 1084 711 1084 711 1035 758 c 0,23,24
 977 813 977 813 889 813 c 0,25,26
 798 813 798 813 717 760 c 0,27,28
 630 702 630 702 609 605 c 2,29,-1
 507 127 l 1,30,-1
 166 -20 l 1,0,-1
EndSplineSet
Validated: 1
EndChar

StartChar: L
Encoding: 76 76 47
Width: 1100
GlyphClass: 2
Flags: W
HStem: 0 300<544 954> 1510 20G<748.288 805>
DStem2: 160 0 480.233 0 0.207912 0.978148<373.282 1414.88>
LayerCount: 2
Fore
SplineSet
160 0 m 1,0,-1
 454 1384 l 1,1,-1
 795 1530 l 1,2,-1
 805 1530 l 1,3,-1
 544 300 l 1,4,-1
 1154 300 l 1,5,-1
 1152 290 l 1,6,-1
 954 0 l 1,7,-1
 160 0 l 1,0,-1
EndSplineSet
Validated: 1
EndChar

StartChar: M
Encoding: 77 77 48
Width: 2220
GlyphClass: 2
Flags: W
HStem: -20 21G<136 192.395 946 1002.39 1756 1812.39> 1230 300<803.661 1108.97 1613.06 1919.88>
VStem: 1982 325<955.902 1169.38>
DStem2: 136 -20 455.754 -20 0.207912 0.978148<216.765 1267.64> 946 -20 1265.75 -20 0.207912 0.978148<216.765 1106.69> 1756 -20 2075.75 -20 0.207912 0.978148<216.765 1106.69>
LayerCount: 2
Fore
SplineSet
146 -20 m 1,0,-1
 136 -20 l 1,1,-1
 356 1016 l 2,2,3
 409 1265 409 1265 570 1384 c 0,4,5
 767 1530 767 1530 1001 1530 c 0,6,7
 1237 1530 1237 1530 1373 1379 c 1,8,9
 1576 1530 1576 1530 1813 1530 c 0,10,11
 2047 1530 2047 1530 2195 1383 c 0,12,13
 2307 1271 2307 1271 2307 1118 c 0,14,15
 2307 1069 2307 1069 2296 1016 c 2,16,-1
 2107 127 l 1,17,-1
 1766 -20 l 1,18,-1
 1756 -20 l 1,19,-1
 1977 1022 l 2,20,21
 1982 1044 1982 1044 1982 1064 c 0,22,23
 1982 1127 1982 1127 1937 1172 c 0,24,25
 1879 1230 1879 1230 1776.5 1230 c 128,-1,26
 1674 1230 1674 1230 1590 1171 c 128,-1,27
 1506 1112 1506 1112 1487 1022 c 2,28,-1
 1297 127 l 1,29,-1
 956 -20 l 1,30,-1
 946 -20 l 1,31,-1
 1167 1022 l 2,32,33
 1172 1044 1172 1044 1172 1064 c 0,34,35
 1172 1127 1172 1127 1127 1172 c 0,36,37
 1069 1230 1069 1230 966.5 1230 c 128,-1,38
 864 1230 864 1230 780 1171 c 128,-1,39
 696 1112 696 1112 677 1022 c 2,40,-1
 487 127 l 1,41,-1
 146 -20 l 1,0,-1
EndSplineSet
Validated: 1
EndChar

StartChar: N
Encoding: 78 78 49
Width: 1410
GlyphClass: 2
Flags: W
HStem: -20 21G<136 192.395 946 1002.39> 1230 300<803.741 1109.24>
VStem: 1172 325<955.902 1168.7>
DStem2: 136 -20 455.754 -20 0.207912 0.978148<216.765 1267.64> 946 -20 1265.75 -20 0.207912 0.978148<216.765 1106.69>
LayerCount: 2
Fore
SplineSet
146 -20 m 1,0,-1
 136 -20 l 1,1,-1
 356 1016 l 2,2,3
 409 1265 409 1265 570 1384 c 0,4,5
 767 1530 767 1530 1001.5 1530 c 128,-1,6
 1236 1530 1236 1530 1384 1383 c 0,7,8
 1497 1271 1497 1271 1497 1117 c 0,9,10
 1497 1068 1497 1068 1486 1016 c 2,11,-1
 1297 127 l 1,12,-1
 956 -20 l 1,13,-1
 946 -20 l 1,14,-1
 1167 1022 l 2,15,16
 1172 1044 1172 1044 1172 1064 c 0,17,18
 1172 1127 1172 1127 1127 1172 c 0,19,20
 1069 1230 1069 1230 966.5 1230 c 128,-1,21
 864 1230 864 1230 780 1171 c 128,-1,22
 696 1112 696 1112 677 1022 c 2,23,-1
 487 127 l 1,24,-1
 146 -20 l 1,0,-1
EndSplineSet
Validated: 1
EndChar

StartChar: O
Encoding: 79 79 50
Width: 1370
GlyphClass: 2
Flags: W
HStem: -20 300<598.939 910.316> 1229 301<781.466 1093.91>
VStem: 214 324<341.303 546.69> 1153 324<963.31 1168.7>
DStem2: 115.746 -20 435.297 -20 0.207912 0.978148<540.277 1268.37> 925.297 -20 1245.75 -20 0.207912 0.978148<382.938 1110.99>
LayerCount: 2
Fore
SplineSet
712 -20 m 128,-1,1
 478 -20 478 -20 328 127 c 0,2,3
 214 239 214 239 214 393 c 0,4,5
 214 441 214 441 225 494 c 2,6,-1
 336 1016 l 2,7,8
 389 1265 389 1265 550 1384 c 0,9,10
 748 1530 748 1530 982 1530 c 0,11,12
 1215 1530 1215 1530 1364 1383 c 0,13,14
 1477 1271 1477 1271 1477 1117 c 0,15,16
 1477 1068 1477 1068 1466 1016 c 2,17,-1
 1355 494 l 2,18,19
 1302 245 1302 245 1142 126 c 0,20,0
 946 -20 946 -20 712 -20 c 128,-1,1
746 280 m 0,21,22
 850 280 850 280 932 337 c 128,-1,23
 1014 394 1014 394 1032 482 c 2,24,-1
 1149 1028 l 2,25,26
 1153 1049 1153 1049 1153 1068 c 0,27,28
 1153 1130 1153 1130 1108 1173 c 0,29,30
 1049 1229 1049 1229 946 1229 c 128,-1,31
 843 1229 843 1229 760.5 1172.5 c 128,-1,32
 678 1116 678 1116 659 1028 c 2,33,-1
 542 482 l 2,34,35
 538 461 538 461 538 442 c 0,36,37
 538 379 538 379 584 336 c 0,38,39
 644 280 644 280 746 280 c 0,21,22
EndSplineSet
Validated: 1
EndChar

StartChar: P
Encoding: 80 80 51
Width: 1270
GlyphClass: 2
Flags: W
HStem: -20 21G<156 212.395> 440 301<638 991.927> 1210 300<749 1067.27>
VStem: 1133 319<883.104 1149.25>
DStem2: 156 -20 475.754 -20 0.207912 0.978148<216.765 536.855 844.584 1323.92>
LayerCount: 2
Fore
SplineSet
638 741 m 1,0,-1
 850 741 l 2,1,2
 948 741 948 741 1028 812 c 128,-1,3
 1108 883 1108 883 1128 975 c 0,4,5
 1133 1001 1133 1001 1133 1025 c 0,6,7
 1133 1086 1133 1086 1097 1138 c 0,8,9
 1047 1210 1047 1210 949 1210 c 2,10,-1
 737 1210 l 1,11,-1
 638 741 l 1,0,-1
166 -20 m 1,12,-1
 156 -20 l 1,13,-1
 454 1383 l 1,14,-1
 749 1510 l 1,15,-1
 977 1510 l 2,16,17
 1230 1510 1230 1510 1352 1353 c 0,18,19
 1451 1226 1451 1226 1452 1049 c 0,20,21
 1452 1013 1452 1013 1448 975 c 0,22,23
 1423 747 1423 747 1241 596 c 0,24,25
 1054 440 1054 440 810 440 c 2,26,-1
 574 440 l 1,27,-1
 507 127 l 1,28,-1
 166 -20 l 1,12,-1
EndSplineSet
Validated: 1
EndChar

StartChar: Q
Encoding: 81 81 52
Width: 1370
GlyphClass: 2
Flags: W
HStem: -20 21G<595 755.5> 1229 301<781.466 1093.91>
VStem: 214 324<337.349 546.69> 1153 324<963.31 1168.7>
DStem2: 111.495 -40 431.045 -40 0.207912 0.978148<560.724 1288.81> 921.045 -40 1241.49 -40 0.207912 0.978148<484.627 1131.43>
LayerCount: 2
Fore
SplineSet
712 -20 m 0,0,1
 478 -20 478 -20 328 127 c 0,2,3
 214 239 214 239 214 393 c 0,4,5
 214 441 214 441 225 494 c 2,6,-1
 336 1016 l 2,7,8
 389 1265 389 1265 550 1384 c 0,9,10
 748 1530 748 1530 982 1530 c 0,11,12
 1215 1530 1215 1530 1364 1383 c 0,13,14
 1477 1271 1477 1271 1477 1117 c 0,15,16
 1477 1069 1477 1069 1466 1016 c 2,17,-1
 1355 494 l 2,18,19
 1313 298 1313 298 1155 161 c 1,20,-1
 1209 57 l 1,21,-1
 901 -40 l 1,22,-1
 891 -40 l 1,23,-1
 868 5 l 1,24,25
 799 -20 799 -20 712 -20 c 0,0,1
724 281 m 1,26,-1
 603 512 l 1,27,-1
 910 609 l 1,28,-1
 920 609 l 1,29,-1
 1014 430 l 1,30,31
 1026 455 1026 455 1032 482 c 2,32,-1
 1149 1028 l 2,33,34
 1153 1049 1153 1049 1153 1068 c 0,35,36
 1153 1130 1153 1130 1108 1173 c 0,37,38
 1049 1229 1049 1229 946 1229 c 128,-1,39
 843 1229 843 1229 760.5 1172.5 c 128,-1,40
 678 1116 678 1116 659 1028 c 2,41,-1
 542 482 l 2,42,43
 538 461 538 461 538 442 c 0,44,45
 538 379 538 379 583 336 c 0,46,47
 636 286 636 286 724 281 c 1,26,-1
EndSplineSet
Validated: 1
EndChar

StartChar: R
Encoding: 82 82 53
Width: 1369
GlyphClass: 2
Flags: W
HStem: -20 21G<156 212.395 1028.78 1099.19> 440 301<638 782> 1210 300<749 1067.27>
VStem: 1133 319<883.104 1149.25>
DStem2: 156 -20 475.754 -20 0.207912 0.978148<216.765 536.855 844.584 1323.92> 1117 513 782 440 0.489181 -0.872183<-0.139597 427.206>
LayerCount: 2
Fore
SplineSet
638 741 m 1,0,-1
 850 741 l 2,1,2
 948 741 948 741 1028 812 c 128,-1,3
 1108 883 1108 883 1128 975 c 0,4,5
 1133 1001 1133 1001 1133 1025 c 0,6,7
 1133 1086 1133 1086 1097 1138 c 0,8,9
 1047 1210 1047 1210 949 1210 c 2,10,-1
 737 1210 l 1,11,-1
 638 741 l 1,0,-1
166 -20 m 1,12,-1
 156 -20 l 1,13,-1
 454 1383 l 1,14,-1
 749 1510 l 1,15,-1
 977 1510 l 2,16,17
 1230 1510 1230 1510 1352 1353 c 0,18,19
 1451 1226 1451 1226 1452 1049 c 0,20,21
 1452 1013 1452 1013 1448 975 c 0,22,23
 1423 747 1423 747 1241 596 c 0,24,25
 1182 547 1182 547 1117 513 c 1,26,-1
 1355 104 l 1,27,-1
 1050 -20 l 1,28,-1
 1040 -20 l 1,29,-1
 782 440 l 1,30,-1
 574 440 l 1,31,-1
 507 127 l 1,32,-1
 166 -20 l 1,12,-1
EndSplineSet
Validated: 1
EndChar

StartChar: T
Encoding: 84 84 54
Width: 1190
GlyphClass: 2
Flags: W
HStem: -20 21G<431 487.712> 1210 300<467 692 1012 1301>
DStem2: 431 -20 750.967 -20 0.207912 0.978148<215.787 1257.39>
LayerCount: 2
Fore
SplineSet
441 -20 m 1,0,-1
 431 -20 l 1,1,-1
 692 1210 l 1,2,-1
 267 1210 l 1,3,-1
 269 1220 l 1,4,-1
 467 1510 l 1,5,-1
 1501 1510 l 1,6,-1
 1499 1500 l 1,7,-1
 1301 1210 l 1,8,-1
 1012 1210 l 1,9,-1
 782 126 l 1,10,-1
 441 -20 l 1,0,-1
EndSplineSet
Validated: 1
EndChar

StartChar: U
Encoding: 85 85 55
Width: 1410
GlyphClass: 2
Flags: W
HStem: -20 300<621.702 927.339> 1510 20G<728.605 785 1538.61 1595>
VStem: 234 325<341.019 554.098>
DStem2: 135.746 -20 456.021 -20 0.207912 0.978148<544.428 1434.35> 946.021 -20 1265.75 -20 0.207912 0.978148<383.424 1434.29>
LayerCount: 2
Fore
SplineSet
730 -20 m 0,0,1
 494 -20 494 -20 346 127 c 0,2,3
 234 238 234 238 234 393 c 0,4,5
 234 442 234 442 245 494 c 2,6,-1
 434 1383 l 1,7,-1
 775 1530 l 1,8,-1
 785 1530 l 1,9,-1
 564 488 l 2,10,11
 559 466 559 466 559 446 c 0,12,13
 559 383 559 383 604 338 c 0,14,15
 662 280 662 280 764.5 280 c 128,-1,16
 867 280 867 280 951 339 c 128,-1,17
 1035 398 1035 398 1054 488 c 2,18,-1
 1244 1383 l 1,19,-1
 1585 1530 l 1,20,-1
 1595 1530 l 1,21,-1
 1375 494 l 2,22,23
 1322 245 1322 245 1161 126 c 0,24,25
 964 -20 964 -20 730 -20 c 0,0,1
EndSplineSet
Validated: 1
EndChar

StartChar: V
Encoding: 86 86 56
Width: 1361
GlyphClass: 2
Flags: W
HStem: -20 21G<544.578 604.508> 1510 20G<544.71 604.397 1380.57 1440.59>
DStem2: 601 1530 304 1406 0.168657 -0.985675<72.1326 1015.33> 771 529 851 106 0.52769 0.849437<0 1178.51>
LayerCount: 2
Fore
SplineSet
558 -20 m 1,0,-1
 548 -20 l 1,1,-1
 304 1406 l 1,2,-1
 591 1530 l 1,3,-1
 601 1530 l 1,4,-1
 771 529 l 1,5,-1
 1393 1530 l 1,6,-1
 1403 1530 l 1,7,-1
 1653 1397 l 1,8,-1
 851 106 l 1,9,-1
 558 -20 l 1,0,-1
EndSplineSet
Validated: 1
EndChar

StartChar: W
Encoding: 87 87 57
Width: 2220
GlyphClass: 2
Flags: W
HStem: -20 300<621.116 927.938 1432.03 1737.34> 1510 20G<728.605 785 1538.61 1595 2348.61 2405>
VStem: 234 325<340.617 554.098>
DStem2: 135.746 -20 456.021 -20 0.207912 0.978148<544.428 1434.35> 946.021 -20 1266.02 -20 0.207912 0.978148<544.371 1434.29> 1756.02 -20 2075.75 -20 0.207912 0.978148<383.424 1434.29>
LayerCount: 2
Fore
SplineSet
728 -20 m 0,0,1
 494 -20 494 -20 346 127 c 0,2,3
 234 239 234 239 234 392 c 0,4,5
 234 441 234 441 245 494 c 2,6,-1
 434 1383 l 1,7,-1
 775 1530 l 1,8,-1
 785 1530 l 1,9,-1
 564 488 l 2,10,11
 559 466 559 466 559 446 c 0,12,13
 559 383 559 383 604 338 c 0,14,15
 662 280 662 280 764.5 280 c 128,-1,16
 867 280 867 280 951 339 c 128,-1,17
 1035 398 1035 398 1054 488 c 2,18,-1
 1244 1383 l 1,19,-1
 1585 1530 l 1,20,-1
 1595 1530 l 1,21,-1
 1374 488 l 2,22,23
 1369 466 1369 466 1369 446 c 0,24,25
 1369 383 1369 383 1414 338 c 0,26,27
 1472 280 1472 280 1574.5 280 c 128,-1,28
 1677 280 1677 280 1761 339 c 128,-1,29
 1845 398 1845 398 1864 488 c 2,30,-1
 2054 1383 l 1,31,-1
 2395 1530 l 1,32,-1
 2405 1530 l 1,33,-1
 2185 494 l 2,34,35
 2132 245 2132 245 1971 126 c 0,36,37
 1774 -20 1774 -20 1540 -20 c 0,38,39
 1304 -20 1304 -20 1168 131 c 1,40,41
 965 -20 965 -20 728 -20 c 0,0,1
EndSplineSet
Validated: 1
EndChar

StartChar: X
Encoding: 88 88 58
Width: 1254
GlyphClass: 2
Flags: W
HStem: -20 21G<232.92 298.722 973.618 1039.5> 1509 20G<535.898 601.4 1276.28 1341.48>
DStem2: 33 105 281 -20 0.662699 0.748886<70.7385 762.84 1210.72 1902.83> 592 1529 310 1411 0.42534 -0.905033<0 571.26 996.04 1568.2>
LayerCount: 2
Fore
SplineSet
281 -20 m 1,0,-1
 271 -20 l 1,1,-1
 33 105 l 1,2,-1
 615 763 l 1,3,-1
 310 1411 l 1,4,-1
 582 1529 l 1,5,-1
 592 1529 l 1,6,-1
 835 1012 l 1,7,-1
 1294 1530 l 1,8,-1
 1304 1530 l 1,9,-1
 1542 1403 l 1,10,-1
 960 746 l 1,11,-1
 1265 97 l 1,12,-1
 993 -20 l 1,13,-1
 983 -20 l 1,14,-1
 740 498 l 1,15,-1
 281 -20 l 1,0,-1
EndSplineSet
Validated: 1
EndChar

StartChar: Y
Encoding: 89 89 59
Width: 1270
GlyphClass: 2
Flags: W
HStem: -20 21G<471 527.395> 1510 20G<668.605 725 1458.61 1515>
VStem: 259 325<737.177 950.58>
DStem2: 75.361 -20 395.636 -20 0.207912 0.978148<954.357 1434.43> 865.783 -20 1185.54 -20 0.207912 0.978148<788.583 1434.34>
LayerCount: 2
Fore
SplineSet
481 -20 m 1,0,-1
 471 -20 l 1,1,-1
 559 397 l 1,2,3
 442 444 442 444 370 524 c 0,4,5
 259 647 259 647 259 797 c 0,6,7
 259 843 259 843 269 891 c 2,8,-1
 374 1383 l 1,9,-1
 715 1530 l 1,10,-1
 725 1530 l 1,11,-1
 588 885 l 2,12,13
 584 865 584 865 584 847 c 0,14,15
 584 787 584 787 628 735 c 0,16,17
 678 677 678 677 779 677 c 128,-1,18
 880 677 880 677 959.5 736 c 128,-1,19
 1039 795 1039 795 1058 885 c 2,20,-1
 1164 1383 l 1,21,-1
 1505 1530 l 1,22,-1
 1515 1530 l 1,23,-1
 1379 891 l 2,24,25
 1326 642 1326 642 1165 523 c 0,26,27
 1059 444 1059 444 880 398 c 1,28,-1
 822 127 l 1,29,-1
 481 -20 l 1,0,-1
EndSplineSet
Validated: 1
EndChar

StartChar: Z
Encoding: 90 90 60
Width: 1138
GlyphClass: 2
Flags: W
HStem: 0 300<585 992> 1210 300<498 874>
DStem2: 12 10 585 300 0.583413 0.812176<569.827 1477.51>
LayerCount: 2
Fore
SplineSet
10 0 m 1,0,-1
 12 10 l 1,1,-1
 874 1210 l 1,2,-1
 298 1210 l 1,3,-1
 300 1220 l 1,4,-1
 498 1510 l 1,5,-1
 1449 1510 l 1,6,-1
 1447 1500 l 1,7,-1
 585 300 l 1,8,-1
 1192 300 l 1,9,-1
 1190 290 l 1,10,-1
 992 0 l 1,11,-1
 10 0 l 1,0,-1
EndSplineSet
Validated: 1
EndChar

StartChar: bracketleft
Encoding: 91 91 61
Width: 920
GlyphClass: 2
Flags: W
HStem: -240 300<493 723> 1450 300<800 1082>
DStem2: 109 -240 429.233 -240 0.207912 0.978148<373.282 1794.24>
LayerCount: 2
Fore
SplineSet
109 -240 m 1,0,-1
 505 1624 l 1,1,-1
 800 1750 l 1,2,-1
 1282 1750 l 1,3,-1
 1280 1740 l 1,4,-1
 1082 1450 l 1,5,-1
 788 1450 l 1,6,-1
 493 60 l 1,7,-1
 923 60 l 1,8,-1
 921 50 l 1,9,-1
 723 -240 l 1,10,-1
 109 -240 l 1,0,-1
EndSplineSet
Validated: 1
EndChar

StartChar: backslash
Encoding: 92 92 62
Width: 1069
GlyphClass: 2
Flags: W
DStem2: 601 1710 351 1606 0.235692 -0.971828<42.147 1858.35>
LayerCount: 2
Fore
SplineSet
797 -200 m 1,0,-1
 787 -200 l 1,1,-1
 351 1606 l 1,2,-1
 591 1710 l 1,3,-1
 601 1710 l 1,4,-1
 1039 -96 l 1,5,-1
 797 -200 l 1,0,-1
EndSplineSet
Validated: 1
EndChar

StartChar: bracketright
Encoding: 93 93 63
Width: 920
GlyphClass: 2
Flags: W
HStem: -240 300<159 441> 1450 300<518 748>
DStem2: 389.233 -240 709.218 -240 0.207912 0.978148<306.702 1727.66>
LayerCount: 2
Fore
SplineSet
441 -240 m 1,0,-1
 -41 -240 l 1,1,-1
 -39 -230 l 1,2,-1
 159 60 l 1,3,-1
 453 60 l 1,4,-1
 748 1450 l 1,5,-1
 318 1450 l 1,6,-1
 320 1460 l 1,7,-1
 518 1750 l 1,8,-1
 1132 1750 l 1,9,-1
 736 -114 l 1,10,-1
 441 -240 l 1,0,-1
EndSplineSet
Validated: 1
EndChar

StartChar: asciicircum
Encoding: 94 94 64
Width: 1009
GlyphClass: 2
Flags: W
HStem: 1039 531
LayerCount: 2
Fore
SplineSet
538 1039 m 1,0,-1
 528 1039 l 1,1,-1
 279 1172 l 1,2,-1
 604 1442 l 1,3,-1
 900 1570 l 1,4,-1
 910 1570 l 1,5,-1
 1226 1160 l 1,6,-1
 947 1039 l 1,7,-1
 937 1039 l 1,8,-1
 778 1246 l 1,9,-1
 538 1039 l 1,0,-1
EndSplineSet
Validated: 1
EndChar

StartChar: underscore
Encoding: 95 95 65
Width: 1404
GlyphClass: 2
Flags: W
HStem: -410 200<156 1116>
LayerCount: 2
Fore
SplineSet
23 -410 m 1,0,-1
 25 -400 l 1,1,-1
 156 -210 l 1,2,-1
 1249 -210 l 1,3,-1
 1247 -220 l 1,4,-1
 1116 -410 l 1,5,-1
 23 -410 l 1,0,-1
EndSplineSet
Validated: 1
EndChar

StartChar: grave
Encoding: 96 96 66
Width: 405
GlyphClass: 2
Flags: W
HStem: 1160 410
VStem: 346 293
DStem2: 554 1570 346 1485 0.252301 -0.967649<29.7715 336.899>
LayerCount: 2
Fore
SplineSet
544 1570 m 1,0,-1
 554 1570 l 1,1,-1
 639 1244 l 1,2,-1
 444 1160 l 1,3,-1
 434 1160 l 1,4,-1
 346 1485 l 1,5,-1
 544 1570 l 1,0,-1
EndSplineSet
Validated: 1
EndChar

StartChar: a
Encoding: 97 97 67
Width: 1104
GlyphClass: 2
Flags: W
HStem: -20 267<433.019 675.88> 505 212<461.987 730.333> 820 280<597 775.988>
VStem: 113 289<279.124 448.287> 809 312<668.414 790.093>
LayerCount: 2
Fore
SplineSet
554.5 247 m 128,-1,1
 629 247 629 247 688 283 c 0,2,3
 745 318 745 318 758 376 c 0,4,5
 761 389 761 389 761 401 c 0,6,7
 761 443 761 443 726 470 c 0,8,9
 682 505 682 505 607.5 505 c 128,-1,10
 533 505 533 505 475 470 c 128,-1,11
 417 435 417 435 404 376 c 0,12,13
 402 367 402 367 402 351 c 0,14,15
 402 309 402 309 436 282 c 0,16,0
 480 247 480 247 554.5 247 c 128,-1,1
670 -20 m 1,17,-1
 660 -20 l 1,18,-1
 671 35 l 1,19,20
 585 -20 585 -20 468 -20 c 0,21,22
 307 -20 307 -20 204 77 c 0,23,24
 113 163 113 163 113 306 c 0,25,26
 113 329 113 329 115 353 c 0,27,28
 132 533 132 533 303 636 c 0,29,30
 438 717 438 717 584 717 c 0,31,32
 731 717 731 717 805 664 c 1,33,34
 809 684 809 684 809 702 c 0,35,36
 809 752 809 752 777 786 c 128,-1,37
 745 820 745 820 663 820 c 2,38,-1
 408 820 l 1,39,-1
 410 830 l 1,40,-1
 597 1100 l 1,41,-1
 733 1100 l 2,42,43
 936 1100 936 1100 1046 984 c 0,44,45
 1121 905 1121 905 1121 784 c 0,46,47
 1121 736 1121 736 1109 681 c 2,48,-1
 989 118 l 1,49,-1
 670 -20 l 1,17,-1
EndSplineSet
Validated: 1
EndChar

StartChar: b
Encoding: 98 98 68
Width: 1210
GlyphClass: 2
Flags: W
HStem: -20 280<552.898 811.607> 838 282<673.424 911.453> 1510 20G<708.768 765>
VStem: 218 304<294.364 573.664> 941 305<522.453 801.886>
DStem2: 136.089 -20 436.151 -20 0.207912 0.978148<464.037 905.114 1178.73 1443.5> 786.151 -20 1085.81 -20 0.207912 0.978148<322.29 759.508>
LayerCount: 2
Fore
SplineSet
670.5 260 m 128,-1,1
 745 260 745 260 805 299 c 0,2,3
 862 338 862 338 875 398 c 2,4,-1
 938 694 l 2,5,6
 941 710 941 710 941 724 c 0,7,8
 941 769 941 769 910 798 c 0,9,10
 868 838 868 838 792.5 838 c 128,-1,11
 717 838 717 838 659 797.5 c 128,-1,12
 601 757 601 757 588 695 c 2,13,-1
 525 398 l 2,14,15
 522 384 522 384 522 372 c 0,16,17
 522 328 522 328 554 298 c 0,18,0
 596 260 596 260 670.5 260 c 128,-1,1
640 -20 m 0,19,20
 424 -20 424 -20 312 102 c 0,21,22
 218 204 218 204 218 328 c 0,23,24
 218 365 218 365 226 403 c 2,25,-1
 436 1392 l 1,26,-1
 755 1530 l 1,27,-1
 765 1530 l 1,28,-1
 668 1072 l 1,29,30
 749 1120 749 1120 843 1120 c 0,31,32
 1041 1120 1041 1120 1153 998 c 0,33,34
 1246 897 1246 897 1246 772 c 0,35,36
 1246 735 1246 735 1238 696 c 2,37,-1
 1176 403 l 2,38,39
 1132 197 1132 197 1001 101 c 0,40,41
 836 -20 836 -20 640 -20 c 0,19,20
EndSplineSet
Validated: 1
EndChar

StartChar: c
Encoding: 99 99 69
Width: 1110
GlyphClass: 2
Flags: W
HStem: -20 280<533.561 787.532> 839 281<631.149 886.069>
VStem: 198 304<298.91 463.047>
DStem2: 116.089 -20 416.151 -20 0.207912 0.978148<462.111 905.879>
LayerCount: 2
Fore
SplineSet
621 -20 m 0,0,1
 406 -20 406 -20 292 102 c 0,2,3
 198 203 198 203 198 328 c 0,4,5
 198 365 198 365 206 403 c 2,6,-1
 268 697 l 2,7,8
 312 904 312 904 442 999 c 0,9,10
 608 1120 608 1120 802 1120 c 0,11,12
 1018 1120 1018 1120 1130 993 c 0,13,14
 1209 902 1209 902 1214 781 c 1,15,-1
 919 653 l 1,16,-1
 909 653 l 1,17,18
 916 687 916 687 916 714 c 0,19,20
 916 768 916 768 888 796 c 0,21,22
 846 839 846 839 772 839 c 0,23,24
 695 839 695 839 639 801 c 0,25,26
 582 762 582 762 569 702 c 2,27,-1
 505 398 l 2,28,29
 502 383 502 383 502 370 c 0,30,31
 502 327 502 327 534 298 c 0,32,33
 577 260 577 260 650 260 c 0,34,35
 726 260 726 260 792 307 c 1,36,-1
 1159 465 l 1,37,-1
 1169 465 l 1,38,-1
 1157 410 l 2,39,40
 1113 209 1113 209 982 103 c 0,41,42
 830 -20 830 -20 621 -20 c 0,0,1
EndSplineSet
Validated: 1
EndChar

StartChar: d
Encoding: 100 100 70
Width: 1210
GlyphClass: 2
Flags: W
HStem: -20 280<532.985 789.372> 839 281<635.414 891.186> 1510 20G<1338.77 1395>
VStem: 198 304<295.624 575.359>
DStem2: 116.089 -20 416.151 -20 0.207912 0.978148<462.141 904.373> 766.022 -20 1066.09 -20 0.207912 0.978148<323.633 758.587 1116.37 1443.51>
LayerCount: 2
Fore
SplineSet
649.5 260 m 128,-1,1
 724 260 724 260 782.5 298.5 c 128,-1,2
 841 337 841 337 855 398 c 2,3,-1
 918 695 l 2,4,5
 921 710 921 710 921 723 c 0,6,7
 921 767 921 767 890 798 c 0,8,9
 848 839 848 839 773.5 839 c 128,-1,10
 699 839 699 839 640 798.5 c 128,-1,11
 581 758 581 758 568 694 c 2,12,-1
 505 398 l 2,13,14
 502 384 502 384 502 370 c 0,15,16
 502 328 502 328 533 299 c 0,17,0
 575 260 575 260 649.5 260 c 128,-1,1
622 -20 m 0,18,19
 404 -20 404 -20 291 101 c 0,20,21
 198 201 198 201 198 326 c 0,22,23
 198 363 198 363 206 403 c 2,24,-1
 268 696 l 2,25,26
 312 902 312 902 441 998 c 0,27,28
 605 1120 605 1120 803 1120 c 0,29,30
 931 1120 931 1120 998 1072 c 1,31,-1
 1066 1392 l 1,32,-1
 1385 1530 l 1,33,-1
 1395 1530 l 1,34,-1
 1156 403 l 2,35,36
 1113 199 1113 199 982 102 c 0,37,38
 818 -20 818 -20 622 -20 c 0,18,19
EndSplineSet
Validated: 1
EndChar

StartChar: e
Encoding: 101 101 71
Width: 1190
GlyphClass: 2
Flags: W
HStem: -20 280<529.346 787.532> 839 281<631.149 892.371>
DStem2: 539 558 506 340 0.918316 0.395849<0 427.01>
LayerCount: 2
Fore
SplineSet
621 -20 m 0,0,1
 406 -20 406 -20 292 102 c 0,2,3
 198 203 198 203 198 328 c 0,4,5
 198 365 198 365 206 403 c 2,6,-1
 268 697 l 2,7,8
 312 904 312 904 442 999 c 0,9,10
 608 1120 608 1120 802 1120 c 0,11,12
 999 1120 999 1120 1125 993 c 0,13,14
 1214 903 1214 903 1214 764 c 0,15,16
 1214 725 1214 725 1206 688 c 2,17,-1
 1195 637 l 1,18,-1
 506 340 l 1,19,20
 514 316 514 316 534 298 c 0,21,22
 577 260 577 260 650 260 c 0,23,24
 726 260 726 260 792 307 c 1,25,-1
 1159 465 l 1,26,-1
 1169 465 l 1,27,-1
 1157 410 l 2,28,29
 1113 209 1113 209 982 103 c 0,30,31
 830 -20 830 -20 621 -20 c 0,0,1
539 558 m 1,32,-1
 922 724 l 1,33,34
 922 771 922 771 890 801 c 0,35,36
 848 839 848 839 772 839 c 0,37,38
 694 839 694 839 639 801 c 0,39,40
 582 762 582 762 569 702 c 2,41,-1
 539 558 l 1,32,-1
EndSplineSet
Validated: 1
EndChar

StartChar: f
Encoding: 102 102 72
Width: 860
GlyphClass: 2
Flags: W
HStem: -20 21G<136 192.232> 662 280<640 823> 1230 280<740.926 982>
DStem2: 136 -20 435.667 -20 0.207912 0.978148<203.387 759.617 1045.77 1303.1>
LayerCount: 2
Fore
SplineSet
146 -20 m 1,0,-1
 136 -20 l 1,1,-1
 369 1076 l 2,2,3
 414 1288 414 1288 545 1386 c 0,4,5
 711 1510 711 1510 906 1510 c 2,6,-1
 1171 1510 l 1,7,-1
 1169 1500 l 1,8,-1
 982 1230 l 1,9,-1
 876 1230 l 2,10,11
 799 1230 799 1230 742 1189 c 0,12,13
 685 1149 685 1149 671 1085 c 2,14,-1
 640 942 l 1,15,-1
 1011 942 l 1,16,-1
 1009 932 l 1,17,-1
 823 662 l 1,18,-1
 581 662 l 1,19,-1
 465 118 l 1,20,-1
 146 -20 l 1,0,-1
EndSplineSet
Validated: 1
EndChar

StartChar: g
Encoding: 103 103 73
Width: 1210
GlyphClass: 2
Flags: W
HStem: -410 250<341 680.172> -20 280<532.539 769.819> 840 280<632.539 891.102>
VStem: 198 304<294.232 578.031> 922 304<527.5 805.636>
DStem2: 33.1915 -410 333.254 -410 0.207912 0.978148<862.75 1304.59> 683.254 -410 982.7 -410 0.207912 0.978148<717.797 1162.4>
LayerCount: 2
Fore
SplineSet
650.5 260 m 128,-1,1
 725 260 725 260 785 299 c 0,2,3
 842 338 842 338 855 398 c 2,4,-1
 919 702 l 2,5,6
 922 716 922 716 922 728 c 0,7,8
 922 772 922 772 890 802 c 0,9,10
 848 840 848 840 773.5 840 c 128,-1,11
 699 840 699 840 639 801 c 0,12,13
 582 762 582 762 569 702 c 2,14,-1
 505 398 l 2,15,16
 502 384 502 384 502 372 c 0,17,18
 502 328 502 328 534 298 c 0,19,0
 576 260 576 260 650.5 260 c 128,-1,1
173 -410 m 1,20,-1
 175 -400 l 1,21,-1
 341 -160 l 1,22,-1
 547 -160 l 2,23,24
 640 -160 640 -160 707 -96 c 0,25,26
 755 -51 755 -51 775 28 c 1,27,28
 693 -20 693 -20 600 -20 c 0,29,30
 405 -20 405 -20 292 102 c 0,31,32
 198 203 198 203 198 328 c 0,33,34
 198 365 198 365 206 403 c 2,35,-1
 268 697 l 2,36,37
 312 904 312 904 442 999 c 0,38,39
 609 1120 609 1120 804 1120 c 0,40,41
 1020 1120 1020 1120 1132 998 c 0,42,43
 1226 896 1226 896 1226 772 c 0,44,45
 1226 735 1226 735 1218 697 c 2,46,-1
 1075 24 l 2,47,48
 1030 -188 1030 -188 899 -286 c 0,49,50
 733 -410 733 -410 538 -410 c 2,51,-1
 173 -410 l 1,20,-1
EndSplineSet
Validated: 1
EndChar

StartChar: h
Encoding: 104 104 74
Width: 1250
GlyphClass: 2
Flags: W
HStem: -20 21G<156 212.232 806 862.232> 838 282<693.676 931.453> 1510 20G<728.768 785>
VStem: 961 305<525.531 801.886>
DStem2: 156 -20 455.667 -20 0.207912 0.978148<203.387 903.616 1178.75 1443.52> 806 -20 1105.67 -20 0.207912 0.978148<203.387 759.54>
LayerCount: 2
Fore
SplineSet
166 -20 m 1,0,-1
 156 -20 l 1,1,-1
 456 1392 l 1,2,-1
 775 1530 l 1,3,-1
 785 1530 l 1,4,-1
 688 1072 l 1,5,6
 771 1120 771 1120 863 1120 c 0,7,8
 1061 1120 1061 1120 1173 998 c 0,9,10
 1266 897 1266 897 1266 772 c 0,11,12
 1266 735 1266 735 1258 696 c 2,13,-1
 1135 118 l 1,14,-1
 816 -20 l 1,15,-1
 806 -20 l 1,16,-1
 958 694 l 2,17,18
 961 710 961 710 961 724 c 0,19,20
 961 769 961 769 930 798 c 0,21,22
 888 838 888 838 812.5 838 c 128,-1,23
 737 838 737 838 679.5 797.5 c 128,-1,24
 622 757 622 757 608 695 c 2,25,-1
 485 118 l 1,26,-1
 166 -20 l 1,0,-1
EndSplineSet
Validated: 1
EndChar

StartChar: i
Encoding: 105 105 75
Width: 620
GlyphClass: 2
Flags: W
HStem: -20 21G<156 212.232> 1100 20G<641.768 698> 1179 365<511.097 687.323>
VStem: 156 628
DStem2: 156 -20 455.667 -20 0.207912 0.978148<203.387 1024.39>
LayerCount: 2
Fore
SplineSet
638 1544 m 0,0,1
 714 1544 714 1544 755 1491 c 0,2,3
 784 1453 784 1453 784 1402 c 0,4,5
 784 1383 784 1383 780 1362 c 0,6,7
 764 1287 764 1287 699.5 1233 c 128,-1,8
 635 1179 635 1179 561 1179 c 0,9,10
 485 1179 485 1179 445 1233 c 0,11,12
 415 1272 415 1272 415 1322 c 0,13,14
 415 1341 415 1341 419 1361 c 0,15,16
 435 1437 435 1437 499 1490 c 0,17,18
 563 1544 563 1544 638 1544 c 0,0,1
166 -20 m 1,19,-1
 156 -20 l 1,20,-1
 369 982 l 1,21,-1
 688 1120 l 1,22,-1
 698 1120 l 1,23,-1
 485 118 l 1,24,-1
 166 -20 l 1,19,-1
EndSplineSet
Validated: 1
EndChar

StartChar: j
Encoding: 106 106 76
Width: 620
GlyphClass: 2
Flags: W
HStem: -410 21G<-162 12.5> 1100 20G<641.768 698> 1179 365<511.097 687.323>
DStem2: 73.1213 -410 372.788 -410 0.207912 0.978148<313.881 1423.1>
LayerCount: 2
Fore
SplineSet
638 1544 m 0,0,1
 714 1544 714 1544 755 1491 c 0,2,3
 784 1453 784 1453 784 1402 c 0,4,5
 784 1383 784 1383 780 1362 c 0,6,7
 764 1287 764 1287 699.5 1233 c 128,-1,8
 635 1179 635 1179 561 1179 c 0,9,10
 485 1179 485 1179 445 1233 c 0,11,12
 415 1272 415 1272 415 1322 c 0,13,14
 415 1341 415 1341 419 1361 c 0,15,16
 435 1437 435 1437 499 1490 c 0,17,18
 563 1544 563 1544 638 1544 c 0,0,1
-162 -410 m 1,19,-1
 -160 -400 l 1,20,-1
 26 -130 l 1,21,22
 65 -119 65 -119 108 -84 c 0,23,24
 150 -47 150 -47 164 20 c 2,25,-1
 369 982 l 1,26,-1
 688 1120 l 1,27,-1
 698 1120 l 1,28,-1
 469 41 l 2,29,30
 418 -200 418 -200 242 -315 c 0,31,32
 97 -410 97 -410 -72 -410 c 2,33,-1
 -162 -410 l 1,19,-1
EndSplineSet
Validated: 1
EndChar

StartChar: k
Encoding: 107 107 77
Width: 1210
GlyphClass: 2
Flags: W
HStem: -20 21G<156 212.232 786 842.232> 1100 20G<1020.29 1099.76> 1510 20G<728.768 785>
VStem: 876 309<236.656 504.624>
DStem2: 156 -20 455.667 -20 0.207912 0.978148<203.387 603.434 963.979 1443.52>
LayerCount: 2
Fore
SplineSet
166 -20 m 1,0,-1
 156 -20 l 1,1,-1
 456 1392 l 1,2,-1
 775 1530 l 1,3,-1
 785 1530 l 1,4,-1
 643 862 l 1,5,-1
 1052 1120 l 1,6,-1
 1062 1120 l 1,7,-1
 1315 986 l 1,8,-1
 966 779 l 1,9,10
 1042 754 1042 754 1086 709 c 0,11,12
 1185 609 1185 609 1185 483 c 0,13,14
 1185 447 1185 447 1177 408 c 2,15,-1
 1115 118 l 1,16,-1
 796 -20 l 1,17,-1
 786 -20 l 1,18,-1
 873 392 l 2,19,20
 876 408 876 408 876 423 c 0,21,22
 876 468 876 468 845 500 c 0,23,24
 803 542 803 542 736 542 c 0,25,26
 668 542 668 542 612 500 c 0,27,28
 557 459 557 459 543 392 c 2,29,-1
 485 118 l 1,30,-1
 166 -20 l 1,0,-1
EndSplineSet
Validated: 1
EndChar

StartChar: l
Encoding: 108 108 78
Width: 620
GlyphClass: 2
Flags: W
HStem: -20 21G<156 212.232> 1510 20G<728.768 785>
VStem: 156 629
DStem2: 156 -20 455.667 -20 0.207912 0.978148<203.387 1443.52>
LayerCount: 2
Fore
SplineSet
166 -20 m 1,0,-1
 156 -20 l 1,1,-1
 456 1392 l 1,2,-1
 775 1530 l 1,3,-1
 785 1530 l 1,4,-1
 485 118 l 1,5,-1
 166 -20 l 1,0,-1
EndSplineSet
Validated: 1
EndChar

StartChar: m
Encoding: 109 109 79
Width: 1880
GlyphClass: 2
Flags: W
HStem: -20 21G<136 192.232 786 842.232 1436 1492.23> 838 282<656.065 910.84 1306.06 1560.99>
VStem: 1591 305<525.531 802.255>
DStem2: 136 -20 435.667 -20 0.207912 0.978148<203.387 900.559> 786 -20 1085.67 -20 0.207912 0.978148<203.387 759.54> 1436 -20 1735.67 -20 0.207912 0.978148<203.387 759.54>
LayerCount: 2
Fore
SplineSet
146 -20 m 1,0,-1
 136 -20 l 1,1,-1
 288 697 l 2,2,3
 332 904 332 904 462 999 c 0,4,5
 628 1120 628 1120 823 1120 c 0,6,7
 1013 1120 1013 1120 1123 1007 c 1,8,9
 1284 1120 1284 1120 1473 1120 c 0,10,11
 1691 1120 1691 1120 1803 998 c 0,12,13
 1896 897 1896 897 1896 773 c 0,14,15
 1896 736 1896 736 1888 696 c 2,16,-1
 1765 118 l 1,17,-1
 1446 -20 l 1,18,-1
 1436 -20 l 1,19,-1
 1588 694 l 2,20,21
 1591 710 1591 710 1591 724 c 0,22,23
 1591 769 1591 769 1560 798 c 0,24,25
 1518 838 1518 838 1443 838 c 128,-1,26
 1368 838 1368 838 1310 797.5 c 128,-1,27
 1252 757 1252 757 1238 695 c 2,28,-1
 1115 118 l 1,29,-1
 796 -20 l 1,30,-1
 786 -20 l 1,31,-1
 938 694 l 2,32,33
 941 710 941 710 941 724 c 0,34,35
 941 769 941 769 910 798 c 0,36,37
 868 838 868 838 792.5 838 c 128,-1,38
 717 838 717 838 659.5 797.5 c 128,-1,39
 602 757 602 757 588 695 c 2,40,-1
 465 118 l 1,41,-1
 146 -20 l 1,0,-1
EndSplineSet
Validated: 1
EndChar

StartChar: n
Encoding: 110 110 80
Width: 1230
GlyphClass: 2
Flags: W
HStem: -20 21G<136 192.232 786 842.232> 838 282<656.065 910.991>
VStem: 941 305<525.531 801.765>
DStem2: 136 -20 435.667 -20 0.207912 0.978148<203.387 900.559> 786 -20 1085.67 -20 0.207912 0.978148<203.387 759.54>
LayerCount: 2
Fore
SplineSet
146 -20 m 1,0,-1
 136 -20 l 1,1,-1
 288 697 l 2,2,3
 332 904 332 904 462 999 c 0,4,5
 628 1120 628 1120 823 1120 c 0,6,7
 1041 1120 1041 1120 1153 998 c 0,8,9
 1246 896 1246 896 1246 772 c 0,10,11
 1246 735 1246 735 1238 696 c 2,12,-1
 1115 118 l 1,13,-1
 796 -20 l 1,14,-1
 786 -20 l 1,15,-1
 938 694 l 2,16,17
 941 710 941 710 941 724 c 0,18,19
 941 769 941 769 910 798 c 0,20,21
 868 838 868 838 792.5 838 c 128,-1,22
 717 838 717 838 659.5 797.5 c 128,-1,23
 602 757 602 757 588 695 c 2,24,-1
 465 118 l 1,25,-1
 146 -20 l 1,0,-1
EndSplineSet
Validated: 1
EndChar

StartChar: o
Encoding: 111 111 81
Width: 1190
GlyphClass: 2
Flags: W
HStem: -20 280<532.898 791.607> 840 280<632.539 891.102>
VStem: 198 304<294.232 578.031> 922 304<521.969 805.768>
DStem2: 116.089 -20 416.151 -20 0.207912 0.978148<464.037 905.879> 765.534 -20 1065.6 -20 0.207912 0.978148<322.418 763.818>
LayerCount: 2
Fore
SplineSet
650.5 260 m 128,-1,1
 725 260 725 260 785 299 c 0,2,3
 842 338 842 338 855 398 c 2,4,-1
 919 702 l 2,5,6
 922 716 922 716 922 728 c 0,7,8
 922 772 922 772 890 802 c 0,9,10
 848 840 848 840 773.5 840 c 128,-1,11
 699 840 699 840 639 801 c 0,12,13
 582 762 582 762 569 702 c 2,14,-1
 505 398 l 2,15,16
 502 384 502 384 502 372 c 0,17,18
 502 328 502 328 534 298 c 0,19,0
 576 260 576 260 650.5 260 c 128,-1,1
620 -20 m 0,20,21
 404 -20 404 -20 292 102 c 0,22,23
 198 203 198 203 198 328 c 0,24,25
 198 365 198 365 206 403 c 2,26,-1
 268 697 l 2,27,28
 312 904 312 904 442 999 c 0,29,30
 609 1120 609 1120 804 1120 c 0,31,32
 1020 1120 1020 1120 1132 998 c 0,33,34
 1226 897 1226 897 1226 772 c 0,35,36
 1226 735 1226 735 1218 697 c 2,37,-1
 1156 403 l 2,38,39
 1112 197 1112 197 981 101 c 0,40,41
 816 -20 816 -20 620 -20 c 0,20,21
EndSplineSet
Validated: 1
EndChar

StartChar: p
Encoding: 112 112 82
Width: 1210
GlyphClass: 2
Flags: W
HStem: -430 21G<49 105.232> -20 281<552.799 808.359> 840 280<654.628 910.649>
VStem: 942 304<524.641 805.784>
DStem2: 49 -430 348.667 -430 0.207912 0.978148<203.387 530.533 887.365 1323.27> 698.386 -430 998.728 -430 0.207912 0.978148<742.642 1184.87>
LayerCount: 2
Fore
SplineSet
794.5 840 m 128,-1,1
 720 840 720 840 661.5 801.5 c 128,-1,2
 603 763 603 763 589 702 c 2,3,-1
 526 405 l 2,4,5
 523 390 523 390 523 376 c 0,6,7
 523 333 523 333 554 302 c 0,8,9
 595 261 595 261 669.5 261 c 128,-1,10
 744 261 744 261 803.5 301.5 c 128,-1,11
 863 342 863 342 876 406 c 2,12,-1
 939 702 l 2,13,14
 942 716 942 716 942 730 c 0,15,16
 942 772 942 772 911 801 c 0,17,0
 869 840 869 840 794.5 840 c 128,-1,1
59 -430 m 1,18,-1
 49 -430 l 1,19,-1
 288 697 l 2,20,21
 331 901 331 901 462 998 c 0,22,23
 626 1120 626 1120 822 1120 c 0,24,25
 1038 1120 1038 1120 1152 999 c 0,26,27
 1246 898 1246 898 1246 773 c 0,28,29
 1246 736 1246 736 1238 697 c 2,30,-1
 1176 404 l 2,31,32
 1132 198 1132 198 1003 102 c 0,33,34
 839 -20 839 -20 641 -20 c 0,35,36
 513 -20 513 -20 446 28 c 1,37,-1
 378 -292 l 1,38,-1
 59 -430 l 1,18,-1
EndSplineSet
Validated: 1
EndChar

StartChar: q
Encoding: 113 113 83
Width: 1210
GlyphClass: 2
Flags: W
HStem: -430 21G<679 735.232> -20 282<532.547 770.089> 840 280<632.291 891.102>
VStem: 198 304<298.13 577.547> 922 304<526.336 805.636>
DStem2: 28.7278 -430 328.303 -430 0.207912 0.978148<886.267 1324.6> 679 -430 978.667 -430 0.207912 0.978148<203.387 468.159 743.307 1182.85>
LayerCount: 2
Fore
SplineSet
773.5 840 m 128,-1,1
 699 840 699 840 639 801 c 0,2,3
 582 762 582 762 569 702 c 2,4,-1
 506 406 l 2,5,6
 502 390 502 390 502 375 c 0,7,8
 502 332 502 332 534 302 c 0,9,10
 576 262 576 262 651 262 c 128,-1,11
 726 262 726 262 784.5 302.5 c 128,-1,12
 843 343 843 343 856 405 c 2,13,-1
 919 702 l 2,14,15
 922 716 922 716 922 728 c 0,16,17
 922 772 922 772 890 802 c 0,18,0
 848 840 848 840 773.5 840 c 128,-1,1
689 -430 m 1,19,-1
 679 -430 l 1,20,-1
 776 28 l 1,21,22
 689 -20 689 -20 601 -20 c 0,23,24
 403 -20 403 -20 291 102 c 0,25,26
 198 203 198 203 198 328 c 0,27,28
 198 365 198 365 206 404 c 2,29,-1
 268 697 l 2,30,31
 312 903 312 903 442 999 c 0,32,33
 608 1120 608 1120 804 1120 c 0,34,35
 1020 1120 1020 1120 1132 998 c 0,36,37
 1226 896 1226 896 1226 772 c 0,38,39
 1226 735 1226 735 1218 697 c 2,40,-1
 1008 -292 l 1,41,-1
 689 -430 l 1,19,-1
EndSplineSet
Validated: 1
EndChar

StartChar: r
Encoding: 114 114 84
Width: 860
GlyphClass: 2
Flags: W
HStem: -20 21G<136 192.232> 820 280<648.731 895>
DStem2: 136 -20 435.667 -20 0.207912 0.978148<203.387 885.502>
LayerCount: 2
Fore
SplineSet
146 -20 m 1,0,-1
 136 -20 l 1,1,-1
 284 677 l 2,2,3
 328 884 328 884 458 979 c 0,4,5
 625 1100 625 1100 819 1100 c 2,6,-1
 1084 1100 l 1,7,-1
 1082 1090 l 1,8,-1
 895 820 l 1,9,-1
 789 820 l 2,10,11
 712 820 712 820 654 779 c 0,12,13
 596 737 596 737 583 675 c 2,14,-1
 465 118 l 1,15,-1
 146 -20 l 1,0,-1
EndSplineSet
Validated: 1
EndChar

StartChar: t
Encoding: 116 116 85
Width: 890
GlyphClass: 2
Flags: W
HStem: -20 21G<296 352.316> 820 280<373 474 824 925> 1510 20G<858.684 915>
DStem2: 296 -20 585.73 -20 0.207912 0.978148<196.21 858.652 1205.3 1448.62>
LayerCount: 2
Fore
SplineSet
306 -20 m 1,0,-1
 296 -20 l 1,1,-1
 474 820 l 1,2,-1
 184 820 l 1,3,-1
 186 830 l 1,4,-1
 373 1100 l 1,5,-1
 534 1100 l 1,6,-1
 597 1397 l 1,7,-1
 905 1530 l 1,8,-1
 915 1530 l 1,9,-1
 824 1100 l 1,10,-1
 1114 1100 l 1,11,-1
 1112 1090 l 1,12,-1
 925 820 l 1,13,-1
 764 820 l 1,14,-1
 614 113 l 1,15,-1
 306 -20 l 1,0,-1
EndSplineSet
Validated: 1
EndChar

StartChar: u
Encoding: 117 117 86
Width: 1230
GlyphClass: 2
Flags: W
HStem: -20 282<553.009 807.979> 1100 20G<621.768 678 1271.77 1328>
VStem: 218 304<302.941 467.253>
DStem2: 135.876 -20 435.451 -20 0.207912 0.978148<467.107 1024.41> 786.018 -20 1086.09 -20 0.207912 0.978148<327.213 1024.39>
LayerCount: 2
Fore
SplineSet
641 -20 m 0,0,1
 423 -20 423 -20 311 102 c 0,2,3
 218 204 218 204 218 328 c 0,4,5
 218 365 218 365 226 404 c 2,6,-1
 349 982 l 1,7,-1
 668 1120 l 1,8,-1
 678 1120 l 1,9,-1
 526 406 l 2,10,11
 522 390 522 390 522 375 c 0,12,13
 522 332 522 332 554 302 c 0,14,15
 596 262 596 262 671 262 c 128,-1,16
 746 262 746 262 804.5 302.5 c 128,-1,17
 863 343 863 343 876 405 c 2,18,-1
 999 982 l 1,19,-1
 1318 1120 l 1,20,-1
 1328 1120 l 1,21,-1
 1176 403 l 2,22,23
 1132 196 1132 196 1002 101 c 0,24,25
 836 -20 836 -20 641 -20 c 0,0,1
EndSplineSet
Validated: 1
EndChar

StartChar: v
Encoding: 118 118 87
Width: 1084
GlyphClass: 2
Flags: W
HStem: -20 21G<408.207 468.25> 1100 20G<441.846 501.324 1029.46 1091.18>
DStem2: 498 1120 218 1003 0.186318 -0.98249<62.7823 695.228> 612 434 718 108 0.54133 0.84081<0 809.568>
LayerCount: 2
Fore
SplineSet
422 -20 m 1,0,-1
 412 -20 l 1,1,-1
 218 1003 l 1,2,-1
 488 1120 l 1,3,-1
 498 1120 l 1,4,-1
 612 434 l 1,5,-1
 1042 1120 l 1,6,-1
 1052 1120 l 1,7,-1
 1291 998 l 1,8,-1
 718 108 l 1,9,-1
 422 -20 l 1,0,-1
EndSplineSet
Validated: 1
EndChar

StartChar: w
Encoding: 119 119 88
Width: 1880
GlyphClass: 2
Flags: W
HStem: -20 282<553.009 808.208 1203.16 1457.98> 1100 20G<621.768 678 1271.77 1328 1921.77 1978>
VStem: 218 304<302.941 467.253>
DStem2: 135.876 -20 435.451 -20 0.207912 0.978148<467.107 1024.41> 785.663 -20 1085.45 -20 0.207912 0.978148<467.151 1024.46> 1436.02 -20 1736.09 -20 0.207912 0.978148<327.213 1024.39>
LayerCount: 2
Fore
SplineSet
641 -20 m 0,0,1
 423 -20 423 -20 311 102 c 0,2,3
 218 203 218 203 218 327 c 0,4,5
 218 364 218 364 226 404 c 2,6,-1
 349 982 l 1,7,-1
 668 1120 l 1,8,-1
 678 1120 l 1,9,-1
 526 406 l 2,10,11
 522 390 522 390 522 375 c 0,12,13
 522 332 522 332 554 302 c 0,14,15
 596 262 596 262 671 262 c 128,-1,16
 746 262 746 262 804.5 302.5 c 128,-1,17
 863 343 863 343 876 405 c 2,18,-1
 999 982 l 1,19,-1
 1318 1120 l 1,20,-1
 1328 1120 l 1,21,-1
 1176 406 l 2,22,23
 1172 390 1172 390 1172 375 c 0,24,25
 1172 332 1172 332 1204 302 c 0,26,27
 1246 262 1246 262 1321 262 c 128,-1,28
 1396 262 1396 262 1454.5 302.5 c 128,-1,29
 1513 343 1513 343 1526 405 c 2,30,-1
 1649 982 l 1,31,-1
 1968 1120 l 1,32,-1
 1978 1120 l 1,33,-1
 1826 403 l 2,34,35
 1782 196 1782 196 1652 101 c 0,36,37
 1486 -20 1486 -20 1291 -20 c 0,38,39
 1101 -20 1101 -20 991 93 c 1,40,41
 830 -20 830 -20 641 -20 c 0,0,1
EndSplineSet
Validated: 1
EndChar

StartChar: x
Encoding: 120 120 89
Width: 985
GlyphClass: 2
Flags: W
HStem: -20 21G<212.069 278.16 722.148 788.667> 1100 20G<430.761 496.822 940.893 1006.44>
DStem2: 30 96 260 -20 0.671916 0.740627<68.6281 523.826 926.674 1382.61> 487 1120 225 1011 0.440941 -0.897536<0 376.563 755.556 1131.22>
LayerCount: 2
Fore
SplineSet
260 -20 m 1,0,-1
 250 -20 l 1,1,-1
 30 96 l 1,2,-1
 448 557 l 1,3,-1
 225 1011 l 1,4,-1
 477 1120 l 1,5,-1
 487 1120 l 1,6,-1
 653 782 l 1,7,-1
 959 1120 l 1,8,-1
 969 1120 l 1,9,-1
 1188 1003 l 1,10,-1
 771 543 l 1,11,-1
 994 88 l 1,12,-1
 742 -20 l 1,13,-1
 732 -20 l 1,14,-1
 566 317 l 1,15,-1
 260 -20 l 1,0,-1
EndSplineSet
Validated: 1
EndChar

StartChar: y
Encoding: 121 121 90
Width: 1250
GlyphClass: 2
Flags: W
HStem: -410 250<361 700.172> -20 280<552.539 789.3> 1100 20G<621.768 678 1271.77 1328>
VStem: 218 304<298.941 464.35>
DStem2: 53.1915 -410 353.254 -410 0.207912 0.978148<861.802 1423.08> 703.121 -410 1002.79 -410 0.207912 0.978148<717.824 1423.1>
LayerCount: 2
Fore
SplineSet
193 -410 m 1,0,-1
 195 -400 l 1,1,-1
 361 -160 l 1,2,-1
 567 -160 l 2,3,4
 660 -160 660 -160 727 -96 c 0,5,6
 775 -51 775 -51 795 28 c 1,7,8
 716 -20 716 -20 620 -20 c 0,9,10
 425 -20 425 -20 312 102 c 0,11,12
 218 204 218 204 218 328 c 0,13,14
 218 365 218 365 226 403 c 2,15,-1
 349 982 l 1,16,-1
 668 1120 l 1,17,-1
 678 1120 l 1,18,-1
 525 398 l 2,19,20
 522 384 522 384 522 371 c 0,21,22
 522 328 522 328 554 298 c 0,23,24
 596 260 596 260 670 260 c 0,25,26
 748 260 748 260 805 299 c 128,-1,27
 862 338 862 338 875 398 c 2,28,-1
 999 982 l 1,29,-1
 1318 1120 l 1,30,-1
 1328 1120 l 1,31,-1
 1095 24 l 2,32,33
 1050 -188 1050 -188 919 -286 c 0,34,35
 753 -410 753 -410 558 -410 c 2,36,-1
 193 -410 l 1,0,-1
EndSplineSet
Validated: 1
EndChar

StartChar: z
Encoding: 122 122 91
Width: 975
GlyphClass: 2
Flags: W
HStem: 0 280<561 835> 820 280<405 647>
DStem2: 647 820 561 280 0.616963 0.786992<-478.035 0>
LayerCount: 2
Fore
SplineSet
10 0 m 1,0,-1
 12 10 l 1,1,-1
 647 820 l 1,2,-1
 216 820 l 1,3,-1
 218 830 l 1,4,-1
 405 1100 l 1,5,-1
 1198 1100 l 1,6,-1
 1196 1090 l 1,7,-1
 561 280 l 1,8,-1
 1024 280 l 1,9,-1
 1021 270 l 1,10,-1
 835 0 l 1,11,-1
 10 0 l 1,0,-1
EndSplineSet
Validated: 1
EndChar

StartChar: braceleft
Encoding: 123 123 92
Width: 830
GlyphClass: 2
Flags: W
HStem: 1449 301<947.002 1108>
VStem: 280 325<119.414 328.053>
DStem2: 182.746 -240 503.297 -240 0.207912 0.978148<539.329 879.308 1155.26 1718.3>
LayerCount: 2
Fore
SplineSet
749 -240 m 1,0,1
 515 -240 515 -240 380 -93 c 0,2,3
 280 16 280 16 280 165 c 0,4,5
 280 217 280 217 292 274 c 2,6,-1
 366 620 l 1,7,-1
 142 620 l 1,8,-1
 144 630 l 1,9,-1
 324 890 l 1,10,-1
 423 890 l 1,11,-1
 497 1236 l 2,12,13
 550 1485 550 1485 711 1604 c 0,14,15
 909 1750 909 1750 1172 1750 c 1,16,-1
 1108 1449 l 1,17,18
 1005 1448 1005 1448 922 1392 c 0,19,20
 837 1333 837 1333 819 1248 c 2,21,-1
 610 262 l 2,22,23
 605 241 605 241 605 221 c 0,24,25
 605 160 605 160 651 116 c 0,26,27
 709 60 709 60 813 60 c 1,28,-1
 749 -240 l 1,0,1
EndSplineSet
Validated: 1
EndChar

StartChar: bar
Encoding: 124 124 93
Width: 690
GlyphClass: 2
Flags: W
VStem: 167 676
DStem2: 167 -200 437.643 -200 0.207912 0.978148<183.04 1825.98>
LayerCount: 2
Fore
SplineSet
167 -200 m 1,0,-1
 547 1586 l 1,1,-1
 833 1710 l 1,2,-1
 843 1710 l 1,3,-1
 464 -76 l 1,4,-1
 177 -200 l 1,5,-1
 167 -200 l 1,0,-1
EndSplineSet
Validated: 1
EndChar

StartChar: braceright
Encoding: 125 125 94
Width: 830
GlyphClass: 2
Flags: W
HStem: -240 301<43 203.998>
VStem: 546 325<1089.28 1391.12>
DStem2: 225.297 -240 544.746 -240 0.207912 0.978148<382.687 945.725 1221.68 1561.65>
LayerCount: 2
Fore
SplineSet
-21 -240 m 1,0,-1
 43 61 l 1,1,2
 146 62 146 62 229 118 c 0,3,4
 314 177 314 177 332 262 c 2,5,-1
 541 1248 l 2,6,7
 546 1269 546 1269 546 1289 c 0,8,9
 546 1350 546 1350 500 1394 c 0,10,11
 442 1450 442 1450 338 1450 c 1,12,-1
 402 1750 l 1,13,14
 636 1750 636 1750 770 1603 c 0,15,16
 871 1493 871 1493 871 1344 c 0,17,18
 871 1292 871 1292 859 1236 c 2,19,-1
 785 890 l 1,20,-1
 1009 890 l 1,21,-1
 1007 880 l 1,22,-1
 827 620 l 1,23,-1
 728 620 l 1,24,-1
 654 274 l 2,25,26
 601 25 601 25 440 -94 c 0,27,28
 242 -240 242 -240 -21 -240 c 1,0,-1
EndSplineSet
Validated: 1
EndChar

StartChar: asciitilde
Encoding: 126 126 95
Width: 1178
GlyphClass: 2
Flags: W
HStem: 515 482<742.748 756.534>
LayerCount: 2
Fore
SplineSet
1270 997 m 1,0,-1
 1280 997 l 1,1,2
 1178 515 1178 515 891 515 c 0,3,4
 735 515 735 515 641 666 c 0,5,6
 614 709 614 709 607 718 c 0,7,8
 598 729 598 729 586 729 c 0,9,10
 553 729 553 729 534 647 c 1,11,-1
 229 515 l 1,12,-1
 219 515 l 1,13,14
 321 997 321 997 608 997 c 0,15,16
 764 997 764 997 859 846 c 0,17,18
 886 803 886 803 893 794 c 0,19,20
 902 783 902 783 913 783 c 0,21,22
 946 783 946 783 965 865 c 1,23,-1
 1270 997 l 1,0,-1
EndSplineSet
Validated: 1
EndChar

StartChar: exclamdown
Encoding: 161 161 97
Width: 640
GlyphClass: 2
Flags: W
HStem: -430 21G<69 125.395> 755 365<431.097 607.323>
VStem: 69 635
DStem2: 69 -430 388.754 -430 0.207912 0.978148<216.765 1010.07>
LayerCount: 2
Fore
SplineSet
558 1120 m 0,0,1
 634 1120 634 1120 675 1067 c 0,2,3
 704 1029 704 1029 704 978 c 0,4,5
 704 959 704 959 700 938 c 0,6,7
 684 863 684 863 619.5 809 c 128,-1,8
 555 755 555 755 481 755 c 0,9,10
 405 755 405 755 365 809 c 0,11,12
 335 848 335 848 335 898 c 0,13,14
 335 917 335 917 339 937 c 0,15,16
 355 1013 355 1013 419 1066 c 0,17,18
 483 1120 483 1120 558 1120 c 0,0,1
79 -430 m 1,19,-1
 69 -430 l 1,20,-1
 279 558 l 1,21,-1
 620 705 l 1,22,-1
 630 705 l 1,23,-1
 420 -283 l 1,24,-1
 79 -430 l 1,19,-1
EndSplineSet
Validated: 1
EndChar

StartChar: cent
Encoding: 162 162 98
Width: 1110
GlyphClass: 2
Flags: W
VStem: 198 304<289.523 463.047>
DStem2: 94.8329 -120 394.896 -120 0.207912 0.978148<564.345 1008.11> 509 -120 629.16 -120 0.207912 0.978148<77.122 108.466 421.727 973.195 1286.46 1317.8>
LayerCount: 2
Fore
SplineSet
640 -69 m 1,0,-1
 519 -120 l 1,1,-1
 509 -120 l 1,2,-1
 532 -14 l 1,3,4
 381 7 381 7 292 102 c 0,5,6
 198 203 198 203 198 328 c 0,7,8
 198 365 198 365 206 403 c 2,9,-1
 268 697 l 2,10,11
 312 904 312 904 442 999 c 0,12,13
 595 1111 595 1111 772 1119 c 1,14,-1
 783 1169 l 1,15,-1
 904 1220 l 1,16,-1
 914 1220 l 1,17,-1
 891 1114 l 1,18,19
 1042 1092 1042 1092 1130 993 c 0,20,21
 1209 902 1209 902 1214 781 c 1,22,-1
 919 653 l 1,23,-1
 909 653 l 1,24,25
 916 687 916 687 916 714 c 0,26,27
 916 768 916 768 888 796 c 0,28,29
 865 820 865 820 831 831 c 1,30,-1
 712 268 l 1,31,32
 754 279 754 279 792 307 c 1,33,-1
 1159 465 l 1,34,-1
 1169 465 l 1,35,-1
 1157 410 l 2,36,37
 1113 209 1113 209 982 103 c 0,38,39
 841 -11 841 -11 651 -19 c 1,40,-1
 640 -69 l 1,0,-1
591 267 m 1,41,-1
 711 832 l 1,42,43
 671 823 671 823 639 801 c 0,44,45
 582 762 582 762 569 702 c 2,46,-1
 505 398 l 2,47,48
 502 383 502 383 502 370 c 0,49,50
 502 327 502 327 534 298 c 0,51,52
 558 276 558 276 591 267 c 1,41,-1
EndSplineSet
Validated: 1
EndChar

StartChar: sterling
Encoding: 163 163 99
Width: 1375
GlyphClass: 2
Flags: W
HStem: 0 300<310 324 644 1129> 550 300<761 976> 1252 278<880.62 1105.45>
DStem2: 260.233 0 580.233 0 0.207912 0.978148<373.234 562.258 935.541 1322.37>
LayerCount: 2
Fore
SplineSet
110 0 m 1,0,-1
 112 10 l 1,1,-1
 310 300 l 1,2,-1
 324 300 l 1,3,-1
 377 550 l 1,4,-1
 228 550 l 1,5,-1
 230 560 l 1,6,-1
 428 850 l 1,7,-1
 441 850 l 1,8,-1
 498 1119 l 2,9,10
 546 1345 546 1345 674 1427 c 0,11,12
 837 1530 837 1530 1028 1530 c 0,13,14
 1240 1530 1240 1530 1356 1426 c 0,15,16
 1445 1347 1445 1347 1445 1190 c 1,17,-1
 1124 1052 l 1,18,-1
 1114 1052 l 1,19,-1
 1124 1103 l 2,20,21
 1129 1129 1129 1129 1129 1149 c 0,22,23
 1129 1197 1129 1197 1102 1219 c 0,24,25
 1062 1252 1062 1252 1001 1252 c 0,26,27
 933 1252 933 1252 888 1222 c 0,28,29
 831 1184 831 1184 814 1103 c 2,30,-1
 761 850 l 1,31,-1
 1176 850 l 1,32,-1
 1174 840 l 1,33,-1
 976 550 l 1,34,-1
 697 550 l 1,35,-1
 644 300 l 1,36,-1
 1329 300 l 1,37,-1
 1327 290 l 1,38,-1
 1129 0 l 1,39,-1
 110 0 l 1,0,-1
EndSplineSet
Validated: 1
EndChar

StartChar: currency
Encoding: 164 164 100
Width: 1535
GlyphClass: 2
Flags: W
HStem: 180 284<735.014 1015.53> 1044 284<838.559 1118.09>
VStem: 346 320<533.688 854.352> 1186 322<652.628 973.666>
LayerCount: 2
Fore
SplineSet
988 1044 m 128,-1,1
 876 1044 876 1044 790 962 c 0,2,3
 701 877 701 877 675 754 c 0,4,5
 666 714 666 714 666 677 c 0,6,7
 666 603 666 603 702 546 c 0,8,9
 753 464 753 464 865 464 c 128,-1,10
 977 464 977 464 1062 546 c 0,11,12
 1151 631 1151 631 1177 754 c 0,13,14
 1186 794 1186 794 1186 831 c 0,15,16
 1186 905 1186 905 1150 962 c 0,17,0
 1100 1044 1100 1044 988 1044 c 128,-1,1
1676 1215 m 1,18,-1
 1682 1208 l 1,19,-1
 1478 1040 l 1,20,21
 1508 957 1508 957 1508 860 c 0,22,23
 1508 810 1508 810 1500 756 c 0,24,25
 1476 599 1476 599 1378 472 c 1,26,-1
 1510 305 l 1,27,-1
 1501 298 l 1,28,-1
 1172 190 l 1,29,-1
 1122 254 l 1,30,31
 979 180 979 180 812 180 c 128,-1,32
 645 180 645 180 531 260 c 1,33,-1
 467 206 l 1,34,-1
 184 314 l 1,35,-1
 178 321 l 1,36,-1
 372 480 l 1,37,38
 346 559 346 559 346 651 c 0,39,40
 346 702 346 702 354 758 c 0,41,42
 377 912 377 912 478 1041 c 1,43,-1
 347 1209 l 1,44,-1
 355 1216 l 1,45,-1
 682 1323 l 1,46,-1
 736 1256 l 1,47,48
 876 1328 876 1328 1039 1328 c 128,-1,49
 1202 1328 1202 1328 1311 1255 c 1,50,-1
 1394 1323 l 1,51,-1
 1676 1215 l 1,18,-1
EndSplineSet
Validated: 1
EndChar

StartChar: yen
Encoding: 165 165 101
Width: 1270
GlyphClass: 2
Flags: W
HStem: -20 21G<471 527.316> 94 140<321 495 845 1019> 294 140<363 488 983 1061> 1510 20G<668.605 725 1458.61 1515>
VStem: 259 325<735.942 950.58>
DStem2: 75.361 -20 395.636 -20 0.207912 0.978148<954.357 1434.43> 865.783 -20 1185.54 -20 0.207912 0.978148<786.056 1434.34>
LayerCount: 2
Fore
SplineSet
481 -20 m 1,0,-1
 471 -20 l 1,1,-1
 495 94 l 1,2,-1
 230 94 l 1,3,-1
 232 104 l 1,4,-1
 321 234 l 1,5,-1
 525 234 l 1,6,-1
 537 294 l 1,7,-1
 272 294 l 1,8,-1
 275 304 l 1,9,-1
 363 434 l 1,10,-1
 488 434 l 1,11,12
 421 466 421 466 372 520 c 0,13,14
 259 650 259 650 259 801 c 0,15,16
 259 845 259 845 269 891 c 2,17,-1
 374 1383 l 1,18,-1
 715 1530 l 1,19,-1
 725 1530 l 1,20,-1
 588 885 l 2,21,22
 584 865 584 865 584 847 c 0,23,24
 584 787 584 787 628 735 c 0,25,26
 678 677 678 677 779 677 c 128,-1,27
 880 677 880 677 959.5 736 c 128,-1,28
 1039 795 1039 795 1058 885 c 2,29,-1
 1164 1383 l 1,30,-1
 1505 1530 l 1,31,-1
 1515 1530 l 1,32,-1
 1379 891 l 2,33,34
 1325 637 1325 637 1165 523 c 0,35,36
 1083 464 1083 464 983 434 c 1,37,-1
 1152 434 l 1,38,-1
 1150 424 l 1,39,-1
 1061 294 l 1,40,-1
 857 294 l 1,41,-1
 845 234 l 1,42,-1
 1110 234 l 1,43,-1
 1108 224 l 1,44,-1
 1019 94 l 1,45,-1
 745 94 l 1,46,-1
 481 -20 l 1,0,-1
EndSplineSet
Validated: 1
EndChar

StartChar: brokenbar
Encoding: 166 166 102
Width: 690
GlyphClass: 2
Flags: W
VStem: 167 676
DStem2: 167 -200 437.643 -200 0.207912 0.978148<183.04 806.688 1194.09 1825.98>
LayerCount: 2
Fore
SplineSet
167 -200 m 1,0,-1
 335 589 l 1,1,-1
 622 713 l 1,2,-1
 632 713 l 1,3,-1
 464 -76 l 1,4,-1
 177 -200 l 1,5,-1
 167 -200 l 1,0,-1
833 1710 m 1,6,-1
 843 1710 l 1,7,-1
 674 913 l 1,8,-1
 388 789 l 1,9,-1
 378 789 l 1,10,-1
 547 1586 l 1,11,-1
 833 1710 l 1,6,-1
EndSplineSet
Validated: 1
EndChar

StartChar: section
Encoding: 167 167 103
Width: 1127
GlyphClass: 2
Flags: W
HStem: -20 225<523.862 718.952> 1305 225<729.048 924.138>
VStem: 263 283<678.764 826.993> 426 282<1146.37 1280.7> 740 282<229.3 363.634> 902 283<683.007 831.236>
LayerCount: 2
Fore
SplineSet
584 -20 m 0,0,1
 402 -20 402 -20 317 77 c 0,2,3
 252 151 252 151 246 250 c 1,4,-1
 509 364 l 1,5,-1
 519 364 l 1,6,7
 512 331 512 331 512 304 c 0,8,9
 512 273 512 273 522 252 c 0,10,11
 544 205 544 205 614 205 c 0,12,13
 662 205 662 205 696 228 c 128,-1,14
 730 251 730 251 738 293 c 0,15,16
 740 302 740 302 740 309 c 0,17,18
 740 354 740 354 681 370 c 0,19,20
 645 380 645 380 605 384 c 0,21,22
 426 402 426 402 332 504 c 0,23,24
 263 579 263 579 263 689 c 0,25,26
 263 715 263 715 267 742 c 0,27,28
 286 871 286 871 364 957 c 1,29,-1
 593 829 l 1,30,31
 557 797 557 797 548 758 c 0,32,33
 546 748 546 748 546 739 c 0,34,35
 546 697 546 697 591 676 c 0,36,37
 624 661 624 661 708 652 c 0,38,39
 844 638 844 638 938 551 c 0,40,41
 1022 473 1022 473 1022 351 c 0,42,43
 1022 330 1022 330 1019 308 c 0,44,45
 998 153 998 153 882 68 c 0,46,47
 761 -20 761 -20 584 -20 c 0,0,1
864 1530 m 0,48,49
 1046 1530 1046 1530 1131 1433 c 0,50,51
 1196 1359 1196 1359 1202 1260 c 1,52,-1
 939 1146 l 1,53,-1
 929 1146 l 1,54,55
 936 1179 936 1179 936 1206 c 0,56,57
 936 1237 936 1237 926 1258 c 0,58,59
 904 1305 904 1305 834 1305 c 0,60,61
 786 1305 786 1305 752 1282 c 128,-1,62
 718 1259 718 1259 710 1217 c 0,63,64
 708 1208 708 1208 708 1201 c 0,65,66
 708 1156 708 1156 767 1140 c 0,67,68
 803 1130 803 1130 843 1126 c 0,69,70
 1022 1108 1022 1108 1116 1006 c 0,71,72
 1185 931 1185 931 1185 821 c 0,73,74
 1185 795 1185 795 1181 768 c 0,75,76
 1162 639 1162 639 1084 553 c 1,77,-1
 855 681 l 1,78,79
 891 713 891 713 900 752 c 0,80,81
 902 762 902 762 902 771 c 0,82,83
 902 813 902 813 857 834 c 0,84,85
 824 849 824 849 740 858 c 0,86,87
 604 872 604 872 510 959 c 0,88,89
 426 1037 426 1037 426 1159 c 0,90,91
 426 1180 426 1180 429 1202 c 0,92,93
 450 1357 450 1357 566 1442 c 0,94,95
 687 1530 687 1530 864 1530 c 0,48,49
EndSplineSet
Validated: 1
EndChar

StartChar: dieresis
Encoding: 168 168 104
Width: 690
GlyphClass: 2
Flags: W
HStem: 1210 297<383.468 545.489 722.984 883.99>
VStem: 315 300<1278.5 1438.97> 653 300<1278.5 1437.11>
LayerCount: 2
Fore
SplineSet
834 1507 m 128,-1,1
 894 1507 894 1507 928 1463 c 0,2,3
 952 1432 952 1432 953 1391 c 0,4,5
 953 1374 953 1374 949 1358 c 0,6,7
 936 1298 936 1298 884 1254 c 128,-1,8
 832 1210 832 1210 771 1210 c 128,-1,9
 710 1210 710 1210 677 1254 c 0,10,11
 653 1286 653 1286 653 1325 c 0,12,13
 653 1341 653 1341 657 1358 c 0,14,15
 669 1417 669 1417 722 1462 c 0,16,0
 774 1507 774 1507 834 1507 c 128,-1,1
495.5 1507 m 128,-1,18
 556 1507 556 1507 590 1463 c 0,19,20
 615 1431 615 1431 615 1391 c 0,21,22
 615 1376 615 1376 611 1358 c 0,23,24
 598 1298 598 1298 545.5 1254 c 128,-1,25
 493 1210 493 1210 433 1210 c 0,26,27
 372 1210 372 1210 339 1254 c 0,28,29
 315 1286 315 1286 315 1325 c 0,30,31
 315 1341 315 1341 319 1358 c 0,32,33
 332 1419 332 1419 383 1462 c 0,34,17
 435 1507 435 1507 495.5 1507 c 128,-1,18
EndSplineSet
Validated: 1
EndChar

StartChar: copyright
Encoding: 169 169 105
Width: 1340
GlyphClass: 2
Flags: W
HStem: 386 52<604.584 925.646> 544 191<757.838 933.365> 1168 190<821.307 995.553> 1478 52<824.632 1143.39>
VStem: 302 59<686.575 1015.56> 542 203<750.363 1001.75> 1386 59<900.437 1234>
DStem2: 455.75 386 655.813 386 0.207912 0.978148<466.284 838.741>
LayerCount: 2
Fore
SplineSet
754 386 m 0,0,1
 528 386 528 386 398 549 c 0,2,3
 302 669 302 669 302 841 c 0,4,5
 302 890 302 890 310 943 c 0,6,7
 345 1183 345 1183 555 1362 c 0,8,9
 752 1530 752 1530 993 1530 c 0,10,11
 1219 1530 1219 1530 1349 1367 c 0,12,13
 1445 1247 1445 1247 1445 1075 c 0,14,15
 1445 1026 1445 1026 1437 973 c 0,16,17
 1402 733 1402 733 1192 554 c 0,18,19
 994 386 994 386 754 386 c 0,0,1
983 1478 m 0,20,21
 783 1478 783 1478 603 1330 c 0,22,23
 421 1181 421 1181 373 953 c 0,24,25
 361 897 361 897 361 843 c 0,26,27
 361 704 361 704 442 587 c 0,28,29
 545 438 545 438 764 438 c 0,30,31
 964 438 964 438 1144 586 c 0,32,33
 1326 735 1326 735 1374 963 c 0,34,35
 1386 1022 1386 1022 1386 1077 c 0,36,37
 1386 1216 1386 1216 1308 1329 c 0,38,39
 1205 1478 1205 1478 983 1478 c 0,20,21
956 1358 m 0,40,41
 1089 1358 1089 1358 1156 1277 c 0,42,43
 1212 1210 1212 1210 1215 1114 c 1,44,-1
 1011 1040 l 1,45,-1
 1001 1040 l 1,46,47
 1007 1067 1007 1067 1007 1087 c 0,48,49
 1007 1120 1007 1120 992 1140 c 0,50,51
 971 1168 971 1168 924 1168 c 0,52,53
 878 1168 878 1168 846 1146 c 0,54,55
 813 1124 813 1124 805 1088 c 2,56,-1
 747 815 l 2,57,58
 745 808 745 808 745 801 c 0,59,60
 745 777 745 777 765 758 c 0,61,62
 788 735 788 735 834 735 c 0,63,64
 904 735 904 735 939 786 c 1,65,-1
 1156 873 l 1,66,-1
 1166 873 l 1,67,-1
 1155 825 l 2,68,69
 1124 693 1124 693 1032 624 c 0,70,71
 926 544 926 544 802 544 c 128,-1,72
 678 544 678 544 600 623 c 0,73,74
 542 682 542 682 542 765 c 0,75,76
 542 792 542 792 548 820 c 2,77,-1
 604 1083 l 2,78,79
 631 1210 631 1210 725 1280 c 0,80,81
 831 1358 831 1358 956 1358 c 0,40,41
EndSplineSet
Validated: 1
EndChar

StartChar: ordfeminine
Encoding: 170 170 106
Width: 581
GlyphClass: 2
Flags: W
HStem: 733 180<295 626> 969 146<456.725 587.616> 1239 106<456.722 606.49> 1406 164<541 647.488>
VStem: 295 154<1125.12 1227.49> 649 192<1243.95 1405.44>
LayerCount: 2
Fore
SplineSet
295 913 m 1,0,-1
 745 913 l 1,1,-1
 743 903 l 1,2,-1
 626 733 l 1,3,-1
 176 733 l 1,4,-1
 178 743 l 1,5,-1
 295 913 l 1,0,-1
450 1177 m 0,6,7
 449 1171 449 1171 449 1165 c 0,8,9
 449 1146 449 1146 463 1132 c 0,10,11
 480 1115 480 1115 519.5 1115 c 128,-1,12
 559 1115 559 1115 585 1133 c 0,13,14
 608 1149 608 1149 614 1176 c 0,15,16
 615 1183 615 1183 615 1189 c 0,17,18
 615 1208 615 1208 600 1222 c 0,19,20
 580 1239 580 1239 544 1239 c 0,21,22
 515 1239 515 1239 488 1225 c 0,23,24
 457 1208 457 1208 450 1177 c 0,6,7
577 969 m 1,25,-1
 567 969 l 1,26,-1
 570 983 l 1,27,28
 531 969 531 969 496 969 c 0,29,30
 405 969 405 969 346 1022 c 0,31,32
 295 1070 295 1070 295 1136 c 0,33,34
 295 1147 295 1147 296 1158 c 0,35,36
 307 1256 307 1256 398 1305 c 0,37,38
 469 1345 469 1345 549 1345 c 0,39,40
 606 1345 606 1345 646 1335 c 1,41,42
 649 1348 649 1348 649 1358 c 0,43,44
 649 1406 649 1406 593 1406 c 2,45,-1
 445 1406 l 1,46,-1
 447 1416 l 1,47,-1
 541 1570 l 1,48,-1
 628 1570 l 2,49,50
 734 1570 734 1570 796 1504 c 0,51,52
 841 1456 841 1456 841 1389 c 0,53,54
 841 1366 841 1366 836 1340 c 2,55,-1
 772 1040 l 1,56,-1
 577 969 l 1,25,-1
EndSplineSet
Validated: 1
EndChar

StartChar: guillemotleft
Encoding: 171 171 107
Width: 1292
GlyphClass: 2
Flags: W
DStem2: 563 731 270 755 0.35398 -0.935253<0 402.274> 270 755 563 731 0.62602 0.779807<164.709 643.749> 1044 731 751 755 0.35398 -0.935253<0 402.274> 751 755 1044 731 0.62602 0.779807<164.709 643.749>
LayerCount: 2
Fore
SplineSet
751 755 m 1,0,-1
 1154 1257 l 1,1,-1
 1164 1257 l 1,2,-1
 1375 1145 l 1,3,-1
 1044 731 l 1,4,-1
 1187 355 l 1,5,-1
 951 253 l 1,6,-1
 941 253 l 1,7,-1
 751 755 l 1,0,-1
270 755 m 1,8,-1
 673 1257 l 1,9,-1
 683 1257 l 1,10,-1
 894 1145 l 1,11,-1
 563 731 l 1,12,-1
 706 355 l 1,13,-1
 470 253 l 1,14,-1
 460 253 l 1,15,-1
 270 755 l 1,8,-1
EndSplineSet
Validated: 1
EndChar

StartChar: logicalnot
Encoding: 172 172 108
Width: 1240
GlyphClass: 2
Flags: W
HStem: 620 270<424 891>
VStem: 709 246<358 604>
LayerCount: 2
Fore
SplineSet
424 890 m 1,0,-1
 1319 890 l 1,1,-1
 1317 880 l 1,2,-1
 955 358 l 1,3,-1
 709 358 l 1,4,-1
 891 620 l 1,5,-1
 242 620 l 1,6,-1
 244 630 l 1,7,-1
 424 890 l 1,0,-1
EndSplineSet
Validated: 1
EndChar

StartChar: uni00AD
Encoding: 173 173 109
Width: 1240
GlyphClass: 2
Flags: W
HStem: 620 270<424 1137>
LayerCount: 2
Fore
SplineSet
424 890 m 1,0,-1
 1319 890 l 1,1,-1
 1317 880 l 1,2,-1
 1137 620 l 1,3,-1
 242 620 l 1,4,-1
 244 630 l 1,5,-1
 424 890 l 1,0,-1
EndSplineSet
Validated: 1
EndChar

StartChar: registered
Encoding: 174 174 110
Width: 1340
GlyphClass: 2
Flags: W
HStem: 386 52<604.584 925.646> 1164 191<860 991.339> 1478 52<824.632 1143.39>
VStem: 302 59<686.575 1015.56> 1007 199<998.91 1134.31> 1386 59<900.437 1234>
DStem2: 479.566 386 679.624 386 0.207912 0.978148<283.889 442.363 638.692 836.977>
LayerCount: 2
Fore
SplineSet
754 386 m 0,0,1
 528 386 528 386 398 549 c 0,2,3
 302 669 302 669 302 841 c 0,4,5
 302 890 302 890 310 943 c 0,6,7
 345 1183 345 1183 555 1362 c 0,8,9
 752 1530 752 1530 993 1530 c 0,10,11
 1219 1530 1219 1530 1349 1367 c 0,12,13
 1445 1247 1445 1247 1445 1075 c 0,14,15
 1445 1026 1445 1026 1437 973 c 0,16,17
 1402 733 1402 733 1192 554 c 0,18,19
 994 386 994 386 754 386 c 0,0,1
983 1478 m 0,20,21
 783 1478 783 1478 603 1330 c 0,22,23
 421 1181 421 1181 373 953 c 0,24,25
 361 897 361 897 361 843 c 0,26,27
 361 704 361 704 442 587 c 0,28,29
 545 438 545 438 764 438 c 0,30,31
 964 438 964 438 1144 586 c 0,32,33
 1326 735 1326 735 1374 963 c 0,34,35
 1386 1022 1386 1022 1386 1077 c 0,36,37
 1386 1216 1386 1216 1308 1329 c 0,38,39
 1205 1478 1205 1478 983 1478 c 0,20,21
524 548 m 1,40,-1
 514 548 l 1,41,-1
 670 1278 l 1,42,-1
 860 1355 l 1,43,-1
 959 1355 l 2,44,45
 1087 1355 1087 1355 1153 1270 c 0,46,47
 1206 1203 1206 1203 1206 1110 c 0,48,49
 1206 1082 1206 1082 1201 1052 c 0,50,51
 1182 933 1182 933 1076 863 c 0,52,53
 1053 848 1053 848 1026 836 c 1,54,-1
 1141 613 l 1,55,-1
 961 548 l 1,56,-1
 951 548 l 1,57,-1
 837 778 l 1,58,-1
 763 778 l 1,59,-1
 730 623 l 1,60,-1
 524 548 l 1,40,-1
804 970 m 1,61,-1
 890 970 l 2,62,63
 935 970 935 970 966 999.5 c 128,-1,64
 997 1029 997 1029 1005 1067 c 0,65,66
 1007 1077 1007 1077 1007 1087 c 0,67,68
 1007 1113 1007 1113 992 1135 c 0,69,70
 971 1164 971 1164 931 1164 c 2,71,-1
 845 1164 l 1,72,-1
 804 970 l 1,61,-1
EndSplineSet
Validated: 1
EndChar

StartChar: macron
Encoding: 175 175 111
Width: 680
GlyphClass: 2
Flags: W
HStem: 1288 190<430 838>
VStem: 304 660
LayerCount: 2
Fore
SplineSet
430 1478 m 1,0,-1
 964 1478 l 1,1,-1
 962 1468 l 1,2,-1
 838 1288 l 1,3,-1
 304 1288 l 1,4,-1
 306 1298 l 1,5,-1
 430 1478 l 1,0,-1
EndSplineSet
Validated: 1
EndChar

StartChar: degree
Encoding: 176 176 112
Width: 730
GlyphClass: 2
Flags: W
HStem: 895 188<512.837 696.658> 1383 187<558.075 741.679>
VStem: 287 207<1126.91 1315.35> 760 207<1149.65 1339.09>
LayerCount: 2
Fore
SplineSet
660 1383 m 128,-1,1
 605 1383 605 1383 559 1340 c 128,-1,2
 513 1297 513 1297 499 1233 c 0,3,4
 494 1212 494 1212 494 1193 c 0,5,6
 494 1155 494 1155 513 1126 c 0,7,8
 541 1083 541 1083 596 1083 c 128,-1,9
 651 1083 651 1083 696 1126 c 128,-1,10
 741 1169 741 1169 755 1233 c 0,11,12
 760 1255 760 1255 760 1274 c 0,13,14
 760 1311 760 1311 742 1340 c 0,15,0
 715 1383 715 1383 660 1383 c 128,-1,1
684 1570 m 0,16,17
 835 1570 835 1570 910 1471 c 0,18,19
 967 1397 967 1397 967 1295 c 0,20,21
 967 1265 967 1265 962 1232 c 0,22,23
 939 1085 939 1085 828 994 c 0,24,25
 709 895 709 895 570 895 c 0,26,27
 419 895 419 895 344 994 c 0,28,29
 287 1069 287 1069 287 1170 c 0,30,31
 287 1200 287 1200 292 1233 c 0,32,33
 315 1380 315 1380 426 1471 c 0,34,35
 546 1570 546 1570 684 1570 c 0,16,17
EndSplineSet
Validated: 1
EndChar

StartChar: plusminus
Encoding: 177 177 113
Width: 1240
GlyphClass: 2
Flags: W
HStem: 154 270<325 1038> 828 270<468 661 988 1181>
DStem2: 517.446 154 787.876 154 0.207912 0.978148<489.698 689.118 1021.21 1220.83>
LayerCount: 2
Fore
SplineSet
325 424 m 1,0,-1
 1220 424 l 1,1,-1
 1218 414 l 1,2,-1
 1038 154 l 1,3,-1
 143 154 l 1,4,-1
 145 164 l 1,5,-1
 325 424 l 1,0,-1
1058 1473 m 1,6,-1
 1068 1473 l 1,7,-1
 988 1098 l 1,8,-1
 1363 1098 l 1,9,-1
 1361 1088 l 1,10,-1
 1181 828 l 1,11,-1
 931 828 l 1,12,-1
 878 578 l 1,13,-1
 591 453 l 1,14,-1
 581 453 l 1,15,-1
 661 828 l 1,16,-1
 286 828 l 1,17,-1
 288 838 l 1,18,-1
 468 1098 l 1,19,-1
 718 1098 l 1,20,-1
 772 1348 l 1,21,-1
 1058 1473 l 1,6,-1
EndSplineSet
Validated: 1
EndChar

StartChar: uni00B2
Encoding: 178 178 114
Width: 671
GlyphClass: 2
Flags: W
HStem: 764 191<600 731> 1380 190<530.569 700.068>
VStem: 308 201<1223.36 1357.79> 713 212<1218.9 1356.4>
LayerCount: 2
Fore
SplineSet
662 1570 m 128,-1,1
 798 1570 798 1570 870 1486 c 0,2,3
 924 1423 924 1423 925 1344 c 0,4,5
 925 1318 925 1318 919 1289 c 0,6,7
 883 1122 883 1122 705 1017 c 2,8,-1
 600 955 l 1,9,-1
 844 955 l 1,10,-1
 842 945 l 1,11,-1
 731 764 l 1,12,-1
 192 764 l 1,13,-1
 195 774 l 1,14,-1
 320 966 l 1,15,-1
 570 1134 l 2,16,17
 696 1219 696 1219 711 1288 c 0,18,19
 713 1299 713 1299 713 1309 c 0,20,21
 713 1338 713 1338 694 1357 c 0,22,23
 671 1380 671 1380 626 1380 c 0,24,25
 579 1380 579 1380 548 1353 c 0,26,27
 517 1327 517 1327 511 1299 c 0,28,29
 509 1290 509 1290 509 1281 c 0,30,31
 509 1256 509 1256 524 1234 c 1,32,-1
 336 1165 l 1,33,-1
 326 1165 l 1,34,35
 308 1204 308 1204 308 1253 c 0,36,37
 308 1283 308 1283 315 1318 c 0,38,39
 336 1419 336 1419 424 1489 c 0,40,0
 526 1570 526 1570 662 1570 c 128,-1,1
EndSplineSet
Validated: 1
EndChar

StartChar: uni00B3
Encoding: 179 179 115
Width: 661
GlyphClass: 2
Flags: W
HStem: 753 191<454.75 628.253> 1100 21G<462.197 504> 1369 191<497 589>
VStem: 653 200<970.812 1088.53>
LayerCount: 2
Fore
SplineSet
497 1560 m 1,0,-1
 956 1560 l 1,1,-1
 720 1270 l 1,2,3
 777 1249 777 1249 811 1207 c 0,4,5
 853 1152 853 1152 853 1075 c 0,6,7
 853 1051 853 1051 849 1026 c 0,8,9
 832 911 832 911 734 833 c 0,10,11
 633 753 633 753 496 753 c 0,12,13
 364 753 364 753 296 829 c 0,14,15
 248 883 248 883 248 970 c 0,16,17
 248 978 248 978 248 987 c 1,18,-1
 443 1066 l 1,19,-1
 453 1066 l 1,20,21
 448 1043 448 1043 448 1024 c 0,22,23
 448 944 448 944 531 944 c 0,24,25
 578 944 578 944 612 972 c 0,26,27
 644 999 644 999 651 1034 c 0,28,29
 653 1045 653 1045 653 1054 c 0,30,31
 653 1074 653 1074 643 1089 c 0,32,33
 622 1120 622 1120 577 1120 c 128,-1,34
 532 1120 532 1120 476 1100 c 1,35,-1
 427 1171 l 1,36,-1
 589 1369 l 1,37,-1
 376 1369 l 1,38,-1
 378 1379 l 1,39,-1
 497 1560 l 1,0,-1
EndSplineSet
Validated: 1
EndChar

StartChar: acute
Encoding: 180 180 116
Width: 401
GlyphClass: 2
Flags: W
HStem: 1160 410
VStem: 296 389
DStem2: 296 1250 478 1160 0.541289 0.840837<22.8392 380.573>
LayerCount: 2
Fore
SplineSet
512 1570 m 1,0,-1
 685 1478 l 1,1,-1
 478 1160 l 1,2,-1
 468 1160 l 1,3,-1
 296 1250 l 1,4,-1
 502 1570 l 1,5,-1
 512 1570 l 1,0,-1
EndSplineSet
Validated: 1
EndChar

StartChar: uni00B5
Encoding: 181 181 117
Width: 1230
GlyphClass: 2
Flags: W
HStem: -430 21G<49 105.232> -20 282<553.512 807.979> 1100 20G<621.768 678 1271.77 1328>
DStem2: 49 -430 348.667 -430 0.207912 0.978148<203.387 530.533 886.21 1443.52> 698.87 -430 998.94 -430 0.207912 0.978148<746.373 1443.54>
LayerCount: 2
Fore
SplineSet
59 -430 m 1,0,-1
 49 -430 l 1,1,-1
 349 982 l 1,2,-1
 668 1120 l 1,3,-1
 678 1120 l 1,4,-1
 526 406 l 2,5,6
 522 390 522 390 522 375 c 0,7,8
 522 332 522 332 554 302 c 0,9,10
 596 262 596 262 671 262 c 128,-1,11
 746 262 746 262 804.5 302.5 c 128,-1,12
 863 343 863 343 876 405 c 2,13,-1
 999 982 l 1,14,-1
 1318 1120 l 1,15,-1
 1328 1120 l 1,16,-1
 1176 403 l 2,17,18
 1132 196 1132 196 1002 101 c 0,19,20
 836 -20 836 -20 641 -20 c 0,21,22
 509 -20 509 -20 446 28 c 1,23,-1
 378 -292 l 1,24,-1
 59 -430 l 1,0,-1
EndSplineSet
Validated: 1
EndChar

StartChar: paragraph
Encoding: 182 182 118
Width: 1220
GlyphClass: 2
Flags: W
HStem: -20 21G<736 792.538> 1510 20G<783.5 988>
DStem2: 736 -20 855.947 -20 0.207912 0.978148<78.1001 481.499> 939.445 -20 1055.75 -20 0.207912 0.978148<174.466 1189.41>
LayerCount: 2
Fore
SplineSet
736 -20 m 1,0,-1
 836 451 l 1,1,2
 758 428 758 428 686 428 c 0,3,4
 492 428 492 428 380 562 c 0,5,6
 290 670 290 670 290 803 c 0,7,8
 290 848 290 848 300 896 c 2,9,-1
 336 1062 l 2,10,11
 386 1292 386 1292 517 1396 c 0,12,13
 686 1530 686 1530 881 1530 c 0,14,15
 1095 1530 1095 1530 1208 1404 c 0,16,17
 1301 1300 1301 1300 1301 1172 c 0,18,19
 1301 1133 1301 1133 1292 1092 c 2,20,-1
 1087 127 l 1,21,-1
 959 72 l 1,22,-1
 1187 1144 l 1,23,-1
 1095 1106 l 1,24,-1
 867 32 l 1,25,-1
 746 -20 l 1,26,-1
 736 -20 l 1,0,-1
EndSplineSet
Validated: 1
EndChar

StartChar: periodcentered
Encoding: 183 183 119
Width: 420
GlyphClass: 2
Flags: W
HStem: 573 365<282.097 458.323>
VStem: 186 369<668.75 842.936>
LayerCount: 2
Fore
SplineSet
409 938 m 0,0,1
 485 938 485 938 526 885 c 0,2,3
 555 847 555 847 555 796 c 0,4,5
 555 777 555 777 551 756 c 0,6,7
 535 681 535 681 470.5 627 c 128,-1,8
 406 573 406 573 332 573 c 0,9,10
 256 573 256 573 216 627 c 0,11,12
 186 666 186 666 186 716 c 0,13,14
 186 735 186 735 190 755 c 0,15,16
 206 831 206 831 270 884 c 0,17,18
 334 938 334 938 409 938 c 0,0,1
EndSplineSet
Validated: 1
EndChar

StartChar: cedilla
Encoding: 184 184 120
Width: 440
GlyphClass: 2
Flags: W
HStem: -410 410 -20 20G<136 294.5>
VStem: 172 199<-200.312 -79.297>
LayerCount: 2
Fore
SplineSet
-57 -410 m 1,0,-1
 -55 -400 l 1,1,-1
 69 -220 l 1,2,3
 158 -204 158 -204 171 -145 c 0,4,5
 172 -139 172 -139 172 -133 c 0,6,7
 172 -97 172 -97 120 -76 c 1,8,-1
 136 0 l 1,9,-1
 299 0 l 1,10,-1
 290 -40 l 1,11,12
 371 -82 371 -82 371 -166 c 0,13,14
 371 -176 371 -176 370 -187 c 0,15,16
 346 -410 346 -410 -57 -410 c 1,0,-1
EndSplineSet
Validated: 1
EndChar

StartChar: uni00B9
Encoding: 185 185 121
Width: 412
GlyphClass: 2
Flags: W
VStem: 294 392
DStem2: 313 756 513.058 756 0.207912 0.978148<118.27 549.945>
LayerCount: 2
Fore
SplineSet
676 1570 m 1,0,-1
 686 1570 l 1,1,-1
 529 831 l 1,2,-1
 323 756 l 1,3,-1
 313 756 l 1,4,-1
 427 1294 l 1,5,-1
 294 1242 l 1,6,-1
 334 1432 l 1,7,-1
 676 1570 l 1,0,-1
EndSplineSet
Validated: 1
EndChar

StartChar: ordmasculine
Encoding: 186 186 122
Width: 594
GlyphClass: 2
Flags: W
HStem: 733 180<295 639> 961 180<499.494 614.286> 1390 180<526.51 652.686>
VStem: 298 194<1146.87 1363.2> 660 194<1167.29 1386.12>
LayerCount: 2
Fore
SplineSet
295 913 m 1,0,-1
 758 913 l 1,1,-1
 756 903 l 1,2,-1
 639 733 l 1,3,-1
 176 733 l 1,4,-1
 178 743 l 1,5,-1
 295 913 l 1,0,-1
601.5 1390 m 128,-1,7
 571 1390 571 1390 550 1375 c 128,-1,8
 529 1360 529 1360 525 1341 c 2,9,-1
 493 1190 l 2,10,11
 492 1186 492 1186 492 1182 c 0,12,13
 492 1167 492 1167 504 1156 c 0,14,15
 520 1141 520 1141 550.5 1141 c 128,-1,16
 581 1141 581 1141 604 1156 c 0,17,18
 623 1171 623 1171 627 1190 c 2,19,-1
 659 1341 l 2,20,21
 660 1345 660 1345 660 1349 c 0,22,23
 660 1364 660 1364 648 1376 c 0,24,6
 632 1390 632 1390 601.5 1390 c 128,-1,7
632 1570 m 128,-1,26
 738 1570 738 1570 804 1503 c 0,27,28
 854 1452 854 1452 854 1384 c 0,29,30
 854 1363 854 1363 849 1340 c 2,31,-1
 817 1191 l 2,32,33
 794 1082 794 1082 716 1026 c 0,34,35
 626 961 626 961 521 961 c 0,36,37
 412 961 412 961 350 1028 c 0,38,39
 298 1083 298 1083 298 1150 c 0,40,41
 298 1170 298 1170 303 1191 c 2,42,-1
 335 1340 l 2,43,44
 358 1449 358 1449 436 1505 c 0,45,25
 526 1570 526 1570 632 1570 c 128,-1,26
EndSplineSet
Validated: 1
EndChar

StartChar: guillemotright
Encoding: 187 187 123
Width: 1292
GlyphClass: 2
Flags: W
DStem2: 238 365 459 253 0.62602 0.779807<51.0121 530.053> 672 1257 426 1155 0.35398 -0.935253<8.31667 410.591> 719 365 940 253 0.62602 0.779807<51.0121 530.053> 1153 1257 907 1155 0.35398 -0.935253<8.31667 410.591>
LayerCount: 2
Fore
SplineSet
862 755 m 1,0,-1
 459 253 l 1,1,-1
 449 253 l 1,2,-1
 238 365 l 1,3,-1
 569 779 l 1,4,-1
 426 1155 l 1,5,-1
 662 1257 l 1,6,-1
 672 1257 l 1,7,-1
 862 755 l 1,0,-1
1343 755 m 1,8,-1
 940 253 l 1,9,-1
 930 253 l 1,10,-1
 719 365 l 1,11,-1
 1050 779 l 1,12,-1
 907 1155 l 1,13,-1
 1143 1257 l 1,14,-1
 1153 1257 l 1,15,-1
 1343 755 l 1,8,-1
EndSplineSet
Validated: 1
EndChar

StartChar: onequarter
Encoding: 188 188 124
Width: 1543
GlyphClass: 2
Flags: W
HStem: -20 21G<450.301 511.57 1154 1218.93> 1510 20G<697.58 757 1237.42 1298.52>
DStem2: 227.558 -20 427.617 -20 0.207912 0.978148<870.713 1302.6> 275 93 498 -20 0.561853 0.827237<31.8155 1737.11>
LayerCount: 2
Fore
SplineSet
747 1530 m 1,0,-1
 757 1530 l 1,1,-1
 600 791 l 1,2,-1
 394 716 l 1,3,-1
 384 716 l 1,4,-1
 499 1254 l 1,5,-1
 365 1202 l 1,6,-1
 406 1392 l 1,7,-1
 747 1530 l 1,0,-1
488 -20 m 1,8,-1
 275 93 l 1,9,-1
 1251 1530 l 1,10,-1
 1261 1530 l 1,11,-1
 1473 1417 l 1,12,-1
 498 -20 l 1,13,-1
 488 -20 l 1,8,-1
1141 333 m 1,14,-1
 1229 333 l 1,15,-1
 1254 450 l 1,16,-1
 1141 333 l 1,14,-1
1164 -20 m 1,17,-1
 1154 -20 l 1,18,-1
 1188 142 l 1,19,-1
 800 142 l 1,20,-1
 802 152 l 1,21,-1
 1303 708 l 1,22,-1
 1517 794 l 1,23,-1
 1527 794 l 1,24,-1
 1429 333 l 1,25,-1
 1504 333 l 1,26,-1
 1502 323 l 1,27,-1
 1386 133 l 1,28,-1
 1370 55 l 1,29,-1
 1164 -20 l 1,17,-1
EndSplineSet
Validated: 1
EndChar

StartChar: onehalf
Encoding: 189 189 125
Width: 1677
GlyphClass: 2
Flags: W
HStem: -20 21G<450.301 511.57> 0 191<1364 1495> 616 190<1294.57 1464.07> 1510 20G<697.58 757 1237.42 1298.52>
VStem: 1072 201<459.364 593.789> 1477 212<454.904 592.404>
DStem2: 227.558 -20 427.617 -20 0.207912 0.978148<870.713 1302.6> 275 93 498 -20 0.561853 0.827237<31.8155 1737.11>
LayerCount: 2
Fore
SplineSet
1426 806 m 128,-1,1
 1562 806 1562 806 1634 722 c 0,2,3
 1688 659 1688 659 1689 580 c 0,4,5
 1689 554 1689 554 1683 525 c 0,6,7
 1647 358 1647 358 1469 253 c 2,8,-1
 1364 191 l 1,9,-1
 1608 191 l 1,10,-1
 1606 181 l 1,11,-1
 1495 0 l 1,12,-1
 956 0 l 1,13,-1
 959 10 l 1,14,-1
 1084 202 l 1,15,-1
 1334 370 l 2,16,17
 1460 455 1460 455 1475 524 c 0,18,19
 1477 535 1477 535 1477 545 c 0,20,21
 1477 574 1477 574 1458 593 c 0,22,23
 1435 616 1435 616 1390 616 c 0,24,25
 1343 616 1343 616 1312 589 c 0,26,27
 1281 563 1281 563 1275 535 c 0,28,29
 1273 526 1273 526 1273 517 c 0,30,31
 1273 492 1273 492 1288 470 c 1,32,-1
 1100 401 l 1,33,-1
 1090 401 l 1,34,35
 1072 440 1072 440 1072 489 c 0,36,37
 1072 519 1072 519 1079 554 c 0,38,39
 1100 655 1100 655 1188 725 c 0,40,0
 1290 806 1290 806 1426 806 c 128,-1,1
747 1530 m 1,41,-1
 757 1530 l 1,42,-1
 600 791 l 1,43,-1
 394 716 l 1,44,-1
 384 716 l 1,45,-1
 499 1254 l 1,46,-1
 365 1202 l 1,47,-1
 406 1392 l 1,48,-1
 747 1530 l 1,41,-1
488 -20 m 1,49,-1
 275 93 l 1,50,-1
 1251 1530 l 1,51,-1
 1261 1530 l 1,52,-1
 1473 1417 l 1,53,-1
 498 -20 l 1,54,-1
 488 -20 l 1,49,-1
EndSplineSet
Validated: 1
EndChar

StartChar: threequarters
Encoding: 190 190 126
Width: 1780
GlyphClass: 2
Flags: W
HStem: -20 21G<687.301 748.57 1391 1455.93> 723 191<527.75 701.253> 1339 191<570 662>
VStem: 726 200<940.812 1058.53>
DStem2: 512 93 735 -20 0.561853 0.827237<31.8155 1737.11>
LayerCount: 2
Fore
SplineSet
570 1530 m 1,0,-1
 1029 1530 l 1,1,-1
 793 1240 l 1,2,3
 850 1219 850 1219 884 1177 c 0,4,5
 926 1122 926 1122 926 1045 c 0,6,7
 926 1021 926 1021 922 996 c 0,8,9
 905 881 905 881 807 803 c 0,10,11
 706 723 706 723 569 723 c 0,12,13
 437 723 437 723 369 799 c 0,14,15
 321 853 321 853 321 940 c 0,16,17
 321 948 321 948 321 957 c 1,18,-1
 516 1036 l 1,19,-1
 526 1036 l 1,20,21
 521 1013 521 1013 521 994 c 0,22,23
 521 914 521 914 604 914 c 0,24,25
 651 914 651 914 685 942 c 0,26,27
 717 969 717 969 724 1004 c 0,28,29
 726 1015 726 1015 726 1024 c 0,30,31
 726 1044 726 1044 716 1059 c 0,32,33
 695 1090 695 1090 650 1090 c 128,-1,34
 605 1090 605 1090 549 1070 c 1,35,-1
 500 1141 l 1,36,-1
 662 1339 l 1,37,-1
 449 1339 l 1,38,-1
 451 1349 l 1,39,-1
 570 1530 l 1,0,-1
725 -20 m 1,40,-1
 512 93 l 1,41,-1
 1488 1530 l 1,42,-1
 1498 1530 l 1,43,-1
 1710 1417 l 1,44,-1
 735 -20 l 1,45,-1
 725 -20 l 1,40,-1
1378 333 m 1,46,-1
 1466 333 l 1,47,-1
 1491 450 l 1,48,-1
 1378 333 l 1,46,-1
1401 -20 m 1,49,-1
 1391 -20 l 1,50,-1
 1425 142 l 1,51,-1
 1037 142 l 1,52,-1
 1039 152 l 1,53,-1
 1540 708 l 1,54,-1
 1754 794 l 1,55,-1
 1764 794 l 1,56,-1
 1666 333 l 1,57,-1
 1741 333 l 1,58,-1
 1739 323 l 1,59,-1
 1623 133 l 1,60,-1
 1607 55 l 1,61,-1
 1401 -20 l 1,49,-1
EndSplineSet
Validated: 1
EndChar

StartChar: questiondown
Encoding: 191 191 127
Width: 1348
GlyphClass: 2
Flags: W
HStem: -431 300<502.616 816.647> 755 365<815.677 991.903>
VStem: 121 326<-77.5126 166.871> 939 322<-12.8506 183.704>
LayerCount: 2
Fore
SplineSet
942 1120 m 0,0,1
 1018 1120 1018 1120 1058 1066 c 0,2,3
 1088 1027 1088 1027 1088 977 c 0,4,5
 1088 958 1088 958 1084 938 c 0,6,7
 1068 862 1068 862 1004 809 c 0,8,9
 940 755 940 755 865 755 c 0,10,11
 789 755 789 755 748 808 c 0,12,13
 719 846 719 846 719 897 c 0,14,15
 719 916 719 916 723 937 c 0,16,17
 739 1012 739 1012 803.5 1066 c 128,-1,18
 868 1120 868 1120 942 1120 c 0,0,1
613 -431 m 0,19,20
 369 -431 369 -431 227 -274 c 0,21,22
 121 -158 121 -158 121 7 c 0,23,24
 121 43 121 43 127 81 c 0,25,26
 177 424 177 424 594 529 c 0,27,28
 655 544 655 544 664 594 c 1,29,-1
 1009 741 l 1,30,-1
 1019 741 l 1,31,32
 948 408 948 408 683 304 c 0,33,34
 486 227 486 227 455 92 c 0,35,36
 447 60 447 60 447 33 c 0,37,38
 447 -22 447 -22 475 -59 c 0,39,40
 527 -131 527 -131 647 -131 c 0,41,42
 768 -131 768 -131 842 -68 c 0,43,44
 922 0 922 0 937 84 c 0,45,46
 939 99 939 99 939 114 c 0,47,48
 939 146 939 146 927 172 c 1,49,-1
 1223 299 l 1,50,-1
 1233 299 l 1,51,52
 1261 236 1261 236 1261 154 c 0,53,54
 1261 106 1261 106 1249 51 c 0,55,56
 1203 -162 1203 -162 1055 -281 c 0,57,58
 867 -431 867 -431 613 -431 c 0,19,20
EndSplineSet
Validated: 1
EndChar

StartChar: endash
Encoding: 8211 8211 128
Width: 1240
GlyphClass: 2
Flags: W
HStem: 620 270<424 1137>
LayerCount: 2
Fore
SplineSet
424 890 m 1,0,-1
 1319 890 l 1,1,-1
 1317 880 l 1,2,-1
 1137 620 l 1,3,-1
 242 620 l 1,4,-1
 244 630 l 1,5,-1
 424 890 l 1,0,-1
EndSplineSet
Validated: 1
EndChar

StartChar: emdash
Encoding: 8212 8212 129
Width: 1570
GlyphClass: 2
Flags: W
HStem: 620 270<424 1467>
LayerCount: 2
Fore
SplineSet
424 890 m 1,0,-1
 1649 890 l 1,1,-1
 1647 880 l 1,2,-1
 1467 620 l 1,3,-1
 242 620 l 1,4,-1
 244 630 l 1,5,-1
 424 890 l 1,0,-1
EndSplineSet
Validated: 1
EndChar

StartChar: afii00208
Encoding: 8213 8213 130
Width: 1570
GlyphClass: 2
Flags: W
HStem: 620 270<424 1467>
LayerCount: 2
Fore
SplineSet
424 890 m 1,0,-1
 1649 890 l 1,1,-1
 1647 880 l 1,2,-1
 1467 620 l 1,3,-1
 242 620 l 1,4,-1
 244 630 l 1,5,-1
 424 890 l 1,0,-1
EndSplineSet
Validated: 1
EndChar

StartChar: quoteleft
Encoding: 8216 8216 131
Width: 496
GlyphClass: 2
Flags: W
HStem: 934 666
VStem: 281 282<1124.94 1316.96>
LayerCount: 2
Fore
SplineSet
706 1600 m 1,0,-1
 712 1593 l 1,1,2
 601 1444 601 1444 569 1296 c 0,3,4
 563 1269 563 1269 563 1244 c 0,5,6
 563 1126 563 1126 691 1060 c 1,7,-1
 396 934 l 1,8,-1
 386 934 l 1,9,10
 281 1014 281 1014 281 1142 c 0,11,12
 281 1178 281 1178 289 1218 c 0,13,14
 343 1475 343 1475 706 1600 c 1,0,-1
EndSplineSet
Validated: 1
EndChar

StartChar: quoteright
Encoding: 8217 8217 132
Width: 496
GlyphClass: 2
Flags: W
HStem: 934 666
VStem: 471 283<1217.04 1409.06>
LayerCount: 2
Fore
SplineSet
343 1474 m 1,0,-1
 639 1600 l 1,1,-1
 649 1600 l 1,2,3
 754 1520 754 1520 754 1392 c 0,4,5
 754 1356 754 1356 746 1316 c 0,6,7
 691 1059 691 1059 329 934 c 1,8,-1
 323 941 l 1,9,10
 434 1090 434 1090 465 1238 c 0,11,12
 471 1265 471 1265 471 1290 c 0,13,14
 471 1408 471 1408 343 1474 c 1,0,-1
EndSplineSet
Validated: 1
EndChar

StartChar: quotesinglbase
Encoding: 8218 8218 133
Width: 496
GlyphClass: 2
Flags: W
HStem: -328 666
VStem: 203 283<-42.5039 147.058>
LayerCount: 2
Fore
SplineSet
75 212 m 1,0,-1
 371 338 l 1,1,-1
 381 338 l 1,2,3
 486 259 486 259 486 132 c 0,4,5
 486 95 486 95 477 54 c 0,6,7
 422 -203 422 -203 60 -328 c 1,8,-1
 55 -321 l 1,9,10
 166 -172 166 -172 197 -24 c 0,11,12
 203 3 203 3 203 28 c 0,13,14
 203 146 203 146 75 212 c 1,0,-1
EndSplineSet
Validated: 1
EndChar

StartChar: quotereversed
Encoding: 8219 8219 134
Width: 496
GlyphClass: 2
Flags: W
HStem: 934 666<475.621 537>
VStem: 302 243<1092.94 1320.7>
LayerCount: 2
Fore
SplineSet
779 1474 m 1,0,1
 590 1394 590 1394 557 1238 c 0,2,3
 545 1179 545 1179 545 1120 c 0,4,5
 545 1031 545 1031 573 941 c 1,6,-1
 565 934 l 1,7,8
 302 1040 302 1040 302 1242 c 0,9,10
 302 1277 302 1277 310 1316 c 0,11,12
 349 1498 349 1498 527 1600 c 1,13,-1
 537 1600 l 1,14,-1
 779 1474 l 1,0,1
EndSplineSet
Validated: 1
EndChar

StartChar: quotedblleft
Encoding: 8220 8220 135
Width: 914
GlyphClass: 2
Flags: W
HStem: 934 666
VStem: 281 282<1124.94 1316.96> 699 282<1124.94 1316.96>
LayerCount: 2
Fore
SplineSet
706 1600 m 1,0,-1
 712 1593 l 1,1,2
 601 1444 601 1444 569 1296 c 0,3,4
 563 1269 563 1269 563 1244 c 0,5,6
 563 1126 563 1126 691 1060 c 1,7,-1
 396 934 l 1,8,-1
 386 934 l 1,9,10
 281 1014 281 1014 281 1142 c 0,11,12
 281 1178 281 1178 289 1218 c 0,13,14
 343 1475 343 1475 706 1600 c 1,0,-1
1124 1600 m 1,15,-1
 1130 1593 l 1,16,17
 1019 1444 1019 1444 987 1296 c 0,18,19
 981 1269 981 1269 981 1244 c 0,20,21
 981 1126 981 1126 1109 1060 c 1,22,-1
 814 934 l 1,23,-1
 804 934 l 1,24,25
 699 1014 699 1014 699 1142 c 0,26,27
 699 1178 699 1178 707 1218 c 0,28,29
 761 1475 761 1475 1124 1600 c 1,15,-1
EndSplineSet
Validated: 1
EndChar

StartChar: quotedblright
Encoding: 8221 8221 136
Width: 914
GlyphClass: 2
Flags: W
HStem: 934 666
VStem: 471 283<1217.04 1409.06> 889 283<1217.04 1409.06>
LayerCount: 2
Fore
SplineSet
761 1474 m 1,0,-1
 1057 1600 l 1,1,-1
 1067 1600 l 1,2,3
 1172 1520 1172 1520 1172 1392 c 0,4,5
 1172 1356 1172 1356 1164 1316 c 0,6,7
 1109 1059 1109 1059 747 934 c 1,8,-1
 741 941 l 1,9,10
 852 1090 852 1090 883 1238 c 0,11,12
 889 1265 889 1265 889 1290 c 0,13,14
 889 1408 889 1408 761 1474 c 1,0,-1
343 1474 m 1,15,-1
 639 1600 l 1,16,-1
 649 1600 l 1,17,18
 754 1520 754 1520 754 1392 c 0,19,20
 754 1356 754 1356 746 1316 c 0,21,22
 691 1059 691 1059 329 934 c 1,23,-1
 323 941 l 1,24,25
 434 1090 434 1090 465 1238 c 0,26,27
 471 1265 471 1265 471 1290 c 0,28,29
 471 1408 471 1408 343 1474 c 1,15,-1
EndSplineSet
Validated: 1
EndChar

StartChar: quotedblbase
Encoding: 8222 8222 137
Width: 914
GlyphClass: 2
Flags: W
HStem: -328 666
VStem: 203 283<-42.5039 147.058> 621 283<-42.5039 147.058>
LayerCount: 2
Fore
SplineSet
493 212 m 1,0,-1
 789 338 l 1,1,-1
 799 338 l 1,2,3
 904 259 904 259 904 132 c 0,4,5
 904 95 904 95 895 54 c 0,6,7
 840 -203 840 -203 478 -328 c 1,8,-1
 473 -321 l 1,9,10
 584 -172 584 -172 615 -24 c 0,11,12
 621 3 621 3 621 28 c 0,13,14
 621 146 621 146 493 212 c 1,0,-1
75 212 m 1,15,-1
 371 338 l 1,16,-1
 381 338 l 1,17,18
 486 259 486 259 486 132 c 0,19,20
 486 95 486 95 477 54 c 0,21,22
 422 -203 422 -203 60 -328 c 1,23,-1
 55 -321 l 1,24,25
 166 -172 166 -172 197 -24 c 0,26,27
 203 3 203 3 203 28 c 0,28,29
 203 146 203 146 75 212 c 1,15,-1
EndSplineSet
Validated: 1
EndChar

StartChar: dagger
Encoding: 8224 8224 138
Width: 1254
GlyphClass: 2
Flags: W
HStem: -20 21G<463 519.395> 914 300<507 661 1045 1199> 1510 20G<1055.92 1112>
DStem2: 463 -20 782.754 -20 0.207912 0.978148<216.765 954.756 1328.04 1433.32>
LayerCount: 2
Fore
SplineSet
473 -20 m 1,0,-1
 463 -20 l 1,1,-1
 661 914 l 1,2,-1
 304 914 l 1,3,-1
 306 924 l 1,4,-1
 507 1214 l 1,5,-1
 725 1214 l 1,6,-1
 761 1382 l 1,7,-1
 1102 1530 l 1,8,-1
 1112 1530 l 1,9,-1
 1045 1214 l 1,10,-1
 1402 1214 l 1,11,-1
 1400 1204 l 1,12,-1
 1199 914 l 1,13,-1
 981 914 l 1,14,-1
 814 127 l 1,15,-1
 473 -20 l 1,0,-1
EndSplineSet
Validated: 1
EndChar

StartChar: daggerdbl
Encoding: 8225 8225 139
Width: 1254
GlyphClass: 2
Flags: W
HStem: -20 21G<463 519.081> 296 300<376 530 914 1068> 914 300<507 661 1045 1199> 1510 20G<1055.92 1112>
DStem2: 463 -20 782.542 -20 0.207912 0.978148<217.743 323.025 696.307 954.756 1328.04 1433.32>
LayerCount: 2
Fore
SplineSet
473 -20 m 1,0,-1
 463 -20 l 1,1,-1
 530 296 l 1,2,-1
 173 296 l 1,3,-1
 175 306 l 1,4,-1
 376 596 l 1,5,-1
 594 596 l 1,6,-1
 661 914 l 1,7,-1
 304 914 l 1,8,-1
 306 924 l 1,9,-1
 507 1214 l 1,10,-1
 725 1214 l 1,11,-1
 761 1382 l 1,12,-1
 1102 1530 l 1,13,-1
 1112 1530 l 1,14,-1
 1045 1214 l 1,15,-1
 1402 1214 l 1,16,-1
 1400 1204 l 1,17,-1
 1199 914 l 1,18,-1
 981 914 l 1,19,-1
 914 596 l 1,20,-1
 1271 596 l 1,21,-1
 1269 586 l 1,22,-1
 1068 296 l 1,23,-1
 850 296 l 1,24,-1
 814 128 l 1,25,-1
 473 -20 l 1,0,-1
EndSplineSet
Validated: 1
EndChar

StartChar: bullet
Encoding: 8226 8226 140
Width: 950
GlyphClass: 2
Flags: W
HStem: 380 742<511.298 762.701>
LayerCount: 2
Fore
SplineSet
576 380 m 0,0,1
 408 380 408 380 326 489 c 0,2,3
 263 573 263 573 263 690 c 0,4,5
 263 720 263 720 267 752 c 0,6,7
 287 912 287 912 410 1013 c 0,8,9
 542 1122 542 1122 694 1122 c 0,10,11
 860 1122 860 1122 944 1013 c 0,12,13
 1007 931 1007 931 1007 811 c 0,14,15
 1007 781 1007 781 1003 750 c 0,16,17
 985 592 985 592 860 489 c 0,18,19
 729 380 729 380 576 380 c 0,0,1
EndSplineSet
Validated: 1
EndChar

StartChar: ellipsis
Encoding: 8230 8230 141
Width: 1292
GlyphClass: 2
Flags: W
HStem: -20 365<156.097 332.323 592.097 768.323 1028.1 1204.32>
LayerCount: 2
Fore
SplineSet
1078 -20 m 0,0,1
 1002 -20 1002 -20 962 34 c 0,2,3
 932 73 932 73 932 123 c 0,4,5
 932 142 932 142 936 162 c 0,6,7
 952 238 952 238 1016 291 c 0,8,9
 1080 345 1080 345 1155 345 c 0,10,11
 1231 345 1231 345 1272 292 c 0,12,13
 1301 254 1301 254 1301 203 c 0,14,15
 1301 184 1301 184 1297 163 c 0,16,17
 1281 88 1281 88 1216.5 34 c 128,-1,18
 1152 -20 1152 -20 1078 -20 c 0,0,1
642 -20 m 0,19,20
 566 -20 566 -20 526 34 c 0,21,22
 496 73 496 73 496 123 c 0,23,24
 496 142 496 142 500 162 c 0,25,26
 516 238 516 238 580 291 c 0,27,28
 644 345 644 345 719 345 c 0,29,30
 795 345 795 345 836 292 c 0,31,32
 865 254 865 254 865 203 c 0,33,34
 865 184 865 184 861 163 c 0,35,36
 845 88 845 88 780.5 34 c 128,-1,37
 716 -20 716 -20 642 -20 c 0,19,20
206 -20 m 0,38,39
 130 -20 130 -20 90 34 c 0,40,41
 60 73 60 73 60 123 c 0,42,43
 60 142 60 142 64 162 c 0,44,45
 80 238 80 238 144 291 c 0,46,47
 208 345 208 345 283 345 c 0,48,49
 359 345 359 345 400 292 c 0,50,51
 429 254 429 254 429 203 c 0,52,53
 429 184 429 184 425 163 c 0,54,55
 409 88 409 88 344.5 34 c 128,-1,56
 280 -20 280 -20 206 -20 c 0,38,39
EndSplineSet
Validated: 1
EndChar

StartChar: perthousand
Encoding: 8240 8240 142
Width: 2624
GlyphClass: 2
Flags: W
HStem: -20 206<1320.99 1513.76 2098.99 2291.76> 517 205<1371.28 1565.61 2149.28 2343.61> 788 206<603.995 796.295> 1325 205<654.278 848.606>
VStem: 353 226<1043 1245.33> 870 227<1072.11 1290.33> 1070 226<235.002 437.333> 1587 227<264.108 482.327> 1848 226<235.002 437.333> 2365 227<264.108 482.327>
DStem2: 484 93 707 -20 0.561853 0.827237<31.8155 1737.11>
LayerCount: 2
Fore
SplineSet
2186 186 m 128,-1,1
 2246 186 2246 186 2296 234 c 0,2,3
 2345 282 2345 282 2360 352 c 0,4,5
 2365 375 2365 375 2365 397 c 0,6,7
 2365 438 2365 438 2346 470 c 0,8,9
 2317 517 2317 517 2257 517 c 128,-1,10
 2197 517 2197 517 2145.5 469.5 c 128,-1,11
 2094 422 2094 422 2079 352 c 0,12,13
 2074 329 2074 329 2074 308 c 0,14,15
 2074 266 2074 266 2095 234 c 0,16,0
 2126 186 2126 186 2186 186 c 128,-1,1
2161 -20 m 0,17,18
 1993 -20 1993 -20 1911 89 c 0,19,20
 1848 173 1848 173 1848 290 c 0,21,22
 1848 320 1848 320 1852 352 c 0,23,24
 1872 512 1872 512 1995 613 c 0,25,26
 2127 722 2127 722 2279 722 c 0,27,28
 2445 722 2445 722 2529 613 c 0,29,30
 2592 531 2592 531 2592 411 c 0,31,32
 2592 381 2592 381 2588 350 c 0,33,34
 2570 192 2570 192 2445 89 c 0,35,36
 2314 -20 2314 -20 2161 -20 c 0,17,18
1408 186 m 128,-1,38
 1468 186 1468 186 1518 234 c 0,39,40
 1567 282 1567 282 1582 352 c 0,41,42
 1587 375 1587 375 1587 397 c 0,43,44
 1587 438 1587 438 1568 470 c 0,45,46
 1539 517 1539 517 1479 517 c 128,-1,47
 1419 517 1419 517 1367.5 469.5 c 128,-1,48
 1316 422 1316 422 1301 352 c 0,49,50
 1296 329 1296 329 1296 308 c 0,51,52
 1296 266 1296 266 1317 234 c 0,53,37
 1348 186 1348 186 1408 186 c 128,-1,38
1383 -20 m 0,54,55
 1215 -20 1215 -20 1133 89 c 0,56,57
 1070 173 1070 173 1070 290 c 0,58,59
 1070 320 1070 320 1074 352 c 0,60,61
 1094 512 1094 512 1217 613 c 0,62,63
 1349 722 1349 722 1501 722 c 0,64,65
 1667 722 1667 722 1751 613 c 0,66,67
 1814 531 1814 531 1814 411 c 0,68,69
 1814 381 1814 381 1810 350 c 0,70,71
 1792 192 1792 192 1667 89 c 0,72,73
 1536 -20 1536 -20 1383 -20 c 0,54,55
697 -20 m 1,74,-1
 484 93 l 1,75,-1
 1460 1530 l 1,76,-1
 1470 1530 l 1,77,-1
 1682 1417 l 1,78,-1
 707 -20 l 1,79,-1
 697 -20 l 1,74,-1
762 1325 m 128,-1,81
 702 1325 702 1325 650.5 1277.5 c 128,-1,82
 599 1230 599 1230 584 1160 c 0,83,84
 579 1137 579 1137 579 1116 c 0,85,86
 579 1074 579 1074 600 1042 c 0,87,88
 631 994 631 994 691 994 c 128,-1,89
 751 994 751 994 800 1042 c 0,90,91
 850 1090 850 1090 865 1160 c 0,92,93
 870 1183 870 1183 870 1205 c 0,94,95
 870 1246 870 1246 851 1278 c 0,96,80
 822 1325 822 1325 762 1325 c 128,-1,81
784 1530 m 0,97,98
 950 1530 950 1530 1034 1421 c 0,99,100
 1097 1339 1097 1339 1097 1219 c 0,101,102
 1097 1189 1097 1189 1093 1158 c 0,103,104
 1075 1000 1075 1000 950 897 c 0,105,106
 819 788 819 788 666 788 c 0,107,108
 498 788 498 788 416 897 c 0,109,110
 353 981 353 981 353 1098 c 0,111,112
 353 1128 353 1128 357 1160 c 0,113,114
 377 1320 377 1320 500 1421 c 0,115,116
 632 1530 632 1530 784 1530 c 0,97,98
EndSplineSet
Validated: 1
EndChar

StartChar: minute
Encoding: 8242 8242 143
Width: 450
GlyphClass: 2
Flags: W
HStem: 1140 460
VStem: 287 452
LayerCount: 2
Fore
SplineSet
543 1600 m 1,0,-1
 553 1600 l 1,1,-1
 739 1501 l 1,2,-1
 430 1140 l 1,3,-1
 420 1140 l 1,4,-1
 287 1210 l 1,5,-1
 543 1600 l 1,0,-1
EndSplineSet
Validated: 1
EndChar

StartChar: second
Encoding: 8243 8243 144
Width: 770
GlyphClass: 2
Flags: W
HStem: 1140 460
LayerCount: 2
Fore
SplineSet
863 1600 m 1,0,-1
 873 1600 l 1,1,-1
 1059 1501 l 1,2,-1
 750 1140 l 1,3,-1
 740 1140 l 1,4,-1
 607 1210 l 1,5,-1
 863 1600 l 1,0,-1
543 1600 m 1,6,-1
 553 1600 l 1,7,-1
 739 1501 l 1,8,-1
 430 1140 l 1,9,-1
 420 1140 l 1,10,-1
 287 1210 l 1,11,-1
 543 1600 l 1,6,-1
EndSplineSet
Validated: 1
EndChar

StartChar: guilsinglleft
Encoding: 8249 8249 145
Width: 811
GlyphClass: 2
Flags: W
VStem: 270 624
DStem2: 563 731 270 755 0.35398 -0.935253<0 402.274> 270 755 563 731 0.62602 0.779807<164.709 643.749>
LayerCount: 2
Fore
SplineSet
270 755 m 1,0,-1
 673 1257 l 1,1,-1
 683 1257 l 1,2,-1
 894 1145 l 1,3,-1
 563 731 l 1,4,-1
 706 355 l 1,5,-1
 470 253 l 1,6,-1
 460 253 l 1,7,-1
 270 755 l 1,0,-1
EndSplineSet
Validated: 1
EndChar

StartChar: guilsinglright
Encoding: 8250 8250 146
Width: 811
GlyphClass: 2
Flags: W
VStem: 238 624
DStem2: 238 365 459 253 0.62602 0.779807<51.0121 530.053> 672 1257 426 1155 0.35398 -0.935253<8.31667 410.591>
LayerCount: 2
Fore
SplineSet
862 755 m 1,0,-1
 459 253 l 1,1,-1
 449 253 l 1,2,-1
 238 365 l 1,3,-1
 569 779 l 1,4,-1
 426 1155 l 1,5,-1
 662 1257 l 1,6,-1
 672 1257 l 1,7,-1
 862 755 l 1,0,-1
EndSplineSet
Validated: 1
EndChar

StartChar: fraction
Encoding: 8260 8260 147
Width: 937
GlyphClass: 2
Flags: W
HStem: -20 21G<205.301 266.57> 1510 20G<992.416 1053.52>
DStem2: 30 93 253 -20 0.561853 0.827237<31.8155 1737.11>
LayerCount: 2
Fore
SplineSet
243 -20 m 1,0,-1
 30 93 l 1,1,-1
 1006 1530 l 1,2,-1
 1016 1530 l 1,3,-1
 1228 1417 l 1,4,-1
 253 -20 l 1,5,-1
 243 -20 l 1,0,-1
EndSplineSet
Validated: 1
EndChar

StartChar: Euro
Encoding: 8364 8364 148
Width: 1440
GlyphClass: 2
Flags: W
HStem: -20 300<678.257 992.281> 586 140<255 325 674 1034> 786 140<298 367 717 1076> 1228 302<860.656 1172.33>
VStem: 294 323<341.303 536.546>
LayerCount: 2
Fore
SplineSet
791 -20 m 128,-1,1
 556 -20 556 -20 407 127 c 0,2,3
 294 239 294 239 294 393 c 0,4,5
 294 441 294 441 305 494 c 2,6,-1
 325 586 l 1,7,-1
 165 586 l 1,8,-1
 167 596 l 1,9,-1
 255 726 l 1,10,-1
 354 726 l 1,11,-1
 367 786 l 1,12,-1
 207 786 l 1,13,-1
 209 796 l 1,14,-1
 298 926 l 1,15,-1
 397 926 l 1,16,-1
 416 1016 l 2,17,18
 469 1265 469 1265 630 1384 c 0,19,20
 827 1530 827 1530 1061 1530 c 0,21,22
 1310 1530 1310 1530 1442 1378 c 0,23,24
 1544 1259 1544 1259 1545 1112 c 1,25,-1
 1227 974 l 1,26,-1
 1217 974 l 1,27,28
 1227 1021 1227 1021 1227 1059 c 0,29,30
 1227 1135 1227 1135 1187 1172 c 0,31,32
 1127 1228 1127 1228 1025 1228 c 0,33,34
 925 1228 925 1228 839 1172 c 0,35,36
 758 1118 758 1118 739 1028 c 2,37,-1
 717 926 l 1,38,-1
 1167 926 l 1,39,-1
 1165 916 l 1,40,-1
 1076 786 l 1,41,-1
 687 786 l 1,42,-1
 674 726 l 1,43,-1
 1124 726 l 1,44,-1
 1122 716 l 1,45,-1
 1034 586 l 1,46,-1
 644 586 l 1,47,-1
 622 482 l 2,48,49
 617 460 617 460 617 441 c 0,50,51
 617 379 617 379 664 336 c 0,52,53
 724 280 724 280 827 280 c 128,-1,54
 930 280 930 280 1000 328 c 0,55,56
 1042 357 1042 357 1074 401 c 1,57,-1
 1439 558 l 1,58,-1
 1449 558 l 1,59,-1
 1437 502 l 2,60,61
 1383 251 1383 251 1221 128 c 0,62,0
 1026 -20 1026 -20 791 -20 c 128,-1,1
EndSplineSet
Validated: 1
EndChar

StartChar: afii61248
Encoding: 8453 8453 149
Width: 1714
GlyphClass: 2
Flags: W
HStem: -20 191<1261.54 1438.41> 603 192<1327.65 1504.61> 716 191<529.838 705.365> 1340 190<593.307 767.553>
VStem: 314 203<922.363 1173.75> 1046 203<187.349 437.75> 1517 203<337.25 587.55>
DStem2: 104.893 -20 304.956 -20 0.207912 0.978148<1057.2 1429.65> 418 93 641 -20 0.561853 0.827237<31.8155 1737.11> 993.334 -20 1193.4 -20 0.207912 0.978148<304.754 672.66> 1399.37 -20 1599.43 -20 0.207912 0.978148<200.161 571.027>
LayerCount: 2
Fore
SplineSet
728 1530 m 0,0,1
 861 1530 861 1530 928 1449 c 0,2,3
 984 1382 984 1382 987 1286 c 1,4,-1
 783 1212 l 1,5,-1
 773 1212 l 1,6,7
 779 1239 779 1239 779 1259 c 0,8,9
 779 1292 779 1292 764 1312 c 0,10,11
 743 1340 743 1340 696 1340 c 0,12,13
 650 1340 650 1340 618 1318 c 0,14,15
 585 1296 585 1296 577 1260 c 2,16,-1
 519 987 l 2,17,18
 517 980 517 980 517 973 c 0,19,20
 517 949 517 949 537 930 c 0,21,22
 560 907 560 907 606 907 c 0,23,24
 676 907 676 907 711 958 c 1,25,-1
 928 1045 l 1,26,-1
 938 1045 l 1,27,-1
 927 997 l 2,28,29
 896 865 896 865 804 796 c 0,30,31
 698 716 698 716 574 716 c 128,-1,32
 450 716 450 716 372 795 c 0,33,34
 314 854 314 854 314 937 c 0,35,36
 314 964 314 964 320 992 c 2,37,-1
 376 1255 l 2,38,39
 403 1382 403 1382 497 1452 c 0,40,41
 603 1530 603 1530 728 1530 c 0,0,1
631 -20 m 1,42,-1
 418 93 l 1,43,-1
 1394 1530 l 1,44,-1
 1404 1530 l 1,45,-1
 1616 1417 l 1,46,-1
 641 -20 l 1,47,-1
 631 -20 l 1,42,-1
1338 171 m 128,-1,49
 1382 171 1382 171 1418 195 c 0,50,51
 1450 218 1450 218 1457 251 c 2,52,-1
 1515 524 l 2,53,54
 1517 532 1517 532 1517 539 c 0,55,56
 1517 563 1517 563 1498 580 c 0,57,58
 1473 603 1473 603 1429 603 c 0,59,60
 1383 603 1383 603 1350 580 c 0,61,62
 1316 556 1316 556 1309 524 c 2,63,-1
 1251 251 l 2,64,65
 1249 244 1249 244 1249 237 c 0,66,67
 1249 213 1249 213 1269 194 c 0,68,48
 1294 171 1294 171 1338 171 c 128,-1,49
1307 -20 m 0,69,70
 1178 -20 1178 -20 1106 60 c 0,71,72
 1047 124 1047 124 1046 205 c 0,73,74
 1046 230 1046 230 1052 256 c 2,75,-1
 1108 519 l 2,76,77
 1136 649 1136 649 1232 718 c 0,78,79
 1340 795 1340 795 1462 795 c 0,80,81
 1591 795 1591 795 1662 716 c 0,82,83
 1720 651 1720 651 1720 571 c 0,84,85
 1720 546 1720 546 1714 519 c 2,86,-1
 1658 256 l 2,87,88
 1631 128 1631 128 1536 58 c 0,89,90
 1431 -20 1431 -20 1307 -20 c 0,69,70
EndSplineSet
Validated: 1
EndChar

StartChar: afii61289
Encoding: 8467 8467 150
Width: 1247
GlyphClass: 2
Flags: W
HStem: -20 236<632 800.645> 0 21G<110 490.364> 1510 20G<1129.5 1227>
LayerCount: 2
Fore
SplineSet
686 -20 m 0,0,1
 578 -20 578 -20 510 44 c 1,2,-1
 474 0 l 1,3,-1
 110 0 l 1,4,5
 306 162 306 162 444 325 c 1,6,7
 453 420 453 420 475 524 c 0,8,9
 509 686 509 686 595 865 c 0,10,11
 773 1240 773 1240 963 1423 c 0,12,13
 1074 1530 1074 1530 1185 1530 c 0,14,15
 1269 1530 1269 1530 1309 1480 c 0,16,17
 1341 1439 1341 1439 1341 1371 c 0,18,19
 1341 1331 1341 1331 1330 1281 c 0,20,21
 1310 1186 1310 1186 1250 1041 c 0,22,23
 1105 688 1105 688 734 272 c 1,24,25
 731 254 731 254 731 242 c 0,26,27
 731 216 731 216 745 216 c 0,28,29
 766 216 766 216 800 260 c 0,30,31
 821 286 821 286 839 319 c 1,32,-1
 1155 319 l 1,33,34
 1025 144 1025 144 910.5 62 c 128,-1,35
 796 -20 796 -20 686 -20 c 0,0,1
EndSplineSet
Validated: 1
EndChar

StartChar: trademark
Encoding: 8482 8482 151
Width: 1791
GlyphClass: 2
Flags: W
HStem: 1348 189<465 558 758 899 1159.24 1333.59 1566.02 1739.11>
VStem: 1751 204<1079.06 1331.53>
DStem2: 427 723 627.058 723 0.207912 0.978148<118.27 629.775> 825 723 1025.06 723 0.207912 0.978148<118.27 674.833> 1230 723 1430.06 723 0.207912 0.978148<118.27 568.701> 1635 723 1835.06 723 0.207912 0.978148<118.27 568.701>
LayerCount: 2
Fore
SplineSet
1645 723 m 1,0,-1
 1635 723 l 1,1,-1
 1749 1263 l 2,2,3
 1751 1272 1751 1272 1751 1280 c 0,4,5
 1751 1307 1751 1307 1733 1324 c 0,6,7
 1708 1348 1708 1348 1666 1348 c 128,-1,8
 1624 1348 1624 1348 1588 1323 c 128,-1,9
 1552 1298 1552 1298 1544 1263 c 2,10,-1
 1446 798 l 1,11,-1
 1240 723 l 1,12,-1
 1230 723 l 1,13,-1
 1344 1263 l 2,14,15
 1346 1272 1346 1272 1346 1280 c 0,16,17
 1346 1305 1346 1305 1328 1324 c 0,18,19
 1303 1348 1303 1348 1260 1348 c 128,-1,20
 1217 1348 1217 1348 1182 1324 c 0,21,22
 1147 1299 1147 1299 1139 1263 c 2,23,-1
 1041 798 l 1,24,-1
 835 723 l 1,25,-1
 825 723 l 1,26,-1
 939 1262 l 2,27,28
 965 1391 965 1391 1060 1460 c 0,29,30
 1166 1537 1166 1537 1286 1537 c 0,31,32
 1407 1537 1407 1537 1478 1469 c 1,33,34
 1578 1537 1578 1537 1700 1537 c 0,35,36
 1828 1537 1828 1537 1899 1458 c 0,37,38
 1955 1395 1955 1395 1955 1315 c 0,39,40
 1955 1289 1955 1289 1949 1262 c 2,41,-1
 1851 798 l 1,42,-1
 1645 723 l 1,0,-1
465 1530 m 1,43,-1
 1011 1530 l 1,44,-1
 1009 1520 l 1,45,-1
 899 1339 l 1,46,-1
 758 1339 l 1,47,-1
 643 798 l 1,48,-1
 437 723 l 1,49,-1
 427 723 l 1,50,-1
 558 1339 l 1,51,-1
 345 1339 l 1,52,-1
 347 1349 l 1,53,-1
 465 1530 l 1,43,-1
EndSplineSet
Validated: 1
EndChar

StartChar: uni2126
Encoding: 8486 8486 152
Width: 1450
GlyphClass: 2
Flags: W
HStem: 0 300<360 546 1091 1154> 1230 300<817.803 1132.1>
VStem: 297 318<520.597 719.488> 1194 325<966.432 1171.71>
DStem2: 160.336 0 479.563 0 0.207912 0.978148<701.502 1246.67> 969.563 0 1290.34 0 0.207912 0.978148<554.313 1092.67>
LayerCount: 2
Fore
SplineSet
688 0 m 1,0,-1
 160 0 l 1,1,-1
 162 10 l 1,2,-1
 360 300 l 1,3,-1
 546 300 l 1,4,5
 297 391 297 391 297 601 c 0,6,7
 297 643 297 643 307 690 c 2,8,-1
 378 1025 l 2,9,10
 430 1269 430 1269 590 1386 c 0,11,12
 788 1530 788 1530 1020 1530 c 0,13,14
 1270 1530 1270 1530 1409 1386 c 0,15,16
 1519 1272 1519 1272 1519 1122 c 0,17,18
 1519 1075 1519 1075 1508 1025 c 2,19,-1
 1437 690 l 2,20,21
 1376 400 1376 400 1091 300 c 1,22,-1
 1354 300 l 1,23,-1
 1352 290 l 1,24,-1
 1154 0 l 1,25,-1
 762 0 l 1,26,-1
 856 442 l 1,27,28
 1078 512 1078 512 1109 656 c 2,29,-1
 1189 1028 l 2,30,31
 1194 1050 1194 1050 1194 1070 c 0,32,33
 1194 1132 1194 1132 1149 1173 c 0,34,35
 1088 1230 1088 1230 986 1230 c 0,36,37
 880 1230 880 1230 798 1173 c 0,38,39
 718 1118 718 1118 699 1028 c 2,40,-1
 619 656 l 2,41,42
 615 637 615 637 615 620 c 0,43,44
 615 507 615 507 782 443 c 1,45,-1
 688 0 l 1,0,-1
EndSplineSet
Validated: 1
EndChar

StartChar: estimated
Encoding: 8494 8494 153
Width: 1241
GlyphClass: 2
Flags: W
HStem: -20 183<484.071 844.178> 491 189<538 990> 935 185<629.618 988.502>
LayerCount: 2
Fore
SplineSet
615 -20 m 0,0,1
 364 -20 364 -20 245 145 c 0,2,3
 162 260 162 260 162 412 c 0,4,5
 162 479 162 479 178 553 c 0,6,7
 231 802 231 802 420 960 c 0,8,9
 612 1120 612 1120 854 1120 c 0,10,11
 1097 1120 1097 1120 1214 974 c 0,12,13
 1306 858 1306 858 1306 679 c 0,14,15
 1306 593 1306 593 1285 491 c 1,16,-1
 497 491 l 1,17,-1
 444 239 l 1,18,19
 523 163 523 163 654 163 c 0,20,21
 862 163 862 163 1020 351 c 1,22,-1
 1163 255 l 1,23,24
 1003 85 1003 85 873 32.5 c 128,-1,25
 743 -20 743 -20 615 -20 c 0,0,1
990 680 m 1,26,-1
 1028 862 l 1,27,28
 946 935 946 935 816 935 c 0,29,30
 684 935 684 935 576 861 c 1,31,-1
 538 680 l 1,32,-1
 990 680 l 1,26,-1
EndSplineSet
Validated: 1
EndChar

StartChar: partialdiff
Encoding: 8706 8706 154
Width: 1325
GlyphClass: 2
Flags: W
HStem: -20 273<518.171 730.08> 823 260<742.537 985.899> 1257 273<781.982 1086.06>
VStem: 183 317<275.435 519.417> 1130 310<1024.77 1213.04>
LayerCount: 2
Fore
SplineSet
528 -20 m 0,0,1
 258 -20 258 -20 199 171 c 0,2,3
 183 223 183 223 183 285 c 0,4,5
 183 345 183 345 198 416 c 0,6,7
 253 673 253 673 450.5 878 c 128,-1,8
 648 1083 648 1083 920 1083 c 0,9,10
 1039 1083 1039 1083 1124 1024 c 1,11,12
 1130 1059 1130 1059 1130 1089 c 0,13,14
 1130 1138 1130 1138 1114 1173 c 0,15,16
 1075 1257 1075 1257 953 1257 c 0,17,18
 798 1257 798 1257 621 1132 c 1,19,-1
 687 1443 l 1,20,21
 851 1530 851 1530 1048 1530 c 0,22,23
 1365 1530 1365 1530 1426 1271 c 0,24,25
 1440 1213 1440 1213 1440 1145 c 0,26,27
 1440 1057 1440 1057 1417 950 c 0,28,29
 1335 563 1335 563 1090 272 c 0,30,31
 847 -20 847 -20 528 -20 c 0,0,1
1028 699 m 1,32,33
 1019 756 1019 756 982 788 c 0,34,35
 942 823 942 823 875 823 c 0,36,37
 766 823 766 823 660 706 c 0,38,39
 535 567 535 567 507 431 c 0,40,41
 500 396 500 396 500 367 c 0,42,43
 500 324 500 324 516 295 c 0,44,45
 539 253 539 253 599 253 c 0,46,47
 706 253 706 253 827 376 c 128,-1,48
 948 499 948 499 1028 699 c 1,32,33
EndSplineSet
Validated: 1
EndChar

StartChar: uni2206
Encoding: 8710 8710 155
Width: 1505
GlyphClass: 2
Flags: W
HStem: 0 300<524 1120> 1510 20G<1143.69 1203.92>
DStem2: 5 0 524 300 0.533902 0.845546<530.759 1381.63> 1200 1530 979 1019 0.192414 -0.981314<458.928 1191.62>
LayerCount: 2
Fore
SplineSet
5 0 m 1,0,-1
 889 1400 l 1,1,-1
 1190 1530 l 1,2,-1
 1200 1530 l 1,3,-1
 1500 0 l 1,4,-1
 5 0 l 1,0,-1
524 300 m 1,5,-1
 1120 300 l 1,6,-1
 979 1019 l 1,7,-1
 524 300 l 1,5,-1
EndSplineSet
Validated: 1
EndChar

StartChar: product
Encoding: 8719 8719 156
Width: 1440
GlyphClass: 2
Flags: W
HStem: -430 21G<69 125.395 869 925.395> 1210 300<749 1217>
DStem2: 69 -430 388.754 -430 0.207912 0.978148<216.765 1743.05> 869 -430 1188.75 -430 0.207912 0.978148<216.765 1676.52>
LayerCount: 2
Fore
SplineSet
79 -430 m 1,0,-1
 69 -430 l 1,1,-1
 454 1384 l 1,2,-1
 749 1510 l 1,3,-1
 1601 1510 l 1,4,-1
 1220 -283 l 1,5,-1
 879 -430 l 1,6,-1
 869 -430 l 1,7,-1
 1217 1210 l 1,8,-1
 737 1210 l 1,9,-1
 420 -283 l 1,10,-1
 79 -430 l 1,0,-1
EndSplineSet
Validated: 1
EndChar

StartChar: summation
Encoding: 8721 8721 157
Width: 1284
GlyphClass: 2
Flags: W
HStem: -410 300<572 951> 1210 300<815 1289>
DStem2: -27 -410 572 -110 0.591399 0.806379<596.162 1232.67> 815 1210 377 1427 0.359721 -0.93306<0 543.447>
LayerCount: 2
Fore
SplineSet
-27 -410 m 1,0,-1
 702 584 l 1,1,-1
 377 1427 l 1,2,-1
 571 1510 l 1,3,-1
 1489 1510 l 1,4,-1
 1487 1500 l 1,5,-1
 1289 1210 l 1,6,-1
 815 1210 l 1,7,-1
 1067 545 l 1,8,-1
 572 -110 l 1,9,-1
 1151 -110 l 1,10,-1
 1148 -120 l 1,11,-1
 951 -410 l 1,12,-1
 -27 -410 l 1,0,-1
EndSplineSet
Validated: 1
EndChar

StartChar: minus
Encoding: 8722 8722 158
Width: 1240
GlyphClass: 2
Flags: W
HStem: 620 270<424 1137>
LayerCount: 2
Fore
SplineSet
424 890 m 1,0,-1
 1319 890 l 1,1,-1
 1317 880 l 1,2,-1
 1137 620 l 1,3,-1
 242 620 l 1,4,-1
 244 630 l 1,5,-1
 424 890 l 1,0,-1
EndSplineSet
Validated: 1
EndChar

StartChar: uni2215
Encoding: 8725 8725 159
Width: 937
GlyphClass: 2
Flags: W
HStem: -20 21G<205.301 266.57> 1510 20G<992.416 1053.52>
DStem2: 30 93 253 -20 0.561853 0.827237<31.8155 1737.11>
LayerCount: 2
Fore
SplineSet
243 -20 m 1,0,-1
 30 93 l 1,1,-1
 1006 1530 l 1,2,-1
 1016 1530 l 1,3,-1
 1228 1417 l 1,4,-1
 253 -20 l 1,5,-1
 243 -20 l 1,0,-1
EndSplineSet
Validated: 1
EndChar

StartChar: uni2219
Encoding: 8729 8729 160
Width: 420
GlyphClass: 2
Flags: W
HStem: 573 365<282.097 458.323>
VStem: 186 369<668.75 842.936>
LayerCount: 2
Fore
SplineSet
409 938 m 0,0,1
 485 938 485 938 526 885 c 0,2,3
 555 847 555 847 555 796 c 0,4,5
 555 777 555 777 551 756 c 0,6,7
 535 681 535 681 470.5 627 c 128,-1,8
 406 573 406 573 332 573 c 0,9,10
 256 573 256 573 216 627 c 0,11,12
 186 666 186 666 186 716 c 0,13,14
 186 735 186 735 190 755 c 0,15,16
 206 831 206 831 270 884 c 0,17,18
 334 938 334 938 409 938 c 0,0,1
EndSplineSet
Validated: 1
EndChar

StartChar: radical
Encoding: 8730 8730 161
Width: 1119
GlyphClass: 2
Flags: W
HStem: -20 21G<296.505 356.508> 1510 20G<1149.64 1211.17>
DStem2: 513 480 603 106 0.526062 0.850446<0 1234.38>
LayerCount: 2
Fore
SplineSet
310 -20 m 1,0,-1
 300 -20 l 1,1,-1
 167 741 l 1,2,-1
 437 858 l 1,3,-1
 447 858 l 1,4,-1
 513 480 l 1,5,-1
 1162 1530 l 1,6,-1
 1172 1530 l 1,7,-1
 1409 1409 l 1,8,-1
 603 106 l 1,9,-1
 310 -20 l 1,0,-1
EndSplineSet
Validated: 1
EndChar

StartChar: infinity
Encoding: 8734 8734 162
Width: 1459
GlyphClass: 2
Flags: W
HStem: 380 206<513.995 707.235 1021.46 1214.76> 917 205<564.278 758.981 1071.81 1266.61>
VStem: 263 226<635.002 837.333> 780 217<662.74 839.314> 1288 227<664.108 882.327>
LayerCount: 2
Fore
SplineSet
1109 586 m 128,-1,1
 1169 586 1169 586 1219 634 c 0,2,3
 1268 682 1268 682 1283 752 c 0,4,5
 1288 775 1288 775 1288 797 c 0,6,7
 1288 838 1288 838 1269 870 c 0,8,9
 1240 917 1240 917 1180 917 c 128,-1,10
 1120 917 1120 917 1068.5 869.5 c 128,-1,11
 1017 822 1017 822 1002 752 c 0,12,13
 997 729 997 729 997 708 c 0,14,15
 997 666 997 666 1018 634 c 0,16,0
 1049 586 1049 586 1109 586 c 128,-1,1
601 586 m 128,-1,18
 661 586 661 586 711 634 c 0,19,20
 760 682 760 682 775 752 c 0,21,22
 780 775 780 775 780 797 c 0,23,24
 780 838 780 838 761 870 c 0,25,26
 732 917 732 917 672 917 c 128,-1,27
 612 917 612 917 560.5 869.5 c 128,-1,28
 509 822 509 822 494 752 c 0,29,30
 489 729 489 729 489 708 c 0,31,32
 489 666 489 666 510 634 c 0,33,17
 541 586 541 586 601 586 c 128,-1,18
694 1122 m 0,34,35
 850 1122 850 1122 934 1026 c 1,36,37
 1059 1122 1059 1122 1202 1122 c 0,38,39
 1368 1122 1368 1122 1452 1013 c 0,40,41
 1515 931 1515 931 1515 811 c 0,42,43
 1515 781 1515 781 1511 750 c 0,44,45
 1493 592 1493 592 1368 489 c 0,46,47
 1237 380 1237 380 1084 380 c 0,48,49
 926 380 926 380 844 476 c 1,50,51
 720 380 720 380 576 380 c 0,52,53
 408 380 408 380 326 489 c 0,54,55
 263 573 263 573 263 690 c 0,56,57
 263 720 263 720 267 752 c 0,58,59
 287 912 287 912 410 1013 c 0,60,61
 542 1122 542 1122 694 1122 c 0,34,35
EndSplineSet
Validated: 1
EndChar

StartChar: approxequal
Encoding: 8776 8776 163
Width: 1178
GlyphClass: 2
Flags: W
LayerCount: 2
Fore
SplineSet
1217 747 m 1,0,-1
 1227 747 l 1,1,2
 1125 265 1125 265 838 265 c 0,3,4
 682 265 682 265 588 416 c 0,5,6
 561 459 561 459 554 468 c 0,7,8
 545 479 545 479 533 479 c 0,9,10
 500 479 500 479 481 397 c 1,11,-1
 176 265 l 1,12,-1
 166 265 l 1,13,14
 268 747 268 747 555 747 c 0,15,16
 711 747 711 747 806 596 c 0,17,18
 833 553 833 553 840 544 c 0,19,20
 849 533 849 533 860 533 c 0,21,22
 893 533 893 533 912 615 c 1,23,-1
 1217 747 l 1,0,-1
1323 1247 m 1,24,-1
 1333 1247 l 1,25,26
 1231 765 1231 765 944 765 c 0,27,28
 788 765 788 765 694 916 c 0,29,30
 667 959 667 959 660 968 c 0,31,32
 651 979 651 979 639 979 c 0,33,34
 606 979 606 979 587 897 c 1,35,-1
 282 765 l 1,36,-1
 272 765 l 1,37,38
 374 1247 374 1247 661 1247 c 0,39,40
 817 1247 817 1247 912 1096 c 0,41,42
 939 1053 939 1053 946 1044 c 0,43,44
 955 1033 955 1033 966 1033 c 0,45,46
 999 1033 999 1033 1018 1115 c 1,47,-1
 1323 1247 l 1,24,-1
EndSplineSet
Validated: 1
EndChar

StartChar: notequal
Encoding: 8800 8800 164
Width: 1240
GlyphClass: 2
Flags: W
HStem: 390 270<375 448 617 631 800 1088> 850 270<473 760 930 943 1113 1186>
DStem2: 298 170 465 166 0.561828 0.827254<90.5163 266.27 687.392 822.097 1243.78 1420.36>
LayerCount: 2
Fore
SplineSet
473 1120 m 1,0,-1
 943 1120 l 1,1,-1
 1096 1345 l 1,2,-1
 1255 1345 l 1,3,-1
 1263 1341 l 1,4,-1
 1113 1120 l 1,5,-1
 1368 1120 l 1,6,-1
 1366 1110 l 1,7,-1
 1186 850 l 1,8,-1
 930 850 l 1,9,-1
 800 660 l 1,10,-1
 1270 660 l 1,11,-1
 1268 650 l 1,12,-1
 1088 390 l 1,13,-1
 617 390 l 1,14,-1
 465 166 l 1,15,-1
 306 166 l 1,16,-1
 298 170 l 1,17,-1
 448 390 l 1,18,-1
 193 390 l 1,19,-1
 195 400 l 1,20,-1
 375 660 l 1,21,-1
 631 660 l 1,22,-1
 760 850 l 1,23,-1
 291 850 l 1,24,-1
 293 860 l 1,25,-1
 473 1120 l 1,0,-1
EndSplineSet
Validated: 1
EndChar

StartChar: lessequal
Encoding: 8804 8804 165
Width: 1355
GlyphClass: 2
Flags: W
HStem: 154 270<325 1103>
DStem2: 804 910 282 806 0.933479 -0.358631<0 512.014> 452 1059 804 910 0.945892 0.324481<284.606 958.174>
LayerCount: 2
Fore
SplineSet
282 806 m 1,0,-1
 284 816 l 1,1,-1
 452 1059 l 1,2,-1
 1379 1377 l 1,3,-1
 1444 1136 l 1,4,-1
 1442 1126 l 1,5,-1
 804 910 l 1,6,-1
 1346 707 l 1,7,-1
 1343 697 l 1,8,-1
 1180 461 l 1,9,-1
 282 806 l 1,0,-1
325 424 m 1,10,-1
 1285 424 l 1,11,-1
 1283 414 l 1,12,-1
 1103 154 l 1,13,-1
 143 154 l 1,14,-1
 145 164 l 1,15,-1
 325 424 l 1,10,-1
EndSplineSet
Validated: 1
EndChar

StartChar: greaterequal
Encoding: 8805 8805 166
Width: 1355
GlyphClass: 2
Flags: W
HStem: 154 270<375 1153>
DStem2: 304 712 367 461 0.945892 0.324481<0 673.567> 566 1377 400 1131 0.933479 -0.358631<0 512.014>
LayerCount: 2
Fore
SplineSet
1464 1032 m 1,0,-1
 1462 1022 l 1,1,-1
 1294 779 l 1,2,-1
 367 461 l 1,3,-1
 302 702 l 1,4,-1
 304 712 l 1,5,-1
 942 928 l 1,6,-1
 400 1131 l 1,7,-1
 403 1141 l 1,8,-1
 566 1377 l 1,9,-1
 1464 1032 l 1,0,-1
375 424 m 1,10,-1
 1335 424 l 1,11,-1
 1333 414 l 1,12,-1
 1153 154 l 1,13,-1
 193 154 l 1,14,-1
 195 164 l 1,15,-1
 375 424 l 1,10,-1
EndSplineSet
Validated: 1
EndChar

StartChar: lozenge
Encoding: 9674 9674 167
Width: 1178
GlyphClass: 2
Flags: W
HStem: -20 21G<575.29 603.16> 1510 20G<896.399 923.176>
DStem2: 217 738 523 721 0.660649 0.750695<189.397 645.741> 672 415 585 -20 0.672237 0.740336<0 449.148>
LayerCount: 2
Fore
SplineSet
672 415 m 1,0,-1
 969 752 l 1,1,-1
 824 1064 l 1,2,-1
 523 721 l 1,3,-1
 672 415 l 1,0,-1
585 -20 m 1,4,-1
 217 738 l 1,5,-1
 914 1530 l 1,6,-1
 1276 741 l 1,7,-1
 585 -20 l 1,4,-1
EndSplineSet
Validated: 1
EndChar

StartChar: Oslash
Encoding: 216 216 168
Width: 1370
Flags: W
HStem: -20 300<614.751 910.316> 1229 301<781.466 1076.64>
VStem: 214 324<316 650.797> 1153 324<859.203 1194>
DStem2: 111.495 -40 431.045 -40 0.207912 0.978148<560.724 1288.81> 242 -36 371 -40 0.562139 0.827043<69.2077 181.894 534.195 1452.69 1805.37 1917.11> 921.045 -40 1241.49 -40 0.207912 0.978148<403.385 1131.43>
LayerCount: 2
Fore
SplineSet
371 -40 m 1,0,-1
 250 -40 l 1,1,-1
 242 -36 l 1,2,-1
 343 113 l 1,3,4
 335 120 335 120 328 127 c 0,5,6
 214 239 214 239 214 393 c 0,7,8
 214 441 214 441 225 494 c 2,9,-1
 336 1016 l 2,10,11
 389 1265 389 1265 550 1384 c 0,12,13
 748 1530 748 1530 982 1530 c 0,14,15
 1140 1530 1140 1530 1259 1462 c 1,16,-1
 1319 1550 l 1,17,-1
 1440 1550 l 1,18,-1
 1449 1546 l 1,19,-1
 1348 1398 l 1,20,21
 1356 1391 1356 1391 1364 1383 c 0,22,23
 1477 1271 1477 1271 1477 1117 c 0,24,25
 1477 1068 1477 1068 1466 1016 c 2,26,-1
 1355 494 l 2,27,28
 1302 245 1302 245 1142 126 c 0,29,30
 946 -20 946 -20 712 -20 c 0,31,32
 552 -20 552 -20 431 49 c 1,33,-1
 371 -40 l 1,0,-1
746 280 m 0,34,35
 850 280 850 280 932 337 c 128,-1,36
 1014 394 1014 394 1032 482 c 2,37,-1
 1149 1028 l 2,38,39
 1153 1049 1153 1049 1153 1068 c 128,-1,40
 1153 1087 1153 1087 1149 1104 c 1,41,-1
 612 314 l 1,42,43
 666 280 666 280 746 280 c 0,34,35
542 406 m 1,44,-1
 1078 1196 l 1,45,46
 1025 1229 1025 1229 946 1229 c 0,47,48
 843 1229 843 1229 760.5 1172.5 c 128,-1,49
 678 1116 678 1116 659 1028 c 2,50,-1
 542 482 l 2,51,52
 538 461 538 461 538 442 c 128,-1,53
 538 423 538 423 542 406 c 1,44,-1
EndSplineSet
Validated: 1
EndChar

StartChar: oslash
Encoding: 248 248 169
Width: 1190
Flags: W
HStem: -20 280<587.636 791.607> 840 280<632.539 833.952>
VStem: 198 304<265.5 578.031> 922 304<521.969 834.5>
DStem2: 111.837 -40 411.9 -40 0.207912 0.978148<484.484 926.325> 321 74 377 -40 0.561983 0.827149<-62.8239 7.42553 326.735 900.446 1220.05 1289.18> 761.9 -40 1061.84 -40 0.207912 0.978148<342.737 784.137>
LayerCount: 2
Fore
SplineSet
377 -40 m 1,0,-1
 256 -40 l 1,1,-1
 247 -36 l 1,2,-1
 321 74 l 1,3,4
 305 87 305 87 292 102 c 0,5,6
 198 203 198 203 198 328 c 0,7,8
 198 365 198 365 206 403 c 2,9,-1
 268 697 l 2,10,11
 312 904 312 904 442 999 c 0,12,13
 609 1120 609 1120 804 1120 c 0,14,15
 921 1120 921 1120 1008 1084 c 1,16,-1
 1046 1140 l 1,17,-1
 1167 1140 l 1,18,-1
 1176 1136 l 1,19,-1
 1102 1027 l 1,20,21
 1118 1013 1118 1013 1132 998 c 0,22,23
 1226 897 1226 897 1226 772 c 0,24,25
 1226 735 1226 735 1218 697 c 2,26,-1
 1156 403 l 2,27,28
 1112 197 1112 197 981 101 c 0,29,30
 816 -20 816 -20 620 -20 c 0,31,32
 502 -20 502 -20 415 16 c 1,33,-1
 377 -40 l 1,0,-1
650 260 m 0,34,35
 724 260 724 260 785 299 c 0,36,37
 842 338 842 338 855 398 c 2,38,-1
 919 702 l 2,39,40
 922 716 922 716 922 728 c 0,41,42
 922 743 922 743 918 757 c 1,43,-1
 587 269 l 1,44,45
 614 260 614 260 650 260 c 0,34,35
505 344 m 1,46,-1
 836 832 l 1,47,48
 808 840 808 840 774 840 c 0,49,50
 700 840 700 840 639 801 c 0,51,52
 582 762 582 762 569 702 c 2,53,-1
 505 398 l 2,54,55
 502 384 502 384 502 372 c 0,56,57
 502 357 502 357 505 344 c 1,46,-1
EndSplineSet
Validated: 1
EndChar

StartChar: multiply
Encoding: 215 215 170
Width: 1232
Flags: W
DStem2: 264 490 521 387 0.771669 0.636024<132.808 411.294 716.76 995.245> 678 1123 377 1020 0.618315 -0.78593<0 225.055 475.197 700.253>
LayerCount: 2
Fore
SplineSet
1283 1027 m 1,0,-1
 1289 1020 l 1,1,-1
 967 755 l 1,2,-1
 1176 490 l 1,3,-1
 1168 483 l 1,4,-1
 875 387 l 1,5,-1
 736 564 l 1,6,-1
 521 387 l 1,7,-1
 270 483 l 1,8,-1
 264 490 l 1,9,-1
 585 755 l 1,10,-1
 377 1020 l 1,11,-1
 385 1027 l 1,12,-1
 678 1123 l 1,13,-1
 817 946 l 1,14,-1
 1032 1123 l 1,15,-1
 1283 1027 l 1,0,-1
EndSplineSet
Validated: 1
EndChar

StartChar: divide
Encoding: 247 247 171
Width: 1240
Flags: W
HStem: 155 365<604.097 780.323> 620 270<424 1137> 990 365<781.097 957.323>
CounterMasks: 1 e0
LayerCount: 2
Fore
SplineSet
654 155 m 0,0,1
 578 155 578 155 538 209 c 0,2,3
 508 248 508 248 508 298 c 0,4,5
 508 317 508 317 512 337 c 0,6,7
 528 413 528 413 592 466 c 0,8,9
 656 520 656 520 731 520 c 0,10,11
 807 520 807 520 848 467 c 0,12,13
 877 429 877 429 877 378 c 0,14,15
 877 359 877 359 873 338 c 0,16,17
 857 263 857 263 792.5 209 c 128,-1,18
 728 155 728 155 654 155 c 0,0,1
908 1355 m 0,19,20
 984 1355 984 1355 1025 1302 c 0,21,22
 1054 1264 1054 1264 1054 1213 c 0,23,24
 1054 1194 1054 1194 1050 1173 c 0,25,26
 1034 1098 1034 1098 969.5 1044 c 128,-1,27
 905 990 905 990 831 990 c 0,28,29
 755 990 755 990 715 1044 c 0,30,31
 685 1083 685 1083 685 1133 c 0,32,33
 685 1152 685 1152 689 1172 c 0,34,35
 705 1248 705 1248 769 1301 c 0,36,37
 833 1355 833 1355 908 1355 c 0,19,20
424 890 m 1,38,-1
 1319 890 l 1,39,-1
 1317 880 l 1,40,-1
 1137 620 l 1,41,-1
 242 620 l 1,42,-1
 244 630 l 1,43,-1
 424 890 l 1,38,-1
EndSplineSet
Validated: 1
EndChar

StartChar: uni1E02
Encoding: 7682 7682 172
Width: 1300
Flags: W
HStem: 0 300<544 931.098> 676 285<684 992.945> 1225 285<749 1067.96> 1589 365<939.097 1115.32>
VStem: 1038 317<402.619 628.988> 1094 306<1016.55 1192.97>
DStem2: 160 0 480.233 0 0.207912 0.978148<373.282 757.699 1048.95 1318.82>
LayerCount: 2
Fore
SplineSet
1066 1954 m 0,0,1
 1142 1954 1142 1954 1183 1901 c 0,2,3
 1212 1863 1212 1863 1212 1812 c 0,4,5
 1212 1793 1212 1793 1208 1772 c 0,6,7
 1192 1697 1192 1697 1127.5 1643 c 128,-1,8
 1063 1589 1063 1589 989 1589 c 0,9,10
 913 1589 913 1589 873 1643 c 0,11,12
 843 1682 843 1682 843 1732 c 0,13,14
 843 1751 843 1751 847 1771 c 0,15,16
 863 1847 863 1847 927 1900 c 0,17,18
 991 1954 991 1954 1066 1954 c 0,0,1
740 1225 m 1,19,-1
 684 961 l 1,20,-1
 909 961 l 2,21,22
 976 961 976 961 1030 1000 c 0,23,24
 1080 1036 1080 1036 1091 1093 c 0,25,26
 1094 1106 1094 1106 1094 1119 c 0,27,28
 1094 1156 1094 1156 1069 1186 c 0,29,30
 1036 1225 1036 1225 965 1225 c 2,31,-1
 740 1225 l 1,19,-1
544 300 m 1,32,-1
 749 300 l 2,33,34
 878 301 878 301 948 356 c 128,-1,35
 1018 411 1018 411 1034 487 c 0,36,37
 1038 506 1038 506 1038 526 c 0,38,39
 1038 578 1038 578 1004 620 c 0,40,41
 958 676 958 676 829 676 c 2,42,-1
 624 676 l 1,43,-1
 544 300 l 1,32,-1
160 0 m 1,44,-1
 454 1384 l 1,45,-1
 749 1510 l 1,46,-1
 976 1510 l 2,47,48
 1176 1510 1176 1510 1288 1413 c 0,49,50
 1400 1315 1400 1315 1400 1175 c 0,51,52
 1400 1144 1400 1144 1395 1112 c 0,53,54
 1365 929 1365 929 1208 838 c 1,55,56
 1355 712 1355 712 1355 527 c 0,57,58
 1355 507 1355 507 1353 485 c 0,59,60
 1336 276 1336 276 1160 139 c 0,61,62
 981 0 981 0 715 0 c 2,63,-1
 160 0 l 1,44,-1
EndSplineSet
Validated: 1
EndChar

StartChar: uni1E03
Encoding: 7683 7683 173
Width: 1210
Flags: W
HStem: -20 280<552.898 811.607> 838 282<673.424 911.453> 1179 365<893.097 1069.32> 1510 20G<708.768 765>
VStem: 218 304<294.364 573.664> 941 305<522.453 801.886>
DStem2: 136.089 -20 436.151 -20 0.207912 0.978148<464.037 905.114 1178.73 1443.5> 786.151 -20 1085.81 -20 0.207912 0.978148<322.29 759.508>
LayerCount: 2
Fore
SplineSet
1020 1544 m 0,0,1
 1096 1544 1096 1544 1137 1491 c 0,2,3
 1166 1453 1166 1453 1166 1402 c 0,4,5
 1166 1383 1166 1383 1162 1362 c 0,6,7
 1146 1287 1146 1287 1081.5 1233 c 128,-1,8
 1017 1179 1017 1179 943 1179 c 0,9,10
 867 1179 867 1179 827 1233 c 0,11,12
 797 1272 797 1272 797 1322 c 0,13,14
 797 1341 797 1341 801 1361 c 0,15,16
 817 1437 817 1437 881 1490 c 0,17,18
 945 1544 945 1544 1020 1544 c 0,0,1
670.5 260 m 128,-1,20
 745 260 745 260 805 299 c 0,21,22
 862 338 862 338 875 398 c 2,23,-1
 938 694 l 2,24,25
 941 710 941 710 941 724 c 0,26,27
 941 769 941 769 910 798 c 0,28,29
 868 838 868 838 792.5 838 c 128,-1,30
 717 838 717 838 659 797.5 c 128,-1,31
 601 757 601 757 588 695 c 2,32,-1
 525 398 l 2,33,34
 522 384 522 384 522 372 c 0,35,36
 522 328 522 328 554 298 c 0,37,19
 596 260 596 260 670.5 260 c 128,-1,20
640 -20 m 0,38,39
 424 -20 424 -20 312 102 c 0,40,41
 218 204 218 204 218 328 c 0,42,43
 218 365 218 365 226 403 c 2,44,-1
 436 1392 l 1,45,-1
 755 1530 l 1,46,-1
 765 1530 l 1,47,-1
 668 1072 l 1,48,49
 749 1120 749 1120 843 1120 c 0,50,51
 1041 1120 1041 1120 1153 998 c 0,52,53
 1246 897 1246 897 1246 772 c 0,54,55
 1246 735 1246 735 1238 696 c 2,56,-1
 1176 403 l 2,57,58
 1132 197 1132 197 1001 101 c 0,59,60
 836 -20 836 -20 640 -20 c 0,38,39
EndSplineSet
Validated: 1
EndChar

StartChar: uni1E0A
Encoding: 7690 7690 174
Width: 1430
Flags: W
HStem: 0 300<584 973.16> 1210 300<789 1147.36> 1589 365<1014.1 1190.32>
VStem: 1209 323<944.551 1149.78>
DStem2: 200 0 520.233 0 0.207912 0.978148<373.282 1303.52> 989.509 0 1309.96 0 0.207912 0.978148<378.552 1071.13>
LayerCount: 2
Fore
SplineSet
1141 1954 m 0,0,1
 1217 1954 1217 1954 1258 1901 c 0,2,3
 1287 1863 1287 1863 1287 1812 c 0,4,5
 1287 1793 1287 1793 1283 1772 c 0,6,7
 1267 1697 1267 1697 1202.5 1643 c 128,-1,8
 1138 1589 1138 1589 1064 1589 c 0,9,10
 988 1589 988 1589 948 1643 c 0,11,12
 918 1682 918 1682 918 1732 c 0,13,14
 918 1751 918 1751 922 1771 c 0,15,16
 938 1847 938 1847 1002 1900 c 0,17,18
 1066 1954 1066 1954 1141 1954 c 0,0,1
200 0 m 1,19,-1
 494 1383 l 1,20,-1
 789 1510 l 1,21,-1
 1051 1510 l 2,22,23
 1285 1510 1285 1510 1420 1362 c 0,24,25
 1532 1240 1532 1240 1532 1090 c 0,26,27
 1532 1045 1532 1045 1522 997 c 2,28,-1
 1419 513 l 2,29,30
 1366 269 1366 269 1206 148 c 0,31,32
 1010 0 1010 0 775 0 c 2,33,-1
 200 0 l 1,19,-1
584 300 m 1,34,-1
 809 300 l 2,35,36
 912 300 912 300 996 357 c 0,37,38
 1078 413 1078 413 1096 501 c 2,39,-1
 1204 1009 l 2,40,41
 1209 1030 1209 1030 1209 1049 c 0,42,43
 1209 1110 1209 1110 1163 1153 c 0,44,45
 1103 1210 1103 1210 1002 1210 c 2,46,-1
 777 1210 l 1,47,-1
 584 300 l 1,34,-1
EndSplineSet
Validated: 1
EndChar

StartChar: uni1E0B
Encoding: 7691 7691 175
Width: 1210
Flags: W
HStem: -20 280<532.985 789.372> 839 281<635.414 891.186> 1179 365<709.097 885.323>
VStem: 198 304<295.624 575.359>
DStem2: 116.089 -20 416.151 -20 0.207912 0.978148<462.141 904.373> 766.022 -20 1066.09 -20 0.207912 0.978148<323.633 758.587 1116.37 1443.51>
LayerCount: 2
Fore
SplineSet
836 1544 m 0,0,1
 912 1544 912 1544 953 1491 c 0,2,3
 982 1453 982 1453 982 1402 c 0,4,5
 982 1383 982 1383 978 1362 c 0,6,7
 962 1287 962 1287 897.5 1233 c 128,-1,8
 833 1179 833 1179 759 1179 c 0,9,10
 683 1179 683 1179 643 1233 c 0,11,12
 613 1272 613 1272 613 1322 c 0,13,14
 613 1341 613 1341 617 1361 c 0,15,16
 633 1437 633 1437 697 1490 c 0,17,18
 761 1544 761 1544 836 1544 c 0,0,1
649.5 260 m 128,-1,20
 724 260 724 260 782.5 298.5 c 128,-1,21
 841 337 841 337 855 398 c 2,22,-1
 918 695 l 2,23,24
 921 710 921 710 921 723 c 0,25,26
 921 767 921 767 890 798 c 0,27,28
 848 839 848 839 773.5 839 c 128,-1,29
 699 839 699 839 640 798.5 c 128,-1,30
 581 758 581 758 568 694 c 2,31,-1
 505 398 l 2,32,33
 502 384 502 384 502 370 c 0,34,35
 502 328 502 328 533 299 c 0,36,19
 575 260 575 260 649.5 260 c 128,-1,20
622 -20 m 0,37,38
 404 -20 404 -20 291 101 c 0,39,40
 198 201 198 201 198 326 c 0,41,42
 198 363 198 363 206 403 c 2,43,-1
 268 696 l 2,44,45
 312 902 312 902 441 998 c 0,46,47
 605 1120 605 1120 803 1120 c 0,48,49
 931 1120 931 1120 998 1072 c 1,50,-1
 1066 1392 l 1,51,-1
 1385 1530 l 1,52,-1
 1395 1530 l 1,53,-1
 1156 403 l 2,54,55
 1113 199 1113 199 982 102 c 0,56,57
 818 -20 818 -20 622 -20 c 0,37,38
EndSplineSet
Validated: 1
EndChar

StartChar: uni1E1E
Encoding: 7710 7710 176
Width: 1050
Flags: W
HStem: -20 21G<156 212.395> 605 300<672 1033> 1210 300<749 1161> 1589 365<897.097 1073.32>
DStem2: 156 -20 475.754 -20 0.207912 0.978148<216.765 705.526 1012.07 1323.92>
LayerCount: 2
Fore
SplineSet
1024 1954 m 0,0,1
 1100 1954 1100 1954 1141 1901 c 0,2,3
 1170 1863 1170 1863 1170 1812 c 0,4,5
 1170 1793 1170 1793 1166 1772 c 0,6,7
 1150 1697 1150 1697 1085.5 1643 c 128,-1,8
 1021 1589 1021 1589 947 1589 c 0,9,10
 871 1589 871 1589 831 1643 c 0,11,12
 801 1682 801 1682 801 1732 c 0,13,14
 801 1751 801 1751 805 1771 c 0,15,16
 821 1847 821 1847 885 1900 c 0,17,18
 949 1954 949 1954 1024 1954 c 0,0,1
166 -20 m 1,19,-1
 156 -20 l 1,20,-1
 454 1384 l 1,21,-1
 749 1510 l 1,22,-1
 1361 1510 l 1,23,-1
 1359 1500 l 1,24,-1
 1161 1210 l 1,25,-1
 737 1210 l 1,26,-1
 672 905 l 1,27,-1
 1232 905 l 1,28,-1
 1230 895 l 1,29,-1
 1033 605 l 1,30,-1
 609 605 l 1,31,-1
 507 127 l 1,32,-1
 166 -20 l 1,19,-1
EndSplineSet
Validated: 1
EndChar

StartChar: uni1E1F
Encoding: 7711 7711 177
Width: 860
Flags: W
HStem: -20 21G<136 192.232> 662 280<640 823> 1230 280<740.926 982> 1589 365<754.097 930.323>
DStem2: 136 -20 435.667 -20 0.207912 0.978148<203.387 759.617 1045.77 1303.1>
LayerCount: 2
Fore
SplineSet
881 1954 m 0,0,1
 957 1954 957 1954 998 1901 c 0,2,3
 1027 1863 1027 1863 1027 1812 c 0,4,5
 1027 1793 1027 1793 1023 1772 c 0,6,7
 1007 1697 1007 1697 942.5 1643 c 128,-1,8
 878 1589 878 1589 804 1589 c 0,9,10
 728 1589 728 1589 688 1643 c 0,11,12
 658 1682 658 1682 658 1732 c 0,13,14
 658 1751 658 1751 662 1771 c 0,15,16
 678 1847 678 1847 742 1900 c 0,17,18
 806 1954 806 1954 881 1954 c 0,0,1
146 -20 m 1,19,-1
 136 -20 l 1,20,-1
 369 1076 l 2,21,22
 414 1288 414 1288 545 1386 c 0,23,24
 711 1510 711 1510 906 1510 c 2,25,-1
 1171 1510 l 1,26,-1
 1169 1500 l 1,27,-1
 982 1230 l 1,28,-1
 876 1230 l 2,29,30
 799 1230 799 1230 742 1189 c 0,31,32
 685 1149 685 1149 671 1085 c 2,33,-1
 640 942 l 1,34,-1
 1011 942 l 1,35,-1
 1009 932 l 1,36,-1
 823 662 l 1,37,-1
 581 662 l 1,38,-1
 465 118 l 1,39,-1
 146 -20 l 1,19,-1
EndSplineSet
Validated: 1
EndChar

StartChar: uni1E40
Encoding: 7744 7744 178
Width: 2220
Flags: W
HStem: -20 21G<136 192.395 946 1002.39 1756 1812.39> 1230 300<803.661 1108.97 1613.06 1919.88> 1589 365<1392.1 1568.32>
VStem: 1982 325<955.902 1169.38>
DStem2: 136 -20 455.754 -20 0.207912 0.978148<216.765 1267.64> 946 -20 1265.75 -20 0.207912 0.978148<216.765 1106.69> 1756 -20 2075.75 -20 0.207912 0.978148<216.765 1106.69>
LayerCount: 2
Fore
SplineSet
1519 1954 m 0,0,1
 1595 1954 1595 1954 1636 1901 c 0,2,3
 1665 1863 1665 1863 1665 1812 c 0,4,5
 1665 1793 1665 1793 1661 1772 c 0,6,7
 1645 1697 1645 1697 1580.5 1643 c 128,-1,8
 1516 1589 1516 1589 1442 1589 c 0,9,10
 1366 1589 1366 1589 1326 1643 c 0,11,12
 1296 1682 1296 1682 1296 1732 c 0,13,14
 1296 1751 1296 1751 1300 1771 c 0,15,16
 1316 1847 1316 1847 1380 1900 c 0,17,18
 1444 1954 1444 1954 1519 1954 c 0,0,1
146 -20 m 1,19,-1
 136 -20 l 1,20,-1
 356 1016 l 2,21,22
 409 1265 409 1265 570 1384 c 0,23,24
 767 1530 767 1530 1001 1530 c 0,25,26
 1237 1530 1237 1530 1373 1379 c 1,27,28
 1576 1530 1576 1530 1813 1530 c 0,29,30
 2047 1530 2047 1530 2195 1383 c 0,31,32
 2307 1271 2307 1271 2307 1118 c 0,33,34
 2307 1069 2307 1069 2296 1016 c 2,35,-1
 2107 127 l 1,36,-1
 1766 -20 l 1,37,-1
 1756 -20 l 1,38,-1
 1977 1022 l 2,39,40
 1982 1044 1982 1044 1982 1064 c 0,41,42
 1982 1127 1982 1127 1937 1172 c 0,43,44
 1879 1230 1879 1230 1776.5 1230 c 128,-1,45
 1674 1230 1674 1230 1590 1171 c 128,-1,46
 1506 1112 1506 1112 1487 1022 c 2,47,-1
 1297 127 l 1,48,-1
 956 -20 l 1,49,-1
 946 -20 l 1,50,-1
 1167 1022 l 2,51,52
 1172 1044 1172 1044 1172 1064 c 0,53,54
 1172 1127 1172 1127 1127 1172 c 0,55,56
 1069 1230 1069 1230 966.5 1230 c 128,-1,57
 864 1230 864 1230 780 1171 c 128,-1,58
 696 1112 696 1112 677 1022 c 2,59,-1
 487 127 l 1,60,-1
 146 -20 l 1,19,-1
EndSplineSet
Validated: 1
EndChar

StartChar: uni1E41
Encoding: 7745 7745 179
Width: 1880
Flags: W
HStem: -20 21G<136 192.232 786 842.232 1436 1492.23> 838 282<656.065 910.84 1306.06 1560.99> 1179 365<1133.1 1309.32>
VStem: 1591 305<525.531 802.255>
DStem2: 136 -20 435.667 -20 0.207912 0.978148<203.387 900.559> 786 -20 1085.67 -20 0.207912 0.978148<203.387 759.54> 1436 -20 1735.67 -20 0.207912 0.978148<203.387 759.54>
LayerCount: 2
Fore
SplineSet
1260 1544 m 0,0,1
 1336 1544 1336 1544 1377 1491 c 0,2,3
 1406 1453 1406 1453 1406 1402 c 0,4,5
 1406 1383 1406 1383 1402 1362 c 0,6,7
 1386 1287 1386 1287 1321.5 1233 c 128,-1,8
 1257 1179 1257 1179 1183 1179 c 0,9,10
 1107 1179 1107 1179 1067 1233 c 0,11,12
 1037 1272 1037 1272 1037 1322 c 0,13,14
 1037 1341 1037 1341 1041 1361 c 0,15,16
 1057 1437 1057 1437 1121 1490 c 0,17,18
 1185 1544 1185 1544 1260 1544 c 0,0,1
146 -20 m 1,19,-1
 136 -20 l 1,20,-1
 288 697 l 2,21,22
 332 904 332 904 462 999 c 0,23,24
 628 1120 628 1120 823 1120 c 0,25,26
 1013 1120 1013 1120 1123 1007 c 1,27,28
 1284 1120 1284 1120 1473 1120 c 0,29,30
 1691 1120 1691 1120 1803 998 c 0,31,32
 1896 897 1896 897 1896 773 c 0,33,34
 1896 736 1896 736 1888 696 c 2,35,-1
 1765 118 l 1,36,-1
 1446 -20 l 1,37,-1
 1436 -20 l 1,38,-1
 1588 694 l 2,39,40
 1591 710 1591 710 1591 724 c 0,41,42
 1591 769 1591 769 1560 798 c 0,43,44
 1518 838 1518 838 1443 838 c 128,-1,45
 1368 838 1368 838 1310 797.5 c 128,-1,46
 1252 757 1252 757 1238 695 c 2,47,-1
 1115 118 l 1,48,-1
 796 -20 l 1,49,-1
 786 -20 l 1,50,-1
 938 694 l 2,51,52
 941 710 941 710 941 724 c 0,53,54
 941 769 941 769 910 798 c 0,55,56
 868 838 868 838 792.5 838 c 128,-1,57
 717 838 717 838 659.5 797.5 c 128,-1,58
 602 757 602 757 588 695 c 2,59,-1
 465 118 l 1,60,-1
 146 -20 l 1,19,-1
EndSplineSet
Validated: 1
EndChar

StartChar: uni1E56
Encoding: 7766 7766 180
Width: 1270
Flags: W
HStem: -20 21G<156 212.395> 440 301<638 991.927> 1210 300<749 1067.27> 1589 365<930.097 1106.32>
VStem: 1133 319<883.104 1149.25>
DStem2: 156 -20 475.754 -20 0.207912 0.978148<216.765 536.855 844.584 1323.92>
LayerCount: 2
Fore
SplineSet
1057 1954 m 0,0,1
 1133 1954 1133 1954 1174 1901 c 0,2,3
 1203 1863 1203 1863 1203 1812 c 0,4,5
 1203 1793 1203 1793 1199 1772 c 0,6,7
 1183 1697 1183 1697 1118.5 1643 c 128,-1,8
 1054 1589 1054 1589 980 1589 c 0,9,10
 904 1589 904 1589 864 1643 c 0,11,12
 834 1682 834 1682 834 1732 c 0,13,14
 834 1751 834 1751 838 1771 c 0,15,16
 854 1847 854 1847 918 1900 c 0,17,18
 982 1954 982 1954 1057 1954 c 0,0,1
638 741 m 1,19,-1
 850 741 l 2,20,21
 948 741 948 741 1028 812 c 128,-1,22
 1108 883 1108 883 1128 975 c 0,23,24
 1133 1001 1133 1001 1133 1025 c 0,25,26
 1133 1086 1133 1086 1097 1138 c 0,27,28
 1047 1210 1047 1210 949 1210 c 2,29,-1
 737 1210 l 1,30,-1
 638 741 l 1,19,-1
166 -20 m 1,31,-1
 156 -20 l 1,32,-1
 454 1383 l 1,33,-1
 749 1510 l 1,34,-1
 977 1510 l 2,35,36
 1230 1510 1230 1510 1352 1353 c 0,37,38
 1451 1226 1451 1226 1452 1049 c 0,39,40
 1452 1013 1452 1013 1448 975 c 0,41,42
 1423 747 1423 747 1241 596 c 0,43,44
 1054 440 1054 440 810 440 c 2,45,-1
 574 440 l 1,46,-1
 507 127 l 1,47,-1
 166 -20 l 1,31,-1
EndSplineSet
Validated: 1
EndChar

StartChar: uni1E57
Encoding: 7767 7767 181
Width: 1210
Flags: W
HStem: -430 21G<49 105.232> -20 281<552.799 808.359> 840 280<654.628 910.649> 1179 365<814.097 990.323>
VStem: 942 304<524.641 805.784>
DStem2: 49 -430 348.667 -430 0.207912 0.978148<203.387 530.533 887.365 1323.27> 698.386 -430 998.728 -430 0.207912 0.978148<742.642 1184.87>
LayerCount: 2
Fore
SplineSet
941 1544 m 0,0,1
 1017 1544 1017 1544 1058 1491 c 0,2,3
 1087 1453 1087 1453 1087 1402 c 0,4,5
 1087 1383 1087 1383 1083 1362 c 0,6,7
 1067 1287 1067 1287 1002.5 1233 c 128,-1,8
 938 1179 938 1179 864 1179 c 0,9,10
 788 1179 788 1179 748 1233 c 0,11,12
 718 1272 718 1272 718 1322 c 0,13,14
 718 1341 718 1341 722 1361 c 0,15,16
 738 1437 738 1437 802 1490 c 0,17,18
 866 1544 866 1544 941 1544 c 0,0,1
794.5 840 m 128,-1,20
 720 840 720 840 661.5 801.5 c 128,-1,21
 603 763 603 763 589 702 c 2,22,-1
 526 405 l 2,23,24
 523 390 523 390 523 376 c 0,25,26
 523 333 523 333 554 302 c 0,27,28
 595 261 595 261 669.5 261 c 128,-1,29
 744 261 744 261 803.5 301.5 c 128,-1,30
 863 342 863 342 876 406 c 2,31,-1
 939 702 l 2,32,33
 942 716 942 716 942 730 c 0,34,35
 942 772 942 772 911 801 c 0,36,19
 869 840 869 840 794.5 840 c 128,-1,20
59 -430 m 1,37,-1
 49 -430 l 1,38,-1
 288 697 l 2,39,40
 331 901 331 901 462 998 c 0,41,42
 626 1120 626 1120 822 1120 c 0,43,44
 1038 1120 1038 1120 1152 999 c 0,45,46
 1246 898 1246 898 1246 773 c 0,47,48
 1246 736 1246 736 1238 697 c 2,49,-1
 1176 404 l 2,50,51
 1132 198 1132 198 1003 102 c 0,52,53
 839 -20 839 -20 641 -20 c 0,54,55
 513 -20 513 -20 446 28 c 1,56,-1
 378 -292 l 1,57,-1
 59 -430 l 1,37,-1
EndSplineSet
Validated: 1
EndChar

StartChar: uni1E6A
Encoding: 7786 7786 182
Width: 1190
Flags: W
HStem: -20 21G<431 487.712> 1210 300<467 692 1012 1301> 1589 365<877.097 1053.32>
DStem2: 431 -20 750.967 -20 0.207912 0.978148<215.787 1257.39>
LayerCount: 2
Fore
SplineSet
1004 1954 m 0,0,1
 1080 1954 1080 1954 1121 1901 c 0,2,3
 1150 1863 1150 1863 1150 1812 c 0,4,5
 1150 1793 1150 1793 1146 1772 c 0,6,7
 1130 1697 1130 1697 1065.5 1643 c 128,-1,8
 1001 1589 1001 1589 927 1589 c 0,9,10
 851 1589 851 1589 811 1643 c 0,11,12
 781 1682 781 1682 781 1732 c 0,13,14
 781 1751 781 1751 785 1771 c 0,15,16
 801 1847 801 1847 865 1900 c 0,17,18
 929 1954 929 1954 1004 1954 c 0,0,1
441 -20 m 1,19,-1
 431 -20 l 1,20,-1
 692 1210 l 1,21,-1
 267 1210 l 1,22,-1
 269 1220 l 1,23,-1
 467 1510 l 1,24,-1
 1501 1510 l 1,25,-1
 1499 1500 l 1,26,-1
 1301 1210 l 1,27,-1
 1012 1210 l 1,28,-1
 782 126 l 1,29,-1
 441 -20 l 1,19,-1
EndSplineSet
Validated: 1
EndChar

StartChar: uni1E6B
Encoding: 7787 7787 183
Width: 890
Flags: W
HStem: -20 21G<296 352.316> 820 280<373 474 824 925> 1510 20G<858.684 915> 1589 365<733.097 909.323>
DStem2: 296 -20 585.73 -20 0.207912 0.978148<196.21 858.652 1205.3 1448.62>
LayerCount: 2
Fore
SplineSet
860 1954 m 0,0,1
 936 1954 936 1954 977 1901 c 0,2,3
 1006 1863 1006 1863 1006 1812 c 0,4,5
 1006 1793 1006 1793 1002 1772 c 0,6,7
 986 1697 986 1697 921.5 1643 c 128,-1,8
 857 1589 857 1589 783 1589 c 0,9,10
 707 1589 707 1589 667 1643 c 0,11,12
 637 1682 637 1682 637 1732 c 0,13,14
 637 1751 637 1751 641 1771 c 0,15,16
 657 1847 657 1847 721 1900 c 0,17,18
 785 1954 785 1954 860 1954 c 0,0,1
306 -20 m 1,19,-1
 296 -20 l 1,20,-1
 474 820 l 1,21,-1
 184 820 l 1,22,-1
 186 830 l 1,23,-1
 373 1100 l 1,24,-1
 534 1100 l 1,25,-1
 597 1397 l 1,26,-1
 905 1530 l 1,27,-1
 915 1530 l 1,28,-1
 824 1100 l 1,29,-1
 1114 1100 l 1,30,-1
 1112 1090 l 1,31,-1
 925 820 l 1,32,-1
 764 820 l 1,33,-1
 614 113 l 1,34,-1
 306 -20 l 1,19,-1
EndSplineSet
Validated: 1
EndChar

StartChar: uni1E60
Encoding: 7776 7776 184
Width: 1190
Flags: W
HStem: -20 300<486.989 800.355> 1263 267<723.187 949.431> 1589 365<868.097 1044.32>
VStem: 327 325<1016.56 1196.08> 920 331<391.469 612.574>
LayerCount: 2
Fore
SplineSet
995 1954 m 0,0,1
 1071 1954 1071 1954 1112 1901 c 0,2,3
 1141 1863 1141 1863 1141 1812 c 0,4,5
 1141 1793 1141 1793 1137 1772 c 0,6,7
 1121 1697 1121 1697 1056.5 1643 c 128,-1,8
 992 1589 992 1589 918 1589 c 0,9,10
 842 1589 842 1589 802 1643 c 0,11,12
 772 1682 772 1682 772 1732 c 0,13,14
 772 1751 772 1751 776 1771 c 0,15,16
 792 1847 792 1847 856 1900 c 0,17,18
 920 1954 920 1954 995 1954 c 0,0,1
601 -20 m 0,19,20
 349 -20 349 -20 218 131 c 0,21,22
 118 246 118 246 115 399 c 1,23,-1
 433 536 l 1,24,-1
 443 536 l 1,25,26
 432 486 432 486 432 447 c 0,27,28
 432 372 432 372 471 335 c 0,29,30
 530 280 530 280 635 280 c 0,31,32
 744 280 744 280 821 337 c 0,33,34
 898 395 898 395 916 481 c 0,35,36
 920 498 920 498 920 514 c 0,37,38
 920 560 920 560 890 599 c 0,39,40
 853 648 853 648 717 668 c 0,41,42
 542 694 542 694 426 800 c 0,43,44
 327 893 327 893 327 1034 c 0,45,46
 327 1064 327 1064 332 1097 c 0,47,48
 359 1294 359 1294 520 1412 c 0,49,50
 682 1530 682 1530 879 1530 c 0,51,52
 1088 1530 1088 1530 1193 1404 c 0,53,54
 1278 1301 1278 1301 1281 1190 c 1,55,-1
 968 1055 l 1,56,-1
 958 1055 l 1,57,58
 969 1108 969 1108 969 1146 c 0,59,60
 969 1189 969 1189 955 1213 c 0,61,62
 925 1263 925 1263 854 1263 c 128,-1,63
 783 1263 783 1263 727 1223 c 0,64,65
 669 1182 669 1182 655 1115 c 0,66,67
 652 1101 652 1101 652 1089 c 0,68,69
 652 1029 652 1029 720 1002 c 0,70,71
 761 985 761 985 833 977 c 0,72,73
 1056 951 1056 951 1171 811 c 0,74,75
 1251 713 1251 713 1251 573 c 0,76,77
 1251 532 1251 532 1244 488 c 0,78,79
 1209 258 1209 258 1031 125 c 0,80,81
 837 -20 837 -20 601 -20 c 0,19,20
EndSplineSet
Validated: 1
EndChar

StartChar: uni1E61
Encoding: 7777 7777 185
Width: 967
Flags: W
HStem: -20 240<411.46 667.806> 895 225<551.048 746.138> 1179 365<661.097 837.323>
VStem: 248 282<736.487 871.995> 724 283<274.398 422.287>
LayerCount: 2
Fore
SplineSet
788 1544 m 0,0,1
 864 1544 864 1544 905 1491 c 0,2,3
 934 1453 934 1453 934 1402 c 0,4,5
 934 1383 934 1383 930 1362 c 0,6,7
 914 1287 914 1287 849.5 1233 c 128,-1,8
 785 1179 785 1179 711 1179 c 0,9,10
 635 1179 635 1179 595 1233 c 0,11,12
 565 1272 565 1272 565 1322 c 0,13,14
 565 1341 565 1341 569 1361 c 0,15,16
 585 1437 585 1437 649 1490 c 0,17,18
 713 1544 713 1544 788 1544 c 0,0,1
493 -20 m 0,19,20
 273 -20 273 -20 172 92 c 0,21,22
 95 178 95 178 94 304 c 1,23,-1
 371 423 l 1,24,-1
 381 423 l 1,25,26
 373 388 373 388 373 358 c 0,27,28
 373 292 373 292 413 258 c 0,29,30
 457 220 457 220 540 220 c 0,31,32
 612 220 612 220 664 260 c 0,33,34
 712 296 712 296 722 342 c 0,35,36
 724 352 724 352 724 361 c 0,37,38
 724 403 724 403 679 424 c 0,39,40
 646 439 646 439 562 448 c 0,41,42
 426 462 426 462 332 549 c 0,43,44
 248 627 248 627 248 749 c 0,45,46
 248 770 248 770 251 792 c 0,47,48
 267 943 267 943 388 1031.5 c 128,-1,49
 509 1120 509 1120 686 1120 c 0,50,51
 868 1120 868 1120 953 1023 c 0,52,53
 1018 949 1018 949 1024 850 c 1,54,-1
 761 736 l 1,55,-1
 751 736 l 1,56,57
 758 769 758 769 758 796 c 0,58,59
 758 827 758 827 748 848 c 0,60,61
 726 895 726 895 656 895 c 0,62,63
 608 895 608 895 574 872 c 128,-1,64
 540 849 540 849 532 807 c 0,65,66
 530 798 530 798 530 791 c 0,67,68
 530 747 530 747 589 730 c 0,69,70
 625 720 625 720 665 716 c 0,71,72
 847 695 847 695 938 596 c 0,73,74
 1007 521 1007 521 1007 411 c 0,75,76
 1007 385 1007 385 1003 358 c 0,77,78
 979 185 979 185 842 86 c 0,79,80
 697 -20 697 -20 493 -20 c 0,19,20
EndSplineSet
Validated: 1
EndChar

StartChar: Wgrave
Encoding: 7808 7808 186
Width: 2220
Flags: W
HStem: -20 300<621.116 927.938 1432.03 1737.34> 1510 20G<728.605 785 1538.61 1595 2348.61 2405>
VStem: 234 325<340.617 554.098>
DStem2: 135.746 -20 456.021 -20 0.207912 0.978148<544.428 1434.35> 946.021 -20 1266.02 -20 0.207912 0.978148<544.371 1434.29> 1511 1980 1303 1895 0.255077 -0.966921<29.1322 337.153> 1756.02 -20 2075.75 -20 0.207912 0.978148<383.424 1434.29>
LayerCount: 2
Fore
SplineSet
728 -20 m 0,0,1
 494 -20 494 -20 346 127 c 0,2,3
 234 239 234 239 234 392 c 0,4,5
 234 441 234 441 245 494 c 2,6,-1
 434 1383 l 1,7,-1
 775 1530 l 1,8,-1
 785 1530 l 1,9,-1
 564 488 l 2,10,11
 559 466 559 466 559 446 c 0,12,13
 559 383 559 383 604 338 c 0,14,15
 662 280 662 280 764.5 280 c 128,-1,16
 867 280 867 280 951 339 c 128,-1,17
 1035 398 1035 398 1054 488 c 2,18,-1
 1244 1383 l 1,19,-1
 1585 1530 l 1,20,-1
 1595 1530 l 1,21,-1
 1374 488 l 2,22,23
 1369 466 1369 466 1369 446 c 0,24,25
 1369 383 1369 383 1414 338 c 0,26,27
 1472 280 1472 280 1574.5 280 c 128,-1,28
 1677 280 1677 280 1761 339 c 128,-1,29
 1845 398 1845 398 1864 488 c 2,30,-1
 2054 1383 l 1,31,-1
 2395 1530 l 1,32,-1
 2405 1530 l 1,33,-1
 2185 494 l 2,34,35
 2132 245 2132 245 1971 126 c 0,36,37
 1774 -20 1774 -20 1540 -20 c 0,38,39
 1304 -20 1304 -20 1168 131 c 1,40,41
 965 -20 965 -20 728 -20 c 0,0,1
1501 1980 m 1,42,-1
 1511 1980 l 1,43,-1
 1597 1654 l 1,44,-1
 1401 1570 l 1,45,-1
 1391 1570 l 1,46,-1
 1303 1895 l 1,47,-1
 1501 1980 l 1,42,-1
EndSplineSet
Validated: 1
EndChar

StartChar: wgrave
Encoding: 7809 7809 187
Width: 1880
Flags: W
HStem: -20 282<553.009 808.208 1203.16 1457.98> 1100 20G<621.768 678 1271.77 1328 1921.77 1978>
VStem: 218 304<302.941 467.253>
DStem2: 135.876 -20 435.451 -20 0.207912 0.978148<467.107 1024.41> 785.663 -20 1085.45 -20 0.207912 0.978148<467.151 1024.46> 1243 1570 1035 1485 0.252301 -0.967649<29.7715 336.899> 1436.02 -20 1736.09 -20 0.207912 0.978148<327.213 1024.39>
LayerCount: 2
Fore
SplineSet
641 -20 m 0,0,1
 423 -20 423 -20 311 102 c 0,2,3
 218 203 218 203 218 327 c 0,4,5
 218 364 218 364 226 404 c 2,6,-1
 349 982 l 1,7,-1
 668 1120 l 1,8,-1
 678 1120 l 1,9,-1
 526 406 l 2,10,11
 522 390 522 390 522 375 c 0,12,13
 522 332 522 332 554 302 c 0,14,15
 596 262 596 262 671 262 c 128,-1,16
 746 262 746 262 804.5 302.5 c 128,-1,17
 863 343 863 343 876 405 c 2,18,-1
 999 982 l 1,19,-1
 1318 1120 l 1,20,-1
 1328 1120 l 1,21,-1
 1176 406 l 2,22,23
 1172 390 1172 390 1172 375 c 0,24,25
 1172 332 1172 332 1204 302 c 0,26,27
 1246 262 1246 262 1321 262 c 128,-1,28
 1396 262 1396 262 1454.5 302.5 c 128,-1,29
 1513 343 1513 343 1526 405 c 2,30,-1
 1649 982 l 1,31,-1
 1968 1120 l 1,32,-1
 1978 1120 l 1,33,-1
 1826 403 l 2,34,35
 1782 196 1782 196 1652 101 c 0,36,37
 1486 -20 1486 -20 1291 -20 c 0,38,39
 1101 -20 1101 -20 991 93 c 1,40,41
 830 -20 830 -20 641 -20 c 0,0,1
1233 1570 m 1,42,-1
 1243 1570 l 1,43,-1
 1328 1244 l 1,44,-1
 1133 1160 l 1,45,-1
 1123 1160 l 1,46,-1
 1035 1485 l 1,47,-1
 1233 1570 l 1,42,-1
EndSplineSet
Validated: 1
EndChar

StartChar: Wacute
Encoding: 7810 7810 188
Width: 2220
Flags: W
HStem: -20 300<621.116 927.938 1432.03 1737.34> 1510 20G<728.605 785 1538.61 1595 2348.61 2405>
VStem: 234 325<340.617 554.098>
DStem2: 135.746 -20 456.021 -20 0.207912 0.978148<544.428 1434.35> 946.021 -20 1266.02 -20 0.207912 0.978148<544.371 1434.29> 1286 1660 1468 1570 0.541289 0.840837<22.8392 380.573> 1756.02 -20 2075.75 -20 0.207912 0.978148<383.424 1434.29>
LayerCount: 2
Fore
SplineSet
1502 1980 m 1,0,-1
 1675 1888 l 1,1,-1
 1468 1570 l 1,2,-1
 1458 1570 l 1,3,-1
 1286 1660 l 1,4,-1
 1492 1980 l 1,5,-1
 1502 1980 l 1,0,-1
728 -20 m 0,6,7
 494 -20 494 -20 346 127 c 0,8,9
 234 239 234 239 234 392 c 0,10,11
 234 441 234 441 245 494 c 2,12,-1
 434 1383 l 1,13,-1
 775 1530 l 1,14,-1
 785 1530 l 1,15,-1
 564 488 l 2,16,17
 559 466 559 466 559 446 c 0,18,19
 559 383 559 383 604 338 c 0,20,21
 662 280 662 280 764.5 280 c 128,-1,22
 867 280 867 280 951 339 c 128,-1,23
 1035 398 1035 398 1054 488 c 2,24,-1
 1244 1383 l 1,25,-1
 1585 1530 l 1,26,-1
 1595 1530 l 1,27,-1
 1374 488 l 2,28,29
 1369 466 1369 466 1369 446 c 0,30,31
 1369 383 1369 383 1414 338 c 0,32,33
 1472 280 1472 280 1574.5 280 c 128,-1,34
 1677 280 1677 280 1761 339 c 128,-1,35
 1845 398 1845 398 1864 488 c 2,36,-1
 2054 1383 l 1,37,-1
 2395 1530 l 1,38,-1
 2405 1530 l 1,39,-1
 2185 494 l 2,40,41
 2132 245 2132 245 1971 126 c 0,42,43
 1774 -20 1774 -20 1540 -20 c 0,44,45
 1304 -20 1304 -20 1168 131 c 1,46,47
 965 -20 965 -20 728 -20 c 0,6,7
EndSplineSet
Validated: 1
EndChar

StartChar: wacute
Encoding: 7811 7811 189
Width: 1880
Flags: W
HStem: -20 282<553.009 808.208 1203.16 1457.98> 1100 20G<621.768 678 1271.77 1328 1921.77 1978>
VStem: 218 304<302.941 467.253>
DStem2: 135.876 -20 435.451 -20 0.207912 0.978148<467.107 1024.41> 785.663 -20 1085.45 -20 0.207912 0.978148<467.151 1024.46> 1019 1250 1201 1160 0.541289 0.840837<22.8392 380.573> 1436.02 -20 1736.09 -20 0.207912 0.978148<327.213 1024.39>
LayerCount: 2
Fore
SplineSet
1235 1570 m 1,0,-1
 1408 1478 l 1,1,-1
 1201 1160 l 1,2,-1
 1191 1160 l 1,3,-1
 1019 1250 l 1,4,-1
 1225 1570 l 1,5,-1
 1235 1570 l 1,0,-1
641 -20 m 0,6,7
 423 -20 423 -20 311 102 c 0,8,9
 218 203 218 203 218 327 c 0,10,11
 218 364 218 364 226 404 c 2,12,-1
 349 982 l 1,13,-1
 668 1120 l 1,14,-1
 678 1120 l 1,15,-1
 526 406 l 2,16,17
 522 390 522 390 522 375 c 0,18,19
 522 332 522 332 554 302 c 0,20,21
 596 262 596 262 671 262 c 128,-1,22
 746 262 746 262 804.5 302.5 c 128,-1,23
 863 343 863 343 876 405 c 2,24,-1
 999 982 l 1,25,-1
 1318 1120 l 1,26,-1
 1328 1120 l 1,27,-1
 1176 406 l 2,28,29
 1172 390 1172 390 1172 375 c 0,30,31
 1172 332 1172 332 1204 302 c 0,32,33
 1246 262 1246 262 1321 262 c 128,-1,34
 1396 262 1396 262 1454.5 302.5 c 128,-1,35
 1513 343 1513 343 1526 405 c 2,36,-1
 1649 982 l 1,37,-1
 1968 1120 l 1,38,-1
 1978 1120 l 1,39,-1
 1826 403 l 2,40,41
 1782 196 1782 196 1652 101 c 0,42,43
 1486 -20 1486 -20 1291 -20 c 0,44,45
 1101 -20 1101 -20 991 93 c 1,46,47
 830 -20 830 -20 641 -20 c 0,6,7
EndSplineSet
Validated: 1
EndChar

StartChar: Wdieresis
Encoding: 7812 7812 190
Width: 2220
Flags: W
HStem: -20 300<621.116 927.938 1432.03 1737.34> 1510 20G<728.605 785 1538.61 1595 2348.61 2405> 1620 297<1219.47 1381.49 1558.98 1719.99>
VStem: 234 325<340.617 554.098> 1151 300<1688.5 1848.97> 1489 300<1688.5 1847.11>
DStem2: 135.746 -20 456.021 -20 0.207912 0.978148<544.428 1434.35> 946.021 -20 1266.02 -20 0.207912 0.978148<544.371 1434.29> 1756.02 -20 2075.75 -20 0.207912 0.978148<383.424 1434.29>
LayerCount: 2
Fore
SplineSet
1670 1917 m 128,-1,1
 1730 1917 1730 1917 1764 1873 c 0,2,3
 1788 1842 1788 1842 1789 1801 c 0,4,5
 1789 1784 1789 1784 1785 1768 c 0,6,7
 1772 1708 1772 1708 1720 1664 c 128,-1,8
 1668 1620 1668 1620 1607 1620 c 128,-1,9
 1546 1620 1546 1620 1513 1664 c 0,10,11
 1489 1696 1489 1696 1489 1735 c 0,12,13
 1489 1751 1489 1751 1493 1768 c 0,14,15
 1505 1827 1505 1827 1558 1872 c 0,16,0
 1610 1917 1610 1917 1670 1917 c 128,-1,1
1331.5 1917 m 128,-1,18
 1392 1917 1392 1917 1426 1873 c 0,19,20
 1451 1841 1451 1841 1451 1801 c 0,21,22
 1451 1786 1451 1786 1447 1768 c 0,23,24
 1434 1708 1434 1708 1381.5 1664 c 128,-1,25
 1329 1620 1329 1620 1269 1620 c 0,26,27
 1208 1620 1208 1620 1175 1664 c 0,28,29
 1151 1696 1151 1696 1151 1735 c 0,30,31
 1151 1751 1151 1751 1155 1768 c 0,32,33
 1168 1829 1168 1829 1219 1872 c 0,34,17
 1271 1917 1271 1917 1331.5 1917 c 128,-1,18
728 -20 m 0,35,36
 494 -20 494 -20 346 127 c 0,37,38
 234 239 234 239 234 392 c 0,39,40
 234 441 234 441 245 494 c 2,41,-1
 434 1383 l 1,42,-1
 775 1530 l 1,43,-1
 785 1530 l 1,44,-1
 564 488 l 2,45,46
 559 466 559 466 559 446 c 0,47,48
 559 383 559 383 604 338 c 0,49,50
 662 280 662 280 764.5 280 c 128,-1,51
 867 280 867 280 951 339 c 128,-1,52
 1035 398 1035 398 1054 488 c 2,53,-1
 1244 1383 l 1,54,-1
 1585 1530 l 1,55,-1
 1595 1530 l 1,56,-1
 1374 488 l 2,57,58
 1369 466 1369 466 1369 446 c 0,59,60
 1369 383 1369 383 1414 338 c 0,61,62
 1472 280 1472 280 1574.5 280 c 128,-1,63
 1677 280 1677 280 1761 339 c 128,-1,64
 1845 398 1845 398 1864 488 c 2,65,-1
 2054 1383 l 1,66,-1
 2395 1530 l 1,67,-1
 2405 1530 l 1,68,-1
 2185 494 l 2,69,70
 2132 245 2132 245 1971 126 c 0,71,72
 1774 -20 1774 -20 1540 -20 c 0,73,74
 1304 -20 1304 -20 1168 131 c 1,75,76
 965 -20 965 -20 728 -20 c 0,35,36
EndSplineSet
Validated: 1
EndChar

StartChar: wdieresis
Encoding: 7813 7813 191
Width: 1880
Flags: W
HStem: -20 282<553.009 808.208 1203.16 1457.98> 1100 20G<621.768 678 1271.77 1328 1921.77 1978> 1210 297<967.468 1129.49 1306.98 1467.99>
VStem: 218 304<302.941 467.253> 899 300<1278.5 1438.97> 1237 300<1278.5 1437.11>
DStem2: 135.876 -20 435.451 -20 0.207912 0.978148<467.107 1024.41> 785.663 -20 1085.45 -20 0.207912 0.978148<467.151 1024.46> 1436.02 -20 1736.09 -20 0.207912 0.978148<327.213 1024.39>
LayerCount: 2
Fore
SplineSet
1418 1507 m 128,-1,1
 1478 1507 1478 1507 1512 1463 c 0,2,3
 1536 1432 1536 1432 1537 1391 c 0,4,5
 1537 1374 1537 1374 1533 1358 c 0,6,7
 1520 1298 1520 1298 1468 1254 c 128,-1,8
 1416 1210 1416 1210 1355 1210 c 128,-1,9
 1294 1210 1294 1210 1261 1254 c 0,10,11
 1237 1286 1237 1286 1237 1325 c 0,12,13
 1237 1341 1237 1341 1241 1358 c 0,14,15
 1253 1417 1253 1417 1306 1462 c 0,16,0
 1358 1507 1358 1507 1418 1507 c 128,-1,1
1079.5 1507 m 128,-1,18
 1140 1507 1140 1507 1174 1463 c 0,19,20
 1199 1431 1199 1431 1199 1391 c 0,21,22
 1199 1376 1199 1376 1195 1358 c 0,23,24
 1182 1298 1182 1298 1129.5 1254 c 128,-1,25
 1077 1210 1077 1210 1017 1210 c 0,26,27
 956 1210 956 1210 923 1254 c 0,28,29
 899 1286 899 1286 899 1325 c 0,30,31
 899 1341 899 1341 903 1358 c 0,32,33
 916 1419 916 1419 967 1462 c 0,34,17
 1019 1507 1019 1507 1079.5 1507 c 128,-1,18
641 -20 m 0,35,36
 423 -20 423 -20 311 102 c 0,37,38
 218 203 218 203 218 327 c 0,39,40
 218 364 218 364 226 404 c 2,41,-1
 349 982 l 1,42,-1
 668 1120 l 1,43,-1
 678 1120 l 1,44,-1
 526 406 l 2,45,46
 522 390 522 390 522 375 c 0,47,48
 522 332 522 332 554 302 c 0,49,50
 596 262 596 262 671 262 c 128,-1,51
 746 262 746 262 804.5 302.5 c 128,-1,52
 863 343 863 343 876 405 c 2,53,-1
 999 982 l 1,54,-1
 1318 1120 l 1,55,-1
 1328 1120 l 1,56,-1
 1176 406 l 2,57,58
 1172 390 1172 390 1172 375 c 0,59,60
 1172 332 1172 332 1204 302 c 0,61,62
 1246 262 1246 262 1321 262 c 128,-1,63
 1396 262 1396 262 1454.5 302.5 c 128,-1,64
 1513 343 1513 343 1526 405 c 2,65,-1
 1649 982 l 1,66,-1
 1968 1120 l 1,67,-1
 1978 1120 l 1,68,-1
 1826 403 l 2,69,70
 1782 196 1782 196 1652 101 c 0,71,72
 1486 -20 1486 -20 1291 -20 c 0,73,74
 1101 -20 1101 -20 991 93 c 1,75,76
 830 -20 830 -20 641 -20 c 0,35,36
EndSplineSet
Validated: 1
EndChar

StartChar: Ygrave
Encoding: 7922 7922 192
Width: 1270
Flags: W
HStem: -20 21G<471 527.395> 1510 20G<668.605 725 1458.61 1515>
VStem: 259 325<737.177 950.58>
DStem2: 75.361 -20 395.636 -20 0.207912 0.978148<954.357 1434.43> 865.783 -20 1185.54 -20 0.207912 0.978148<788.583 1434.34> 1109 1980 901 1895 0.255077 -0.966921<29.1322 337.153>
LayerCount: 2
Fore
SplineSet
481 -20 m 1,0,-1
 471 -20 l 1,1,-1
 559 397 l 1,2,3
 442 444 442 444 370 524 c 0,4,5
 259 647 259 647 259 797 c 0,6,7
 259 843 259 843 269 891 c 2,8,-1
 374 1383 l 1,9,-1
 715 1530 l 1,10,-1
 725 1530 l 1,11,-1
 588 885 l 2,12,13
 584 865 584 865 584 847 c 0,14,15
 584 787 584 787 628 735 c 0,16,17
 678 677 678 677 779 677 c 128,-1,18
 880 677 880 677 959.5 736 c 128,-1,19
 1039 795 1039 795 1058 885 c 2,20,-1
 1164 1383 l 1,21,-1
 1505 1530 l 1,22,-1
 1515 1530 l 1,23,-1
 1379 891 l 2,24,25
 1326 642 1326 642 1165 523 c 0,26,27
 1059 444 1059 444 880 398 c 1,28,-1
 822 127 l 1,29,-1
 481 -20 l 1,0,-1
1099 1980 m 1,30,-1
 1109 1980 l 1,31,-1
 1195 1654 l 1,32,-1
 999 1570 l 1,33,-1
 989 1570 l 1,34,-1
 901 1895 l 1,35,-1
 1099 1980 l 1,30,-1
EndSplineSet
Validated: 1
EndChar

StartChar: ygrave
Encoding: 7923 7923 193
Width: 1250
Flags: W
HStem: -410 250<361 700.172> -20 280<552.539 789.3> 1100 20G<621.768 678 1271.77 1328>
VStem: 218 304<298.941 464.35>
DStem2: 53.1915 -410 353.254 -410 0.207912 0.978148<861.802 1423.08> 703.121 -410 1002.79 -410 0.207912 0.978148<717.824 1423.1> 983 1570 775 1485 0.252301 -0.967649<29.7715 336.899>
LayerCount: 2
Fore
SplineSet
193 -410 m 1,0,-1
 195 -400 l 1,1,-1
 361 -160 l 1,2,-1
 567 -160 l 2,3,4
 660 -160 660 -160 727 -96 c 0,5,6
 775 -51 775 -51 795 28 c 1,7,8
 716 -20 716 -20 620 -20 c 0,9,10
 425 -20 425 -20 312 102 c 0,11,12
 218 204 218 204 218 328 c 0,13,14
 218 365 218 365 226 403 c 2,15,-1
 349 982 l 1,16,-1
 668 1120 l 1,17,-1
 678 1120 l 1,18,-1
 525 398 l 2,19,20
 522 384 522 384 522 371 c 0,21,22
 522 328 522 328 554 298 c 0,23,24
 596 260 596 260 670 260 c 0,25,26
 748 260 748 260 805 299 c 128,-1,27
 862 338 862 338 875 398 c 2,28,-1
 999 982 l 1,29,-1
 1318 1120 l 1,30,-1
 1328 1120 l 1,31,-1
 1095 24 l 2,32,33
 1050 -188 1050 -188 919 -286 c 0,34,35
 753 -410 753 -410 558 -410 c 2,36,-1
 193 -410 l 1,0,-1
973 1570 m 1,37,-1
 983 1570 l 1,38,-1
 1068 1244 l 1,39,-1
 873 1160 l 1,40,-1
 863 1160 l 1,41,-1
 775 1485 l 1,42,-1
 973 1570 l 1,37,-1
EndSplineSet
Validated: 1
EndChar

StartChar: AE
Encoding: 198 198 194
Width: 1728
Flags: W
HStem: -20 21G<136 192.395> 0 300<1172 1582> 605 300<652 917 1300 1661> 1210 300<1365 1789> 1230 300<797.174 1045.5>
DStem2: 136 -20 455.754 -20 0.207912 0.978148<216.765 705.526 1012.07 1272.98> 783.749 -20 1103.98 -20 0.207912 0.978148<393.729 639.047 1012.12 1266.22>
LayerCount: 2
Fore
SplineSet
1582 0 m 1,0,-1
 788 0 l 1,1,-1
 917 605 l 1,2,-1
 589 605 l 1,3,-1
 487 127 l 1,4,-1
 146 -20 l 1,5,-1
 136 -20 l 1,6,-1
 356 1016 l 2,7,8
 408 1262 408 1262 570 1383 c 0,9,10
 768 1530 768 1530 1001 1530 c 0,11,12
 1114 1530 1114 1530 1184 1510 c 1,13,-1
 1989 1510 l 1,14,-1
 1987 1500 l 1,15,-1
 1789 1210 l 1,16,-1
 1365 1210 l 1,17,-1
 1300 905 l 1,18,-1
 1860 905 l 1,19,-1
 1858 895 l 1,20,-1
 1661 605 l 1,21,-1
 1237 605 l 1,22,-1
 1172 300 l 1,23,-1
 1782 300 l 1,24,-1
 1780 290 l 1,25,-1
 1582 0 l 1,0,-1
1047 1218 m 1,26,27
 1011 1230 1011 1230 967 1230 c 0,28,29
 865 1230 865 1230 781.5 1175.5 c 128,-1,30
 698 1121 698 1121 681 1038 c 2,31,-1
 652 905 l 1,32,-1
 980 905 l 1,33,-1
 1047 1218 l 1,26,27
EndSplineSet
Validated: 1
EndChar

StartChar: Eth
Encoding: 208 208 195
Width: 1390
Flags: W
HStem: 0 300<544 933.16> 665 180<261 301 660 865> 1210 300<749 1107.36>
VStem: 1169 323<944.551 1149.78>
DStem2: 160 0 480.233 0 0.207912 0.978148<373.282 679.784 930.491 1303.52> 949.509 0 1269.96 0 0.207912 0.978148<378.552 1071.13>
CounterMasks: 1 e0
LayerCount: 2
Fore
SplineSet
160 0 m 1,0,-1
 301 665 l 1,1,-1
 141 665 l 1,2,-1
 143 675 l 1,3,-1
 261 845 l 1,4,-1
 340 845 l 1,5,-1
 454 1383 l 1,6,-1
 749 1510 l 1,7,-1
 1011 1510 l 2,8,9
 1245 1510 1245 1510 1380 1362 c 0,10,11
 1492 1240 1492 1240 1492 1090 c 0,12,13
 1492 1045 1492 1045 1482 997 c 2,14,-1
 1379 513 l 2,15,16
 1326 269 1326 269 1166 148 c 0,17,18
 970 0 970 0 735 0 c 2,19,-1
 160 0 l 1,0,-1
544 300 m 1,20,-1
 769 300 l 2,21,22
 872 300 872 300 956 357 c 0,23,24
 1038 413 1038 413 1056 501 c 2,25,-1
 1164 1009 l 2,26,27
 1169 1030 1169 1030 1169 1049 c 0,28,29
 1169 1110 1169 1110 1123 1153 c 0,30,31
 1063 1210 1063 1210 962 1210 c 2,32,-1
 737 1210 l 1,33,-1
 660 845 l 1,34,-1
 985 845 l 1,35,-1
 982 835 l 1,36,-1
 865 665 l 1,37,-1
 621 665 l 1,38,-1
 544 300 l 1,20,-1
EndSplineSet
Validated: 1
EndChar

StartChar: Dcroat
Encoding: 272 272 196
Width: 1390
Flags: W
HStem: 0 300<544 933.16> 665 180<261 301 660 865> 1210 300<749 1107.36>
VStem: 1169 323<944.551 1149.78>
DStem2: 160 0 480.233 0 0.207912 0.978148<373.282 679.784 930.491 1303.52> 949.509 0 1269.96 0 0.207912 0.978148<378.552 1071.13>
CounterMasks: 1 e0
LayerCount: 2
Fore
SplineSet
160 0 m 1,0,-1
 301 665 l 1,1,-1
 141 665 l 1,2,-1
 143 675 l 1,3,-1
 261 845 l 1,4,-1
 340 845 l 1,5,-1
 454 1383 l 1,6,-1
 749 1510 l 1,7,-1
 1011 1510 l 2,8,9
 1245 1510 1245 1510 1380 1362 c 0,10,11
 1492 1240 1492 1240 1492 1090 c 0,12,13
 1492 1045 1492 1045 1482 997 c 2,14,-1
 1379 513 l 2,15,16
 1326 269 1326 269 1166 148 c 0,17,18
 970 0 970 0 735 0 c 2,19,-1
 160 0 l 1,0,-1
544 300 m 1,20,-1
 769 300 l 2,21,22
 872 300 872 300 956 357 c 0,23,24
 1038 413 1038 413 1056 501 c 2,25,-1
 1164 1009 l 2,26,27
 1169 1030 1169 1030 1169 1049 c 0,28,29
 1169 1110 1169 1110 1123 1153 c 0,30,31
 1063 1210 1063 1210 962 1210 c 2,32,-1
 737 1210 l 1,33,-1
 660 845 l 1,34,-1
 985 845 l 1,35,-1
 982 835 l 1,36,-1
 865 665 l 1,37,-1
 621 665 l 1,38,-1
 544 300 l 1,20,-1
EndSplineSet
Validated: 1
EndChar

StartChar: Hbar
Encoding: 294 294 197
Width: 1440
Flags: W
HStem: -20 21G<156 212.395 956 1012.39> 605 300<672 1089> 1197 180<404 414 773 1214 1573 1583> 1510 20G<748.605 805 1548.61 1605>
DStem2: 156 -20 475.754 -20 0.207912 0.978148<216.765 705.526 1012.07 1244.05> 956 -20 1275.75 -20 0.207912 0.978148<216.765 638.995 945.537 1244.05>
LayerCount: 2
Fore
SplineSet
166 -20 m 1,0,-1
 156 -20 l 1,1,-1
 414 1197 l 1,2,-1
 284 1197 l 1,3,-1
 287 1207 l 1,4,-1
 404 1377 l 1,5,-1
 453 1377 l 1,6,-1
 454 1383 l 1,7,-1
 795 1530 l 1,8,-1
 805 1530 l 1,9,-1
 773 1377 l 1,10,-1
 1253 1377 l 1,11,-1
 1254 1383 l 1,12,-1
 1595 1530 l 1,13,-1
 1605 1530 l 1,14,-1
 1573 1377 l 1,15,-1
 1703 1377 l 1,16,-1
 1701 1367 l 1,17,-1
 1583 1197 l 1,18,-1
 1534 1197 l 1,19,-1
 1307 127 l 1,20,-1
 966 -20 l 1,21,-1
 956 -20 l 1,22,-1
 1089 605 l 1,23,-1
 609 605 l 1,24,-1
 507 127 l 1,25,-1
 166 -20 l 1,0,-1
734 1197 m 1,26,-1
 672 905 l 1,27,-1
 1152 905 l 1,28,-1
 1214 1197 l 1,29,-1
 734 1197 l 1,26,-1
EndSplineSet
Validated: 1
EndChar

StartChar: IJ
Encoding: 306 306 198
Width: 1831
Flags: W
HStem: -20 300<1076.4 1374.68> 1210 300<1183 1648> 1510 20G<748.605 805>
DStem2: 156 -20 475.754 -20 0.207912 0.978148<216.765 1434.3> 1386.56 -20 1706.79 -20 0.207912 0.978148<377.915 1257.48>
LayerCount: 2
Fore
SplineSet
1186 -20 m 0,0,1
 938 -20 938 -20 808 131 c 0,2,3
 711 245 711 245 711 401 c 1,4,-1
 1024 535 l 1,5,-1
 1034 535 l 1,6,-1
 1022 482 l 2,7,8
 1017 460 1017 460 1017 440 c 0,9,10
 1017 380 1017 380 1063 336 c 0,11,12
 1123 280 1123 280 1220 280 c 128,-1,13
 1317 280 1317 280 1397 337 c 0,14,15
 1474 392 1474 392 1493 482 c 2,16,-1
 1648 1210 l 1,17,-1
 983 1210 l 1,18,-1
 985 1220 l 1,19,-1
 1183 1510 l 1,20,-1
 2032 1510 l 1,21,-1
 1816 494 l 2,22,23
 1764 247 1764 247 1607 127 c 0,24,25
 1415 -20 1415 -20 1186 -20 c 0,0,1
166 -20 m 1,26,-1
 156 -20 l 1,27,-1
 454 1383 l 1,28,-1
 795 1530 l 1,29,-1
 805 1530 l 1,30,-1
 507 127 l 1,31,-1
 166 -20 l 1,26,-1
EndSplineSet
Validated: 1
EndChar

StartChar: lslash
Encoding: 322 322 199
Width: 766
Flags: W
HStem: -20 21G<229 285.232> 1510 20G<801.768 858>
DStem2: 229 -20 528.667 -20 0.207912 0.978148<203.387 621.534 823.94 827.086 1029.49 1443.52>
LayerCount: 2
Fore
SplineSet
239 -20 m 1,0,-1
 229 -20 l 1,1,-1
 358 588 l 1,2,-1
 161 505 l 1,3,-1
 159 514 l 1,4,-1
 199 701 l 1,5,-1
 400 786 l 1,6,-1
 529 1392 l 1,7,-1
 848 1530 l 1,8,-1
 858 1530 l 1,9,-1
 730 926 l 1,10,-1
 926 1009 l 1,11,-1
 929 1000 l 1,12,-1
 889 813 l 1,13,-1
 688 728 l 1,14,-1
 558 118 l 1,15,-1
 239 -20 l 1,0,-1
EndSplineSet
Validated: 1
EndChar

StartChar: Lslash
Encoding: 321 321 200
Width: 1100
Flags: W
HStem: 0 300<544 954> 1510 20G<748.288 805>
DStem2: 160.219 0 480.233 0 0.207912 0.978148<373.237 552.064 754.469 770.785 973.398 1414.84>
LayerCount: 2
Fore
SplineSet
160 0 m 1,0,-1
 275 540 l 1,1,-1
 191 505 l 1,2,-1
 189 514 l 1,3,-1
 229 701 l 1,4,-1
 317 738 l 1,5,-1
 454 1384 l 1,6,-1
 795 1530 l 1,7,-1
 805 1530 l 1,8,-1
 669 887 l 1,9,-1
 956 1009 l 1,10,-1
 959 1000 l 1,11,-1
 919 813 l 1,12,-1
 626 689 l 1,13,-1
 544 300 l 1,14,-1
 1154 300 l 1,15,-1
 1152 290 l 1,16,-1
 954 0 l 1,17,-1
 160 0 l 1,0,-1
EndSplineSet
Validated: 1
EndChar

StartChar: Eng
Encoding: 330 330 201
Width: 1410
Flags: W
HStem: -410 21G<559 766> -20 21G<136 192.395> 1230 300<803.741 1109.24>
VStem: 1172 325<955.998 1168.7>
DStem2: 53.1029 -410 372.857 -410 0.207912 0.978148<615.478 1666.35> 863.297 -410 1182.75 -410 0.207912 0.978148<382.73 1505.36>
LayerCount: 2
Fore
SplineSet
146 -20 m 1,0,-1
 136 -20 l 1,1,-1
 356 1016 l 2,2,3
 409 1265 409 1265 570 1384 c 0,4,5
 767 1530 767 1530 1001.5 1530 c 128,-1,6
 1236 1530 1236 1530 1384 1383 c 0,7,8
 1497 1271 1497 1271 1497 1117 c 0,9,10
 1497 1068 1497 1068 1486 1016 c 2,11,-1
 1292 104 l 2,12,13
 1239 -145 1239 -145 1079 -264 c 0,14,15
 883 -410 883 -410 649 -410 c 2,16,-1
 559 -410 l 1,17,-1
 561 -400 l 1,18,-1
 769 -99 l 1,19,20
 822 -85 822 -85 869 -53 c 0,21,22
 951 4 951 4 970 92 c 2,23,-1
 1167 1022 l 2,24,25
 1172 1044 1172 1044 1172 1064 c 0,26,27
 1172 1127 1172 1127 1127 1172 c 0,28,29
 1069 1230 1069 1230 966.5 1230 c 128,-1,30
 864 1230 864 1230 780 1171 c 128,-1,31
 696 1112 696 1112 677 1022 c 2,32,-1
 487 127 l 1,33,-1
 146 -20 l 1,0,-1
EndSplineSet
Validated: 1
EndChar

StartChar: OE
Encoding: 338 338 202
Width: 1714
Flags: W
HStem: -20 300<599.507 837.594> 0 300<1158 1568> 0 280<694.252 834.655> 605 300<1286 1647> 1210 300<1351 1775> 1230 300<783.449 1031.21>
VStem: 214 323<341.5 546.159>
DStem2: 115.746 -20 435.297 -20 0.207912 0.978148<539.122 1266.85> 769.257 -20 1089.98 -20 0.207912 0.978148<393.831 705.681 1012.22 1265.38>
LayerCount: 2
Fore
SplineSet
1568 0 m 1,0,-1
 843 0 l 1,1,2
 764 -20 764 -20 692 -20 c 0,3,4
 459 -20 459 -20 324 127 c 0,5,6
 214 246 214 246 214 397 c 0,7,8
 214 444 214 444 225 494 c 2,9,-1
 336 1016 l 2,10,11
 388 1262 388 1262 551 1384 c 0,12,13
 748 1530 748 1530 981 1530 c 0,14,15
 1094 1530 1094 1530 1164 1510 c 1,16,-1
 1975 1510 l 1,17,-1
 1973 1500 l 1,18,-1
 1775 1210 l 1,19,-1
 1351 1210 l 1,20,-1
 1286 905 l 1,21,-1
 1846 905 l 1,22,-1
 1844 895 l 1,23,-1
 1647 605 l 1,24,-1
 1223 605 l 1,25,-1
 1158 300 l 1,26,-1
 1768 300 l 1,27,-1
 1766 290 l 1,28,-1
 1568 0 l 1,0,-1
836 294 m 1,29,-1
 1032 1216 l 1,30,31
 994 1230 994 1230 947 1230 c 0,32,33
 846 1230 846 1230 761.5 1173 c 128,-1,34
 677 1116 677 1116 659 1028 c 2,35,-1
 542 482 l 2,36,37
 537 461 537 461 537 441 c 0,38,39
 537 378 537 378 584 336 c 0,40,41
 644 280 644 280 746 280 c 0,42,43
 793 280 793 280 836 294 c 1,29,-1
EndSplineSet
Validated: 1
EndChar

StartChar: Thorn
Encoding: 222 222 203
Width: 1270
Flags: W
HStem: -20 21G<156 212.395> 220 301<591 944.927> 990 300<754 1020.27> 1510 20G<748.605 805>
VStem: 1086 319<663.104 929.249>
DStem2: 156 -20 475.754 -20 0.207912 0.978148<216.765 311.891 619.619 1098.95 1405.7 1434.3>
LayerCount: 2
Fore
SplineSet
591 521 m 1,0,-1
 803 521 l 2,1,2
 901 521 901 521 981 592 c 128,-1,3
 1061 663 1061 663 1081 755 c 0,4,5
 1086 781 1086 781 1086 805 c 0,6,7
 1086 866 1086 866 1050 918 c 0,8,9
 1000 990 1000 990 902 990 c 2,10,-1
 690 990 l 1,11,-1
 591 521 l 1,0,-1
166 -20 m 1,12,-1
 156 -20 l 1,13,-1
 454 1383 l 1,14,-1
 795 1530 l 1,15,-1
 805 1530 l 1,16,-1
 754 1290 l 1,17,-1
 930 1290 l 2,18,19
 1183 1290 1183 1290 1305 1133 c 0,20,21
 1404 1006 1404 1006 1405 829 c 0,22,23
 1405 793 1405 793 1401 755 c 0,24,25
 1376 527 1376 527 1194 376 c 0,26,27
 1007 220 1007 220 763 220 c 2,28,-1
 527 220 l 1,29,-1
 507 127 l 1,30,-1
 166 -20 l 1,12,-1
EndSplineSet
Validated: 1
EndChar

StartChar: Tbar
Encoding: 358 358 204
Width: 1190
Flags: W
HStem: -20 21G<431 487.712> 416 180<448 523 882 957> 1210 300<467 692 1012 1301>
DStem2: 431 -20 750.967 -20 0.207912 0.978148<215.787 445.6 696.307 1257.39>
LayerCount: 2
Fore
SplineSet
441 -20 m 1,0,-1
 431 -20 l 1,1,-1
 523 416 l 1,2,-1
 328 416 l 1,3,-1
 331 426 l 1,4,-1
 448 596 l 1,5,-1
 562 596 l 1,6,-1
 692 1210 l 1,7,-1
 267 1210 l 1,8,-1
 269 1220 l 1,9,-1
 467 1510 l 1,10,-1
 1501 1510 l 1,11,-1
 1499 1500 l 1,12,-1
 1301 1210 l 1,13,-1
 1012 1210 l 1,14,-1
 882 596 l 1,15,-1
 1077 596 l 1,16,-1
 1075 586 l 1,17,-1
 957 416 l 1,18,-1
 843 416 l 1,19,-1
 782 126 l 1,20,-1
 441 -20 l 1,0,-1
EndSplineSet
Validated: 1
EndChar

StartChar: tbar
Encoding: 359 359 205
Width: 890
Flags: W
HStem: -20 21G<296 352.316> 416 180<303 388 717 802> 820 280<373 474 824 925> 1510 20G<858.684 915>
DStem2: 296 -20 585.73 -20 0.207912 0.978148<196.21 445.6 690.07 858.652 1205.3 1448.62>
LayerCount: 2
Fore
SplineSet
183 416 m 1,0,-1
 186 426 l 1,1,-1
 303 596 l 1,2,-1
 427 596 l 1,3,-1
 474 820 l 1,4,-1
 184 820 l 1,5,-1
 186 830 l 1,6,-1
 373 1100 l 1,7,-1
 534 1100 l 1,8,-1
 597 1397 l 1,9,-1
 905 1530 l 1,10,-1
 915 1530 l 1,11,-1
 824 1100 l 1,12,-1
 1114 1100 l 1,13,-1
 1112 1090 l 1,14,-1
 925 820 l 1,15,-1
 764 820 l 1,16,-1
 717 596 l 1,17,-1
 922 596 l 1,18,-1
 920 586 l 1,19,-1
 802 416 l 1,20,-1
 678 416 l 1,21,-1
 614 113 l 1,22,-1
 306 -20 l 1,23,-1
 296 -20 l 1,24,-1
 388 416 l 1,25,-1
 183 416 l 1,0,-1
EndSplineSet
Validated: 1
EndChar

StartChar: thorn
Encoding: 254 254 206
Width: 1230
Flags: W
HStem: -430 21G<69 125.232> -20 281<572.799 828.359> 840 280<693.782 931.953> 1510 20G<728.768 785>
VStem: 962 304<522.125 805.284>
DStem2: 69 -430 368.667 -430 0.207912 0.978148<203.387 530.533 887.365 1325.66 1597.88 1862.65> 718.386 -430 1018.73 -430 0.207912 0.978148<742.642 1184.87>
LayerCount: 2
Fore
SplineSet
814.5 840 m 128,-1,1
 740 840 740 840 681.5 801.5 c 128,-1,2
 623 763 623 763 609 702 c 2,3,-1
 546 405 l 2,4,5
 543 390 543 390 543 376 c 0,6,7
 543 333 543 333 574 302 c 0,8,9
 615 261 615 261 689.5 261 c 128,-1,10
 764 261 764 261 823.5 301.5 c 128,-1,11
 883 342 883 342 896 406 c 2,12,-1
 959 702 l 2,13,14
 962 716 962 716 962 730 c 0,15,16
 962 772 962 772 931 801 c 0,17,0
 889 840 889 840 814.5 840 c 128,-1,1
79 -430 m 1,18,-1
 69 -430 l 1,19,-1
 456 1392 l 1,20,-1
 775 1530 l 1,21,-1
 785 1530 l 1,22,-1
 688 1072 l 1,23,24
 769 1120 769 1120 863 1120 c 0,25,26
 1061 1120 1061 1120 1173 998 c 0,27,28
 1266 897 1266 897 1266 772 c 0,29,30
 1266 734 1266 734 1258 696 c 2,31,-1
 1196 404 l 2,32,33
 1152 198 1152 198 1023 102 c 0,34,35
 859 -20 859 -20 661 -20 c 0,36,37
 533 -20 533 -20 466 28 c 1,38,-1
 398 -292 l 1,39,-1
 79 -430 l 1,18,-1
EndSplineSet
Validated: 1
EndChar

StartChar: eth
Encoding: 240 240 207
Width: 1190
Flags: W
HStem: -20 280<534.297 786.438> 1510 20G<791.714 860.4>
VStem: 199 304<302.972 474.38> 933 298<683.62 855.028>
DStem2: 115.325 -20 415.388 -20 0.207912 0.978148<471.342 959.736> 765.388 -20 1065.54 -20 0.207912 0.978148<323.815 815.929>
LayerCount: 2
Fore
SplineSet
621 -20 m 128,-1,1
 426 -20 426 -20 298 106 c 0,2,3
 199 203 199 203 199 334 c 0,4,5
 199 374 199 374 208 416 c 2,6,-1
 273 718 l 2,7,8
 319 932 319 932 447 1029 c 0,9,10
 576 1126 576 1126 769 1144 c 1,11,-1
 716 1232 l 1,12,-1
 486 1134 l 1,13,-1
 484 1143 l 1,14,-1
 524 1330 l 1,15,-1
 625 1373 l 1,16,-1
 595 1425 l 1,17,-1
 838 1530 l 1,18,-1
 848 1530 l 1,19,-1
 879 1480 l 1,20,-1
 1072 1562 l 1,21,-1
 1074 1553 l 1,22,-1
 1034 1366 l 1,23,-1
 967 1338 l 1,24,-1
 1173 1005 l 2,25,26
 1231 911 1231 911 1231 805 c 0,27,28
 1231 762 1231 762 1222 717 c 2,29,-1
 1158 415 l 2,30,31
 1113 202 1113 202 982 104 c 0,32,0
 816 -20 816 -20 621 -20 c 128,-1,1
650 260 m 128,-1,34
 724 260 724 260 785 303 c 0,35,36
 843 344 843 344 857 411 c 2,37,-1
 929 747 l 2,38,39
 933 764 933 764 933 779 c 0,40,41
 933 825 933 825 902 856 c 0,42,43
 860 898 860 898 785.5 898 c 128,-1,44
 711 898 711 898 652 855 c 128,-1,45
 593 812 593 812 579 747 c 2,46,-1
 507 411 l 2,47,48
 503 394 503 394 503 379 c 0,49,50
 503 333 503 333 534 302 c 0,51,33
 576 260 576 260 650 260 c 128,-1,34
EndSplineSet
Validated: 1
EndChar

